RaqqSura.glyphspackage
{
glyphname = period;
layers = (
{
backgroundImage = {
alpha = 80;
angle = -1.4;
imagePath = "images/MS-ADD-01116-000-00009.jpg";
locked = 1;
pos = (-1907,-3694);
scale = (5,5);
};
layerId = m01;
shapes = (
{
closed = 1;
nodes = (
(154,4,o),
(167,9,o),
(179,28,cs),
(197,56,o),
(212,86,o),
(218,106,cs),
(222,120,o),
(216,129,o),
(205,132,cs),
(165,143,o),
(118,167,o),
(88,184,cs),
(79,189,o),
(74,184,o),
(71,177,cs),
(49,129,o),
(31,96,o),
(11,92,cs),
(-2,89,o),
(-3,79,o),
(7,70,cs),
(40,40,o),
(116,14,o),
(135,9,cs)
);
}
);
width = 219;
}
);
metricLeft = "=0";
metricRight = "=0";
unicode = 46;
}
{
color = 9;
glyphname = "alef-ar";
layers = (
{
anchors = (
{
name = damma;
pos = (-63,60);
},
{
name = fatha;
pos = (147,622);
},
{
name = kasra;
pos = (372,-102);
},
{
name = madda;
pos = (-63,626);
}
);
backgroundImage = {
alpha = 80;
angle = -1.3;
imagePath = "images/MS-ADD-01116-000-00003.jpg";
locked = 1;
pos = (-2942,-2810);
scale = (5,5);
};
layerId = m01;
shapes = (
{
closed = 1;
nodes = (
(455,-50,o),
(597,26,o),
(662,138,c),
(590,90,o),
(381,36,o),
(239,111,cs),
(156,154,o),
(102,234,o),
(96,345,cs),
(90,452,o),
(101,675,o),
(81,792,c),
(68,754,o),
(15,693,o),
(-21,686,c),
(-3,602,o),
(-1,347,o),
(0,262,cs),
(2,44,o),
(148,-46,o),
(311,-48,cs)
);
}
);
width = 662;
},
{
associatedMasterId = m01;
attr = {
colorPalette = 4;
};
layerId = "B1BBDB7A-E1BD-4E0F-BD1C-F1A9AF9B488A";
name = "Regular 8 Jan 24 at 23:50";
shapes = (
{
closed = 1;
nodes = (
(455,-50,o),
(597,26,o),
(662,138,c),
(590,90,o),
(381,36,o),
(239,111,cs),
(156,154,o),
(102,234,o),
(96,345,cs),
(90,452,o),
(101,675,o),
(81,792,c),
(68,754,o),
(15,693,o),
(-21,686,c),
(-3,602,o),
(-1,347,o),
(0,262,cs),
(2,44,o),
(148,-46,o),
(311,-48,cs)
);
}
);
width = 662;
},
{
associatedMasterId = m01;
attr = {
colorPalette = 1;
};
layerId = "E8AE70B6-982A-4560-87D2-37798FC1B16D";
metricRight = "=31";
name = "Regular 8 Jan 24 at 22:31";
shapes = (
{
closed = 1;
nodes = (
(437,-40,o),
(561,19,o),
(631,110,c),
(538,68,o),
(361,35,o),
(234,102,cs),
(149,147,o),
(92,230,o),
(86,344,cs),
(80,443,o),
(89,638,o),
(76,759,c),
(55,726,o),
(20,690,o),
(-9,679,c),
(7,586,o),
(9,344,o),
(10,262,cs),
(12,51,o),
(152,-36,o),
(311,-38,cs)
);
}
);
width = 662;
},
{
anchors = (
{
name = damma;
pos = (-67,60);
},
{
name = fatha;
pos = (143,622);
},
{
name = kasra;
pos = (283,-62);
},
{
name = madda;
pos = (-67,626);
}
);
associatedMasterId = m01;
attr = {
coordinates = (
0
);
};
layerId = "F1083509-7AFD-4516-A401-FC3F16E2B7A7";
name = "Color 7 {7} 8 Jan 24 at 22:47";
shapes = (
{
closed = 1;
nodes = (
(321,-9,o),
(431,32,o),
(493,154,c),
(407,99,o),
(295,103,o),
(224,122,cs),
(122,150,o),
(98,237,o),
(92,345,cs),
(84,499,o),
(100,639,o),
(76,800,c),
(52,748,o),
(19,711,o),
(-25,688,c),
(-6,573,o),
(0,375,o),
(0,262,cs),
(0,75,o),
(77,-4,o),
(222,-7,cs)
);
}
);
width = 493;
},
{
associatedMasterId = m01;
attr = {
colorPalette = 4;
coordinates = (
0
);
};
layerId = "B2975D32-22D5-4D0D-A98A-BC567DCA4288";
name = "Color 4 {0} 8 Jan 24 at 23:51";
shapes = (
{
closed = 1;
nodes = (
(321,-9,o),
(431,32,o),
(493,154,c),
(407,99,o),
(295,103,o),
(224,122,cs),
(122,150,o),
(98,237,o),
(92,345,cs),
(84,499,o),
(100,639,o),
(76,800,c),
(52,748,o),
(19,711,o),
(-25,688,c),
(-6,573,o),
(0,375,o),
(0,262,cs),
(0,75,o),
(77,-4,o),
(222,-7,cs)
);
}
);
width = 493;
},
{
associatedMasterId = m01;
attr = {
colorPalette = 1;
coordinates = (
0
);
};
layerId = "E5FAE675-6B3A-423C-9291-F9C12C865A83";
metricRight = "=26";
name = "Color 7 {7} 8 Jan 24 at 22:43";
shapes = (
{
closed = 1;
nodes = (
(310,1,o),
(405,34,o),
(467,128,c),
(383,90,o),
(286,95,o),
(221,112,cs),
(113,142,o),
(88,235,o),
(82,344,cs),
(74,489,o),
(88,621,o),
(70,768,c),
(48,731,o),
(20,702,o),
(-14,683,c),
(4,566,o),
(10,373,o),
(10,262,cs),
(10,81,o),
(83,6,o),
(222,3,cs)
);
}
);
width = 493;
},
{
anchors = (
{
name = damma;
pos = (-67,60);
},
{
name = fatha;
pos = (143,622);
},
{
name = kasra;
pos = (283,-62);
},
{
name = madda;
pos = (-67,626);
}
);
associatedMasterId = m01;
attr = {
coordinates = (
7
);
};
backgroundImage = {
alpha = 80;
angle = 2;
crop = (0,0,1500,1216);
imagePath = "images/MS-ADD-01116-000-00030.jpg";
locked = 1;
pos = (-1598,-1814);
scale = (5,5);
};
layerId = "AA0735CD-310B-4645-8929-3AD48CA3F9B3";
name = "Color 7 {7} 8 Jan 24 at 22:50";
shapes = (
{
closed = 1;
nodes = (
(321,-9,o),
(431,32,o),
(493,154,c),
(407,99,o),
(295,103,o),
(224,122,cs),
(122,150,o),
(98,237,o),
(92,345,cs),
(84,499,o),
(100,639,o),
(76,800,c),
(52,748,o),
(19,711,o),
(-25,688,c),
(-6,573,o),
(0,375,o),
(0,262,cs),
(0,75,o),
(77,-4,o),
(222,-7,cs)
);
}
);
width = 493;
},
{
associatedMasterId = m01;
attr = {
colorPalette = 4;
coordinates = (
7
);
};
layerId = "DF16497D-7E0A-463C-BC14-46F3513E19D1";
name = "Color 4 {7} 8 Jan 24 at 23:50";
shapes = (
{
closed = 1;
nodes = (
(321,-9,o),
(431,32,o),
(493,154,c),
(407,99,o),
(295,103,o),
(224,122,cs),
(122,150,o),
(98,237,o),
(92,345,cs),
(84,499,o),
(100,639,o),
(76,800,c),
(52,748,o),
(19,711,o),
(-25,688,c),
(-6,573,o),
(0,375,o),
(0,262,cs),
(0,75,o),
(77,-4,o),
(222,-7,cs)
);
}
);
width = 493;
},
{
associatedMasterId = m01;
attr = {
colorPalette = 1;
coordinates = (
7
);
};
layerId = "CC075CEE-95D5-4798-8613-5ADA6FE08F21";
metricRight = "=26";
name = "Color 1 {7} 8 Jan 24 at 22:50";
shapes = (
{
closed = 1;
nodes = (
(310,1,o),
(405,34,o),
(467,128,c),
(383,90,o),
(286,95,o),
(221,112,cs),
(113,142,o),
(88,235,o),
(82,344,cs),
(74,489,o),
(88,621,o),
(70,768,c),
(48,731,o),
(20,702,o),
(-14,683,c),
(4,566,o),
(10,373,o),
(10,262,cs),
(10,81,o),
(83,6,o),
(222,3,cs)
);
}
);
width = 493;
}
);
metricRight = "=0";
unicode = 1575;
}
{
category = Letter;
color = 9;
glyphname = "hah-ar";
kernRight = hah.init;
layers = (
{
anchors = (
{
name = bottom;
pos = (648,-50);
},
{
name = damma;
pos = (-46,54);
},
{
name = fatha;
pos = (674,177);
},
{
name = kasra;
pos = (826,-52);
},
{
name = top;
pos = (335,226);
}
);
backgroundImage = {
alpha = 80;
angle = -1.1;
imagePath = "images/MS-ADD-01116-000-00029.jpg";
locked = 1;
pos = (-2632,-2744);
scale = (5,5);
};
layerId = m01;
shapes = (
{
closed = 1;
nodes = (
(422,-99,o),
(578,-26,o),
(649,7,c),
(620,56,l),
(321,-18,l),
(320,0,l),
(885,0,l),
(901,25,o),
(936,67,o),
(973,108,c),
(870,109,o),
(519,85,o),
(371,292,c),
(347,256,o),
(304,208,o),
(275,187,c),
(320,135,o),
(377,91,o),
(437,63,c),
(422,99,l),
(302,66,o),
(257,220,o),
(160,220,cs),
(79,220,o),
(0,126,o),
(0,43,cs),
(0,-89,o),
(164,-98,o),
(209,-98,cs)
);
}
);
width = 973;
},
{
associatedMasterId = m01;
attr = {
colorPalette = 4;
};
backgroundImage = {
alpha = 80;
angle = -1.1;
imagePath = "images/MS-ADD-01116-000-00029.jpg";
locked = 1;
pos = (-2632,-2744);
scale = (5,5);
};
layerId = "04D8B64A-F205-4BC2-9C19-F92951C651E1";
name = "3 Jan 26 at 16:12";
shapes = (
{
closed = 1;
nodes = (
(422,-99,o),
(578,-26,o),
(649,7,c),
(620,56,l),
(321,-18,l),
(320,0,l),
(885,0,l),
(901,25,o),
(936,67,o),
(973,108,c),
(870,109,o),
(519,85,o),
(371,292,c),
(347,256,o),
(304,208,o),
(275,187,c),
(320,135,o),
(377,91,o),
(437,63,c),
(422,99,l),
(302,66,o),
(257,220,o),
(160,220,cs),
(79,220,o),
(0,126,o),
(0,43,cs),
(0,-89,o),
(164,-98,o),
(209,-98,cs)
);
}
);
width = 973;
},
{
associatedMasterId = m01;
attr = {
colorPalette = 1;
};
backgroundImage = {
alpha = 80;
angle = -1.1;
imagePath = "images/MS-ADD-01116-000-00029.jpg";
locked = 1;
pos = (-2632,-2744);
scale = (5,5);
};
layerId = "E8129BF6-D5D4-4C10-B405-C3DF65E0E7DB";
metricLeft = "=10";
metricRight = "=23";
name = "Color 4 3 Jan 26 at 16:13";
shapes = (
{
closed = 1;
nodes = (
(405,-88,o),
(546,-25,o),
(609,0,c),
(365,0,ls),
(249,0,o),
(152,12,o),
(133,94,c),
(143,96,l),
(160,21,o),
(251,10,o),
(365,10,cs),
(880,10,l),
(894,32,o),
(921,65,o),
(950,98,c),
(828,97,o),
(517,88,o),
(371,275,c),
(349,244,o),
(316,207,o),
(290,186,c),
(329,141,o),
(378,104,o),
(429,78,c),
(446,95,l),
(289,44,o),
(260,210,o),
(160,210,cs),
(84,210,o),
(10,122,o),
(10,44,cs),
(10,-78,o),
(164,-87,o),
(209,-87,cs)
);
}
);
width = 973;
},
{
anchors = (
{
name = bottom;
pos = (648,-50);
},
{
name = damma;
pos = (-66,54);
},
{
name = fatha;
pos = (774,197);
},
{
name = kasra;
pos = (926,-72);
},
{
name = top;
pos = (435,226);
}
);
associatedMasterId = m01;
attr = {
coordinates = (
20
);
};
backgroundImage = {
alpha = 80;
angle = -1.1;
imagePath = "images/MS-ADD-01116-000-00029.jpg";
locked = 1;
pos = (-2632,-2744);
scale = (5,5);
};
layerId = "77EACBFD-C46A-4FAD-AFFD-D263A1671200";
name = "{20} 3 Jan 26 at 16:21";
shapes = (
{
closed = 1;
nodes = (
(422,-99,o),
(578,-26,o),
(649,7,c),
(620,56,l),
(321,-18,l),
(320,0,l),
(985,0,l),
(1001,25,o),
(1036,67,o),
(1073,108,c),
(970,109,o),
(619,85,o),
(471,292,c),
(447,256,o),
(404,208,o),
(375,187,c),
(420,135,o),
(477,91,o),
(537,63,c),
(535,106,l),
(248,59,o),
(272,220,o),
(160,220,cs),
(79,220,o),
(0,126,o),
(0,43,cs),
(0,-89,o),
(164,-98,o),
(209,-98,cs)
);
}
);
width = 1073;
},
{
associatedMasterId = m01;
attr = {
colorPalette = 4;
coordinates = (
20
);
};
backgroundImage = {
alpha = 80;
angle = -1.1;
imagePath = "images/MS-ADD-01116-000-00029.jpg";
locked = 1;
pos = (-2632,-2744);
scale = (5,5);
};
layerId = "291C1E7A-4E8B-46C8-AC28-075FB7F66250";
name = "{20} 3 Jan 26 at 16:10";
shapes = (
{
closed = 1;
nodes = (
(422,-99,o),
(578,-26,o),
(649,7,c),
(620,56,l),
(321,-18,l),
(320,0,l),
(985,0,l),
(1001,25,o),
(1036,67,o),
(1073,108,c),
(970,109,o),
(619,85,o),
(471,292,c),
(447,256,o),
(404,208,o),
(375,187,c),
(420,135,o),
(477,91,o),
(537,63,c),
(535,106,l),
(248,59,o),
(272,220,o),
(160,220,cs),
(79,220,o),
(0,126,o),
(0,43,cs),
(0,-89,o),
(164,-98,o),
(209,-98,cs)
);
}
);
width = 1073;
},
{
associatedMasterId = m01;
attr = {
colorPalette = 1;
coordinates = (
20
);
};
backgroundImage = {
alpha = 80;
angle = -1.1;
imagePath = "images/MS-ADD-01116-000-00029.jpg";
locked = 1;
pos = (-2632,-2744);
scale = (5,5);
};
layerId = "57322CED-27D6-4D77-B03E-9250EC874A83";
metricLeft = "=10";
metricRight = "=23";
name = "Color 4 {20} 3 Jan 26 at 16:21";
shapes = (
{
closed = 1;
nodes = (
(405,-88,o),
(546,-25,o),
(609,0,c),
(365,0,ls),
(249,0,o),
(152,12,o),
(133,94,c),
(143,96,l),
(160,21,o),
(251,10,o),
(365,10,cs),
(980,10,l),
(994,32,o),
(1021,65,o),
(1050,98,c),
(928,97,o),
(617,88,o),
(471,275,c),
(449,244,o),
(416,207,o),
(390,186,c),
(429,141,o),
(478,104,o),
(529,78,c),
(559,102,l),
(253,42,o),
(257,210,o),
(160,210,cs),
(84,210,o),
(10,122,o),
(10,44,cs),
(10,-78,o),
(164,-87,o),
(209,-87,cs)
);
}
);
width = 1073;
},
{
anchors = (
{
name = bottom;
pos = (648,-50);
},
{
name = damma;
pos = (-66,54);
},
{
name = fatha;
pos = (774,197);
},
{
name = kasra;
pos = (926,-72);
},
{
name = top;
pos = (435,226);
}
);
associatedMasterId = m01;
attr = {
coordinates = (
100
);
};
backgroundImage = {
alpha = 80;
angle = -1.1;
imagePath = "images/MS-ADD-01116-000-00029.jpg";
locked = 1;
pos = (-2632,-2744);
scale = (5,5);
};
layerId = "EAD9AB4A-0B66-4003-AC8F-B355134EA796";
name = "17 May 23 at 17:10";
shapes = (
{
closed = 1;
nodes = (
(422,-99,o),
(578,-26,o),
(649,7,c),
(620,56,l),
(321,-18,l),
(320,0,l),
(985,0,l),
(1001,25,o),
(1036,67,o),
(1073,108,c),
(970,109,o),
(619,85,o),
(471,292,c),
(447,256,o),
(404,208,o),
(375,187,c),
(420,135,o),
(477,91,o),
(537,63,c),
(535,106,l),
(248,59,o),
(272,220,o),
(160,220,cs),
(79,220,o),
(0,126,o),
(0,43,cs),
(0,-89,o),
(164,-98,o),
(209,-98,cs)
);
}
);
width = 1073;
},
{
associatedMasterId = m01;
attr = {
colorPalette = 4;
coordinates = (
100
);
};
backgroundImage = {
alpha = 80;
angle = -1.1;
imagePath = "images/MS-ADD-01116-000-00029.jpg";
locked = 1;
pos = (-2632,-2744);
scale = (5,5);
};
layerId = "D6095C5C-84A7-4204-B205-9264B9BAF9CD";
name = "Color 4 {20} 3 Jan 26 at 16:26";
shapes = (
{
closed = 1;
nodes = (
(422,-99,o),
(578,-26,o),
(649,7,c),
(620,56,l),
(321,-18,l),
(320,0,l),
(985,0,l),
(1001,25,o),
(1036,67,o),
(1073,108,c),
(970,109,o),
(619,85,o),
(471,292,c),
(447,256,o),
(404,208,o),
(375,187,c),
(420,135,o),
(477,91,o),
(537,63,c),
(535,106,l),
(248,59,o),
(272,220,o),
(160,220,cs),
(79,220,o),
(0,126,o),
(0,43,cs),
(0,-89,o),
(164,-98,o),
(209,-98,cs)
);
}
);
width = 1073;
},
{
associatedMasterId = m01;
attr = {
colorPalette = 1;
coordinates = (
100
);
};
backgroundImage = {
alpha = 80;
angle = -1.1;
imagePath = "images/MS-ADD-01116-000-00029.jpg";
locked = 1;
pos = (-2632,-2744);
scale = (5,5);
};
layerId = "C2276B7D-B2B2-4500-936A-CE6B7C43230F";
metricLeft = "=10";
metricRight = "=23";
name = "Color 1 {20} 3 Jan 26 at 16:26";
shapes = (
{
closed = 1;
nodes = (
(405,-88,o),
(546,-25,o),
(609,0,c),
(365,0,ls),
(249,0,o),
(152,12,o),
(133,94,c),
(143,96,l),
(160,21,o),
(251,10,o),
(365,10,cs),
(980,10,l),
(994,32,o),
(1021,65,o),
(1050,98,c),
(928,97,o),
(617,88,o),
(471,275,c),
(449,244,o),
(416,207,o),
(390,186,c),
(429,141,o),
(478,104,o),
(529,78,c),
(559,102,l),
(253,42,o),
(257,210,o),
(160,210,cs),
(84,210,o),
(10,122,o),
(10,44,cs),
(10,-78,o),
(164,-87,o),
(209,-87,cs)
);
}
);
width = 1073;
}
);
metricLeft = "=0";
metricRight = "=0";
script = arabic;
sortName = arL0014;
sortNameKeep = arL0014;
unicode = 1581;
}
{
category = Letter;
color = 9;
glyphname = "dal-ar";
kernLeft = dal.fina;
kernRight = dal.isol;
layers = (
{
anchors = (
{
name = damma;
pos = (-40,61);
},
{
name = fatha;
pos = (275,355);
},
{
name = kasra;
pos = (472,-65);
},
{
name = top;
pos = (499,278);
}
);
backgroundImage = {
alpha = 80;
angle = -0.2;
imagePath = "images/MS-ADD-01116-000-00035.jpg";
locked = 1;
pos = (-4522,-2883);
scale = (5,5);
};
layerId = m01;
shapes = (
{
closed = 1;
nodes = (
(434,-10,o),
(580,-10,o),
(685,-10,cs),
(738,-10,o),
(880,-22,o),
(876,47,cs),
(874,112,o),
(850,163,o),
(834,199,cs),
(822,227,o),
(818,237,o),
(794,236,cs),
(616,231,o),
(361,222,o),
(222,237,c),
(228,253,o),
(248,297,o),
(262,329,cs),
(264,334,o),
(264,340,o),
(260,342,cs),
(256,344,o),
(251,341,o),
(248,336,cs),
(192,248,o),
(88,98,o),
(0,24,c),
(29,4,o),
(157,-10,o),
(303,-10,cs)
);
}
);
width = 876;
},
{
associatedMasterId = m01;
attr = {
colorPalette = 4;
};
backgroundImage = {
alpha = 80;
angle = -0.2;
imagePath = "images/MS-ADD-01116-000-00035.jpg";
locked = 1;
pos = (-4522,-2883);
scale = (5,5);
};
layerId = "AADB2CDE-0FF6-4E30-93DF-DD86DF073E59";
name = "8 Feb 24 at 20:40";
shapes = (
{
closed = 1;
nodes = (
(434,-10,o),
(580,-10,o),
(685,-10,cs),
(738,-10,o),
(880,-22,o),
(876,47,cs),
(874,112,o),
(850,163,o),
(834,199,cs),
(822,227,o),
(818,237,o),
(794,236,cs),
(616,231,o),
(361,222,o),
(222,237,c),
(228,253,o),
(248,297,o),
(262,329,cs),
(264,334,o),
(264,340,o),
(260,342,cs),
(256,344,o),
(251,341,o),
(248,336,cs),
(192,248,o),
(88,98,o),
(0,24,c),
(29,4,o),
(157,-10,o),
(303,-10,cs)
);
}
);
width = 876;
},
{
associatedMasterId = m01;
attr = {
colorPalette = 1;
};
backgroundImage = {
alpha = 80;
angle = -0.2;
imagePath = "images/MS-ADD-01116-000-00035.jpg";
locked = 1;
pos = (-4516,-2883);
scale = (5,5);
};
layerId = "66CF2BAF-6D34-4F5F-8165-B8DB58ED6644";
metricLeft = "=18";
metricRight = "=10";
name = "8 Feb 24 at 20:37";
shapes = (
{
closed = 1;
nodes = (
(434,0,o),
(580,0,o),
(685,0,cs),
(737,0,o),
(869,-9,o),
(866,47,cs),
(864,110,o),
(841,159,o),
(825,195,cs),
(813,223,o),
(811,227,o),
(794,226,cs),
(611,221,o),
(345,211,o),
(208,228,c),
(208,234,o),
(231,279,o),
(245,314,c),
(214,264,o),
(168,200,o),
(122,141,c),
(147,129,o),
(191,121,o),
(242,119,cs),
(393,112,o),
(619,114,o),
(730,117,c),
(733,107,l),
(623,104,o),
(395,102,o),
(241,109,cs),
(187,111,o),
(142,119,o),
(114,131,c),
(82,92,o),
(49,55,o),
(18,26,c),
(59,11,o),
(174,0,o),
(303,0,cs)
);
}
);
width = 876;
},
{
anchors = (
{
name = damma;
pos = (-34,61);
},
{
name = fatha;
pos = (281,355);
},
{
name = kasra;
pos = (3196,-65);
},
{
name = top;
pos = (3223,278);
}
);
associatedMasterId = m01;
attr = {
coordinates = (
100
);
};
layerId = "E9BEF15A-6ED0-4BC9-8CF3-5A4AF8DE10D9";
name = "{100} 8 Feb 24 at 20:52";
shapes = (
{
closed = 1;
nodes = (
(434,-10,o),
(5704,-10,o),
(5809,-10,cs),
(5862,-10,o),
(6004,-22,o),
(6000,47,cs),
(5998,112,o),
(5974,163,o),
(5958,199,cs),
(5946,227,o),
(5942,237,o),
(5918,236,cs),
(5740,231,o),
(361,222,o),
(222,237,c),
(228,253,o),
(248,297,o),
(262,329,cs),
(264,334,o),
(264,340,o),
(260,342,cs),
(256,344,o),
(251,341,o),
(248,336,cs),
(192,248,o),
(88,98,o),
(0,24,c),
(29,4,o),
(157,-10,o),
(303,-10,cs)
);
}
);
width = 6000;
},
{
associatedMasterId = m01;
attr = {
colorPalette = 4;
coordinates = (
100
);
};
layerId = "D95200F8-0964-41C5-A2FA-3F9F70FC6F52";
name = "Color 4 {100} 8 Feb 24 at 20:56";
shapes = (
{
closed = 1;
nodes = (
(434,-10,o),
(5704,-10,o),
(5809,-10,cs),
(5862,-10,o),
(6004,-22,o),
(6000,47,cs),
(5998,112,o),
(5974,163,o),
(5958,199,cs),
(5946,227,o),
(5942,237,o),
(5918,236,cs),
(5740,231,o),
(361,222,o),
(222,237,c),
(228,253,o),
(248,297,o),
(262,329,cs),
(264,334,o),
(264,340,o),
(260,342,cs),
(256,344,o),
(251,341,o),
(248,336,cs),
(192,248,o),
(88,98,o),
(0,24,c),
(29,4,o),
(157,-10,o),
(303,-10,cs)
);
}
);
width = 6000;
},
{
associatedMasterId = m01;
attr = {
colorPalette = 1;
coordinates = (
100
);
};
layerId = "89B80CA1-7BE0-432A-8131-C18B0F6D9A65";
metricLeft = "=18";
metricRight = "=10";
name = "Color 4 {100} 8 Feb 24 at 20:53";
shapes = (
{
closed = 1;
nodes = (
(434,0,o),
(5704,0,o),
(5809,0,cs),
(5861,0,o),
(5993,-9,o),
(5990,47,cs),
(5988,110,o),
(5965,159,o),
(5949,195,cs),
(5937,223,o),
(5935,227,o),
(5918,226,cs),
(5735,221,o),
(345,211,o),
(208,228,c),
(208,234,o),
(231,279,o),
(245,314,c),
(214,264,o),
(168,200,o),
(122,141,c),
(147,129,o),
(191,121,o),
(242,119,cs),
(393,112,o),
(5743,114,o),
(5854,117,c),
(5857,107,l),
(5747,104,o),
(395,102,o),
(241,109,cs),
(187,111,o),
(142,119,o),
(114,131,c),
(82,92,o),
(49,55,o),
(18,26,c),
(59,11,o),
(174,0,o),
(303,0,cs)
);
}
);
width = 6000;
},
{
anchors = (
{
name = damma;
pos = (-44,101);
},
{
name = fatha;
pos = (343,310);
},
{
name = kasra;
pos = (292,-92);
},
{
name = top;
pos = (327,278);
}
);
associatedMasterId = m01;
attr = {
coordinates = (
0
);
};
layerId = "599548EF-22EF-4A52-B576-85D342FDD74A";
name = "{0} 8 Feb 24 at 20:58";
shapes = (
{
closed = 1;
nodes = (
(208,-10,o),
(232,-10,o),
(257,-10,cs),
(283,-10,o),
(428,-18,o),
(422,64,cs),
(418,112,o),
(397,163,o),
(381,199,cs),
(369,227,o),
(365,236,o),
(341,236,cs),
(302,236,o),
(260,235,o),
(222,237,c),
(228,253,o),
(248,297,o),
(262,329,cs),
(264,334,o),
(264,340,o),
(260,342,cs),
(256,344,o),
(251,341,o),
(248,336,cs),
(192,248,o),
(88,98,o),
(0,24,c),
(29,4,o),
(77,-10,o),
(183,-10,cs)
);
}
);
width = 422;
},
{
associatedMasterId = m01;
attr = {
colorPalette = 4;
coordinates = (
0
);
};
layerId = "BF4B3A99-627E-409E-B9DB-AABD27F1C3D0";
name = "Color 4 {0} 8 Feb 24 at 23:19";
shapes = (
{
closed = 1;
nodes = (
(208,-10,o),
(232,-10,o),
(257,-10,cs),
(283,-10,o),
(428,-18,o),
(422,64,cs),
(418,112,o),
(397,163,o),
(381,199,cs),
(369,227,o),
(365,236,o),
(341,236,cs),
(302,236,o),
(260,235,o),
(222,237,c),
(228,253,o),
(248,297,o),
(262,329,cs),
(264,334,o),
(264,340,o),
(260,342,cs),
(256,344,o),
(251,341,o),
(248,336,cs),
(192,248,o),
(88,98,o),
(0,24,c),
(29,4,o),
(77,-10,o),
(183,-10,cs)
);
}
);
width = 422;
},
{
associatedMasterId = m01;
attr = {
colorPalette = 1;
coordinates = (
0
);
};
layerId = "7108DE31-2BE7-4255-B5DD-91F776311A30";
metricLeft = "=17";
metricRight = "=10";
name = "{0} 8 Feb 24 at 20:56";
shapes = (
{
closed = 1;
nodes = (
(208,0,o),
(232,0,o),
(257,0,cs),
(283,0,o),
(417,-7,o),
(412,63,cs),
(408,110,o),
(388,159,o),
(372,195,cs),
(360,223,o),
(358,226,o),
(341,226,cs),
(297,226,o),
(250,225,o),
(208,228,c),
(209,234,o),
(226,272,o),
(242,308,c),
(210,259,o),
(168,198,o),
(123,141,c),
(148,129,o),
(191,121,o),
(242,119,cs),
(253,119,o),
(265,118,o),
(277,118,c),
(280,108,l),
(267,108,o),
(254,108,o),
(241,109,cs),
(188,111,o),
(143,119,o),
(115,131,c),
(83,91,o),
(50,54,o),
(17,25,c),
(45,10,o),
(92,0,o),
(183,0,cs)
);
}
);
width = 422;
}
);
metricLeft = "=0";
metricRight = "=kaf-ar";
script = arabic;
sortName = arL0018;
sortNameKeep = arL0018;
unicode = 1583;
}
{
category = Letter;
glyphname = "reh-ar";
layers = (
{
anchors = (
{
name = damma;
pos = (-26,40);
},
{
name = fatha;
pos = (297,336);
},
{
name = kasra;
pos = (336,-87);
},
{
name = top;
pos = (209,200);
}
);
attr = {
colorPalette = 4;
};
backgroundImage = {
alpha = 80;
imagePath = "images/MS-ADD-01116-000-00058.jpg";
locked = 1;
pos = (-2369,-2694);
scale = (5,5);
};
layerId = m01;
shapes = (
{
closed = 1;
nodes = (
(293,-48,o),
(354,-44,o),
(398,-31,cs),
(450,-17,o),
(454,18,o),
(453,54,cs),
(450,150,o),
(371,238,o),
(306,282,cs),
(289,294,o),
(286,286,o),
(278,278,cs),
(251,251,o),
(168,159,o),
(143,129,cs),
(128,112,o),
(129,98,o),
(137,87,c),
(124,91,o),
(111,96,o),
(99,102,c),
(78,71,o),
(41,15,o),
(0,-2,c),
(31,-25,o),
(134,-43,o),
(231,-46,cs)
);
}
);
width = 453;
},
{
associatedMasterId = m01;
attr = {
colorPalette = 1;
};
backgroundImage = {
alpha = 80;
imagePath = "images/MS-ADD-01116-000-00058.jpg";
locked = 1;
pos = (-2372,-2694);
scale = (5,5);
};
layerId = "8F526A95-CEA8-4429-AF9D-C0C248AE2B6C";
metricLeft = "=21";
metricRight = "=10";
name = "19 Jan 24 at 00:21";
shapes = (
{
closed = 1;
nodes = (
(293,-38,o),
(352,-34,o),
(395,-21,cs),
(440,-9,o),
(444,19,o),
(443,54,cs),
(440,146,o),
(364,231,o),
(300,274,cs),
(293,279,o),
(293,279,o),
(285,271,cs),
(258,244,o),
(173,148,o),
(151,122,cs),
(133,101,o),
(144,83,o),
(177,76,cs),
(216,68,o),
(276,61,o),
(322,67,c),
(323,57,l),
(276,50,o),
(168,59,o),
(102,89,c),
(84,62,o),
(54,20,o),
(21,-2,c),
(61,-20,o),
(148,-33,o),
(231,-36,cs)
);
}
);
visible = 1;
width = 453;
}
);
metricLeft = "=0";
metricRight = "=0";
script = arabic;
sortName = arL0020;
unicode = 1585;
}
{
glyphname = "seen-ar";
kernLeft = seen.isol;
kernRight = beh.init;
layers = (
{
anchors = (
{
name = damma;
pos = (115,-132);
},
{
name = fatha;
pos = (309,314);
},
{
name = hamza;
pos = (-81,-21);
},
{
name = kasra;
pos = (333,-239);
},
{
name = top;
pos = (294,210);
}
);
attr = {
colorPalette = 4;
};
backgroundImage = {
alpha = 80;
imagePath = "images/MS-ADD-01116-000-00049.jpg";
locked = 1;
pos = (-5793,-2854);
scale = (5,5);
};
layerId = m01;
shapes = (
{
closed = 1;
nodes = (
(297,-340,o),
(294,-87,o),
(294,45,c),
(237,0,l),
(384,0,ls),
(492,0,o),
(496,53,o),
(495,92,cs),
(493,173,o),
(489,254,o),
(484,335,cs),
(483,349,o),
(476,352,o),
(468,340,cs),
(442,299,o),
(412,249,o),
(368,214,c),
(369,181,o),
(375,156,o),
(386,132,c),
(412,122,l),
(370,147,o),
(359,221,o),
(348,266,cs),
(345,278,o),
(337,281,o),
(331,269,cs),
(309,229,o),
(290,205,o),
(244,175,c),
(255,139,o),
(265,104,o),
(266,77,c),
(285,80,l),
(272,135,o),
(222,196,o),
(122,212,c),
(106,151,o),
(78,116,o),
(-9,82,c),
(106,57,o),
(188,44,o),
(198,-87,cs),
(202,-145,o),
(202,-226,o),
(203,-323,c),
(137,-324,o),
(100,-309,o),
(61,-286,c),
(36,-331,o),
(4,-365,o),
(-44,-385,c),
(39,-428,o),
(200,-427,o),
(295,-426,c)
);
}
);
width = 496;
},
{
associatedMasterId = m01;
attr = {
colorPalette = 1;
};
backgroundImage = {
alpha = 80;
imagePath = "images/MS-ADD-01116-000-00049.jpg";
locked = 1;
pos = (-5793,-2854);
scale = (5,5);
};
layerId = "1A6F6FF3-711F-4CA5-B901-D92D974A2F2C";
name = "Regular 22 Aug 24 at 12:41";
shapes = (
{
closed = 1;
nodes = (
(287,-307,o),
(284,-54,o),
(283,55,c),
(226,10,l),
(384,10,ls),
(482,10,o),
(487,53,o),
(485,92,cs),
(475,327,l),
(445,276,o),
(421,244,o),
(379,207,c),
(380,186,o),
(382,165,o),
(384,152,c),
(392,138,o),
(400,130,o),
(408,122,c),
(453,175,l),
(383,112,l),
(398,115,l),
(365,144,o),
(349,208,o),
(338,257,c),
(318,221,o),
(293,195,o),
(256,171,c),
(261,152,o),
(265,136,o),
(268,122,c),
(278,105,o),
(282,87,o),
(285,69,c),
(306,98,l),
(273,87,l),
(263,128,o),
(219,183,o),
(129,201,c),
(114,149,o),
(88,115,o),
(24,85,c),
(123,63,o),
(198,40,o),
(208,-86,cs),
(212,-147,o),
(212,-231,o),
(213,-333,c),
(144,-335,o),
(103,-321,o),
(65,-300,c),
(43,-336,o),
(16,-365,o),
(-20,-385,c),
(61,-417,o),
(197,-417,o),
(285,-416,c)
);
}
);
width = 496;
}
);
metricLeft = "=noonghunna-ar";
unicode = 1587;
}
{
color = 9;
glyphname = "sad-ar";
kernLeft = sad.isol;
kernRight = dal.isol;
layers = (
{
anchors = (
{
name = damma;
pos = (18,60);
},
{
name = fatha;
pos = (576,295);
},
{
name = kasra;
pos = (496,-54);
},
{
name = top;
pos = (477,285);
}
);
backgroundImage = {
alpha = 80;
imagePath = "images/MS-ADD-01116-000-00062.jpg";
locked = 1;
pos = (-1621,-1863);
scale = (5,5);
};
layerId = m01;
shapes = (
{
closed = 1;
nodes = (
(202,-329,o),
(227,-325,o),
(237,-297,cs),
(243,-279,o),
(250,-247,o),
(249,-199,cs),
(248,-149,o),
(254,-7,o),
(246,102,cs),
(238,214,o),
(198,301,o),
(115,324,cs),
(102,327,o),
(96,329,o),
(95,318,cs),
(89,264,o),
(58,227,o),
(19,220,cs),
(-6,216,o),
(-5,203,o),
(11,195,cs),
(82,159,o),
(146,131,o),
(154,28,cs),
(159,-38,o),
(158,-145,o),
(151,-248,c),
(213,-195,l),
(125,-215,o),
(62,-207,o),
(42,-191,cs),
(38,-188,o),
(31,-186,o),
(28,-192,cs),
(5,-234,o),
(-28,-264,o),
(-52,-274,cs),
(-67,-280,o),
(-63,-292,o),
(-52,-300,cs),
(-9,-333,o),
(107,-341,o),
(182,-332,cs)
);
},
{
closed = 1;
nodes = (
(540,98,o),
(361,108,o),
(268,111,cs),
(250,112,o),
(246,120,o),
(244,128,c),
(414,123,o),
(568,116,o),
(723,130,cs),
(733,131,o),
(736,128,o),
(737,125,cs),
(740,117,o),
(738,112,o),
(709,110,cs)
);
},
{
closed = 1;
nodes = (
(371,-4,o),
(607,-10,o),
(831,7,cs),
(855,9,o),
(884,30,o),
(883,57,cs),
(881,122,o),
(857,173,o),
(841,209,cs),
(829,237,o),
(825,247,o),
(801,246,cs),
(623,241,o),
(404,228,o),
(177,258,c),
(193,0,l)
);
}
);
width = 883;
},
{
anchors = (
{
name = damma;
pos = (18,60);
},
{
name = fatha;
pos = (3106,295);
},
{
name = kasra;
pos = (3026,-54);
},
{
name = top;
pos = (3007,285);
}
);
associatedMasterId = m01;
attr = {
coordinates = (
100
);
};
backgroundImage = {
alpha = 80;
imagePath = "images/MS-ADD-01116-000-00062.jpg";
locked = 1;
pos = (-1621,-1863);
scale = (5,5);
};
layerId = "D9048569-A18A-4C58-AB25-71BFF6897491";
name = "16 May 23 at 18:03";
shapes = (
{
closed = 1;
nodes = (
(202,-329,o),
(227,-325,o),
(237,-297,cs),
(243,-279,o),
(250,-247,o),
(249,-199,cs),
(248,-149,o),
(254,-7,o),
(246,102,cs),
(238,214,o),
(198,301,o),
(115,324,cs),
(102,327,o),
(96,329,o),
(95,318,cs),
(89,264,o),
(58,227,o),
(19,220,cs),
(-6,216,o),
(-5,203,o),
(11,195,cs),
(82,159,o),
(146,131,o),
(154,28,cs),
(159,-38,o),
(158,-145,o),
(151,-248,c),
(213,-195,l),
(125,-215,o),
(62,-207,o),
(42,-191,cs),
(38,-188,o),
(31,-186,o),
(28,-192,cs),
(5,-234,o),
(-28,-264,o),
(-52,-274,cs),
(-67,-280,o),
(-63,-292,o),
(-52,-300,cs),
(-9,-333,o),
(107,-341,o),
(182,-332,cs)
);
},
{
closed = 1;
nodes = (
(5657,98,o),
(361,108,o),
(268,111,cs),
(250,112,o),
(246,120,o),
(244,128,c),
(414,123,o),
(5685,116,o),
(5840,130,cs),
(5850,131,o),
(5853,128,o),
(5854,125,cs),
(5857,117,o),
(5855,112,o),
(5826,110,cs)
);
},
{
closed = 1;
nodes = (
(371,-4,o),
(5724,-21,o),
(5948,7,cs),
(5972,10,o),
(6001,30,o),
(6000,57,cs),
(5998,122,o),
(5974,173,o),
(5958,209,cs),
(5946,237,o),
(5942,247,o),
(5918,246,cs),
(5740,241,o),
(404,228,o),
(177,258,c),
(193,0,l)
);
}
);
visible = 1;
width = 6000;
},
{
anchors = (
{
name = damma;
pos = (18,60);
},
{
name = fatha;
pos = (391,315);
},
{
name = kasra;
pos = (387,-74);
},
{
name = top;
pos = (342,285);
}
);
associatedMasterId = m01;
attr = {
coordinates = (
0
);
};
backgroundImage = {
alpha = 80;
imagePath = "images/MS-ADD-01116-000-00062.jpg";
locked = 1;
pos = (-1621,-1863);
scale = (5,5);
};
layerId = "4E62DE92-64B8-45E9-A54F-1C2C9CF328B8";
name = "17 May 23 at 13:04";
shapes = (
{
closed = 1;
nodes = (
(202,-329,o),
(227,-325,o),
(237,-297,cs),
(243,-279,o),
(250,-247,o),
(249,-199,cs),
(248,-149,o),
(254,-7,o),
(246,102,cs),
(238,214,o),
(198,301,o),
(115,324,cs),
(102,327,o),
(96,329,o),
(95,318,cs),
(89,264,o),
(58,227,o),
(19,220,cs),
(-6,216,o),
(-5,203,o),
(11,195,cs),
(82,159,o),
(146,131,o),
(154,28,cs),
(159,-38,o),
(158,-145,o),
(151,-248,c),
(213,-195,l),
(125,-215,o),
(62,-207,o),
(42,-191,cs),
(38,-188,o),
(31,-186,o),
(28,-192,cs),
(5,-234,o),
(-28,-264,o),
(-52,-274,cs),
(-67,-280,o),
(-63,-292,o),
(-52,-300,cs),
(-9,-333,o),
(107,-341,o),
(182,-332,cs)
);
},
{
closed = 1;
nodes = (
(332,107,o),
(296,107,o),
(283,110,cs),
(265,111,o),
(261,120,o),
(259,128,c),
(306,127,o),
(330,127,o),
(368,129,cs),
(378,130,o),
(381,128,o),
(382,125,cs),
(385,117,o),
(383,112,o),
(354,109,cs)
);
},
{
closed = 1;
nodes = (
(326,-4,o),
(409,-4,o),
(476,1,cs),
(500,3,o),
(529,30,o),
(528,57,cs),
(526,122,o),
(502,173,o),
(486,209,cs),
(474,237,o),
(470,247,o),
(446,246,cs),
(358,241,o),
(257,238,o),
(192,258,c),
(208,0,l)
);
}
);
width = 528;
}
);
metricLeft = "=0@208";
metricRight = "=0";
unicode = 1589;
}
{
category = Letter;
color = 9;
glyphname = "tah-ar";
kernLeft = sad;
kernRight = dal.isol;
layers = (
{
anchors = (
{
name = damma;
pos = (49,171);
},
{
name = exit;
pos = (54,0);
},
{
name = fatha;
pos = (-6,625);
},
{
name = kasra;
pos = (643,-55);
},
{
name = top;
pos = (443,285);
}
);
backgroundImage = {
alpha = 80;
angle = -0.9;
imagePath = "images/MS-ADD-01116-000-00025.jpg";
locked = 1;
pos = (-5277,-3575);
scale = (5,5);
};
layerId = m01;
shapes = (
{
closed = 1;
nodes = (
(760,0,ls),
(784,0,o),
(813,23,o),
(812,50,cs),
(810,115,o),
(786,173,o),
(770,209,cs),
(758,237,o),
(754,247,o),
(730,246,cs),
(542,241,o),
(309,233,o),
(144,253,c),
(144,0,l)
);
},
{
closed = 1;
nodes = (
(154,783,ls),
(154,797,o),
(147,799,o),
(139,787,cs),
(115,745,o),
(73,706,o),
(44,700,c),
(44,130,ls),
(44,60,o),
(24,44,o),
(0,23,c),
(28,2,o),
(88,0,o),
(154,0,c)
);
}
);
width = 812;
},
{
associatedMasterId = m01;
attr = {
colorPalette = 4;
};
backgroundImage = {
alpha = 80;
angle = -0.9;
imagePath = "images/MS-ADD-01116-000-00025.jpg";
locked = 1;
pos = (-5277,-3575);
scale = (5,5);
};
layerId = "CD3024C0-47BE-471A-945C-372F91542258";
name = "5 Jan 26 at 00:40";
shapes = (
{
closed = 1;
nodes = (
(760,0,ls),
(784,0,o),
(813,23,o),
(812,50,cs),
(810,115,o),
(786,173,o),
(770,209,cs),
(758,237,o),
(754,247,o),
(730,246,cs),
(542,241,o),
(309,233,o),
(144,253,c),
(144,0,l)
);
},
{
closed = 1;
nodes = (
(154,783,ls),
(154,797,o),
(147,799,o),
(139,787,cs),
(115,745,o),
(73,706,o),
(44,700,c),
(44,130,ls),
(44,60,o),
(24,44,o),
(0,23,c),
(28,2,o),
(88,0,o),
(154,0,c)
);
}
);
width = 812;
},
{
associatedMasterId = m01;
attr = {
colorPalette = 1;
};
backgroundImage = {
alpha = 80;
angle = -0.9;
imagePath = "images/MS-ADD-01116-000-00025.jpg";
locked = 1;
pos = (-5304,-3575);
scale = (5,5);
};
layerId = "D4CF91AB-514F-41D8-B4F9-8C87D2C83886";
metricLeft = "=17";
metricRight = "=9";
name = "5 Jan 26 at 00:40";
shapes = (
{
closed = 1;
nodes = (
(760,10,ls),
(780,10,o),
(804,29,o),
(803,50,cs),
(801,113,o),
(778,169,o),
(762,205,cs),
(750,233,o),
(748,237,o),
(731,236,cs),
(557,231,o),
(341,218,o),
(118,247,c),
(118,10,l)
);
},
{
closed = 1;
nodes = (
(448,111,o),
(276,115,o),
(145,119,c),
(145,129,l),
(275,125,o),
(446,121,o),
(667,127,c),
(670,117,l)
);
},
{
closed = 1;
nodes = (
(154,100,l),
(144,100,l),
(144,774,l),
(120,737,o),
(83,702,o),
(54,691,c),
(54,130,ls),
(54,66,o),
(37,43,o),
(17,24,c),
(45,11,o),
(97,10,o),
(154,10,c)
);
}
);
width = 812;
},
{
anchors = (
{
name = damma;
pos = (49,171);
},
{
name = exit;
pos = (54,0);
},
{
name = fatha;
pos = (-6,625);
},
{
name = kasra;
pos = (338,-75);
},
{
name = top;
pos = (308,285);
}
);
associatedMasterId = m01;
attr = {
coordinates = (
0
);
};
layerId = "F2C9C75B-3FD9-49BB-B103-6D41876BB2DF";
name = "{0} 5 Jan 26 at 00:43";
shapes = (
{
closed = 1;
nodes = (
(377,0,ls),
(401,0,o),
(430,23,o),
(429,50,cs),
(427,115,o),
(403,173,o),
(387,209,cs),
(375,237,o),
(371,248,o),
(347,246,cs),
(276,242,o),
(208,241,o),
(144,253,c),
(144,0,l)
);
},
{
closed = 1;
nodes = (
(154,783,ls),
(154,797,o),
(147,799,o),
(139,787,cs),
(115,745,o),
(73,706,o),
(44,700,c),
(44,130,ls),
(44,60,o),
(24,44,o),
(0,23,c),
(28,2,o),
(88,0,o),
(154,0,c)
);
}
);
width = 429;
},
{
associatedMasterId = m01;
attr = {
colorPalette = 4;
coordinates = (
0
);
};
layerId = "6676DD99-9A0C-449A-88DA-1F58D3F5ED1A";
name = "17 May 23 at 16:11";
shapes = (
{
closed = 1;
nodes = (
(377,0,ls),
(401,0,o),
(430,23,o),
(429,50,cs),
(427,115,o),
(403,173,o),
(387,209,cs),
(375,237,o),
(371,248,o),
(347,246,cs),
(276,242,o),
(208,241,o),
(144,253,c),
(144,0,l)
);
},
{
closed = 1;
nodes = (
(154,783,ls),
(154,797,o),
(147,799,o),
(139,787,cs),
(115,745,o),
(73,706,o),
(44,700,c),
(44,130,ls),
(44,60,o),
(24,44,o),
(0,23,c),
(28,2,o),
(88,0,o),
(154,0,c)
);
}
);
width = 429;
},
{
associatedMasterId = m01;
attr = {
colorPalette = 1;
coordinates = (
0
);
};
layerId = "9E1EA6BB-4435-4F28-A893-01A56919C7B1";
metricLeft = "=17";
metricRight = "=9";
name = "5 Jan 26 at 00:43";
shapes = (
{
closed = 1;
nodes = (
(377,10,ls),
(397,10,o),
(421,29,o),
(420,50,cs),
(418,113,o),
(395,169,o),
(379,205,cs),
(367,233,o),
(365,237,o),
(348,236,cs),
(265,230,o),
(189,233,o),
(118,247,c),
(118,10,l)
);
},
{
closed = 1;
nodes = (
(238,116,o),
(191,116,o),
(145,119,c),
(146,129,l),
(191,126,o),
(236,126,o),
(284,127,c),
(287,117,l)
);
},
{
closed = 1;
nodes = (
(154,100,l),
(144,100,l),
(144,774,l),
(120,737,o),
(83,702,o),
(54,691,c),
(54,130,ls),
(54,66,o),
(37,43,o),
(17,24,c),
(45,11,o),
(97,10,o),
(154,10,c)
);
}
);
width = 429;
},
{
anchors = (
{
name = damma;
pos = (49,171);
},
{
name = exit;
pos = (54,0);
},
{
name = fatha;
pos = (-6,625);
},
{
name = kasra;
pos = (3243,-55);
},
{
name = top;
pos = (3043,285);
}
);
associatedMasterId = m01;
attr = {
coordinates = (
100
);
};
layerId = "8FA83589-1710-45EF-A8BE-3891CD87481E";
name = "{100} 5 Jan 26 at 00:42";
shapes = (
{
closed = 1;
nodes = (
(6002,0,ls),
(6026,0,o),
(6055,23,o),
(6054,50,cs),
(6052,115,o),
(6028,173,o),
(6012,209,cs),
(6000,237,o),
(5996,247,o),
(5972,246,cs),
(5784,241,o),
(309,233,o),
(144,253,c),
(144,0,l)
);
},
{
closed = 1;
nodes = (
(154,783,ls),
(154,797,o),
(147,799,o),
(139,787,cs),
(115,745,o),
(73,706,o),
(44,700,c),
(44,130,ls),
(44,60,o),
(24,44,o),
(0,23,c),
(28,2,o),
(88,0,o),
(154,0,c)
);
}
);
width = 6054;
},
{
associatedMasterId = m01;
attr = {
colorPalette = 4;
coordinates = (
100
);
};
layerId = "342120A2-69CB-4D5B-B997-48E2238AD02F";
name = "{0, 100} 17 May 23 at 01:25";
shapes = (
{
closed = 1;
nodes = (
(6002,0,ls),
(6026,0,o),
(6055,23,o),
(6054,50,cs),
(6052,115,o),
(6028,173,o),
(6012,209,cs),
(6000,237,o),
(5996,247,o),
(5972,246,cs),
(5784,241,o),
(309,233,o),
(144,253,c),
(144,0,l)
);
},
{
closed = 1;
nodes = (
(154,783,ls),
(154,797,o),
(147,799,o),
(139,787,cs),
(115,745,o),
(73,706,o),
(44,700,c),
(44,130,ls),
(44,60,o),
(24,44,o),
(0,23,c),
(28,2,o),
(88,0,o),
(154,0,c)
);
}
);
width = 6054;
},
{
associatedMasterId = m01;
attr = {
colorPalette = 1;
coordinates = (
100
);
};
layerId = "3B081F3B-11EB-4E8A-8CF8-C77ABD792A96";
metricLeft = "=17";
metricRight = "=9";
name = "Color 4 {100} 5 Jan 26 at 00:42";
shapes = (
{
closed = 1;
nodes = (
(6002,10,ls),
(6022,10,o),
(6046,29,o),
(6045,50,cs),
(6043,113,o),
(6020,169,o),
(6004,205,cs),
(5992,233,o),
(5990,237,o),
(5973,236,cs),
(5799,231,o),
(341,218,o),
(118,247,c),
(118,10,l)
);
},
{
closed = 1;
nodes = (
(5698,111,o),
(271,115,o),
(144,119,c),
(144,129,l),
(271,125,o),
(5656,121,o),
(5909,127,c),
(5912,117,l)
);
},
{
closed = 1;
nodes = (
(154,100,l),
(144,100,l),
(144,774,l),
(120,737,o),
(83,702,o),
(54,691,c),
(54,130,ls),
(54,66,o),
(37,43,o),
(17,24,c),
(45,11,o),
(97,10,o),
(154,10,c)
);
}
);
width = 6054;
},
{
associatedMasterId = m01;
backgroundImage = {
alpha = 80;
angle = -0.9;
imagePath = "images/MS-ADD-01116-000-00025.jpg";
locked = 1;
pos = (-5331,-3575);
scale = (5,5);
};
layerId = "509793AA-F1B0-4FB8-B90C-C30E2CB71545";
name = "5 Jan 26 at 01:52";
shapes = (
{
closed = 1;
nodes = (
(350,-15,o),
(528,-16,o),
(702,-3,cs),
(726,-1,o),
(755,20,o),
(754,47,cs),
(752,112,o),
(728,163,o),
(712,199,cs),
(700,227,o),
(696,237,o),
(672,236,cs),
(494,231,o),
(281,228,o),
(118,240,cs),
(98,242,o),
(99,244,o),
(100,263,cs),
(104,335,o),
(112,616,o),
(107,684,cs),
(104,721,o),
(102,753,o),
(95,790,cs),
(93,800,o),
(83,801,o),
(80,792,cs),
(67,752,o),
(29,729,o),
(5,712,cs),
(-9,702,o),
(-6,689,o),
(-5,667,cs),
(9,460,o),
(2,299,o),
(-10,85,cs),
(-12,49,o),
(-32,37,o),
(-46,31,cs),
(-58,27,o),
(-47,18,o),
(-39,12,cs),
(-13,-6,o),
(94,-11,o),
(151,-12,cs)
);
},
{
closed = 1;
nodes = (
(386,87,o),
(185,92,o),
(103,104,cs),
(89,106,o),
(83,109,o),
(83,115,cs),
(84,130,o),
(85,144,o),
(86,159,c),
(65,129,l),
(187,106,o),
(424,105,o),
(594,120,cs),
(604,121,o),
(607,118,o),
(608,115,cs),
(611,107,o),
(609,102,o),
(580,100,cs)
);
}
);
width = 758;
}
);
metricLeft = "=0";
metricRight = "=sad-ar";
script = arabic;
sortName = arL0031;
sortNameKeep = arL0034;
unicode = 1591;
}
{
color = 9;
glyphname = "ain-ar";
kernRight = hah.init;
layers = (
{
anchors = (
{
name = damma;
pos = (-56,54);
},
{
name = fatha;
pos = (474,393);
},
{
name = kasra;
pos = (826,-52);
},
{
name = top;
pos = (382,294);
}
);
layerId = m01;
shapes = (
{
closed = 1;
nodes = (
(440,-99,o),
(600,-11,o),
(637,-2,c),
(604,52,l),
(365,-7,l),
(401,-7,o),
(711,-2,o),
(873,-2,cs),
(887,-2,o),
(953,61,o),
(995,99,c),
(835,91,o),
(759,82,o),
(612,119,cs),
(476,152,o),
(387,220,o),
(415,267,c),
(435,297,o),
(456,328,o),
(476,358,c),
(463,367,l),
(317,224,l),
(272,176,o),
(332,80,o),
(404,65,c),
(422,99,l),
(302,66,o),
(257,220,o),
(160,220,cs),
(79,220,o),
(0,126,o),
(0,43,cs),
(0,-89,o),
(164,-98,o),
(209,-98,cs)
);
}
);
width = 995;
},
{
associatedMasterId = m01;
attr = {
colorPalette = 4;
};
layerId = "EB046D29-90F0-424A-8B03-50193E5DB6E7";
name = "Regular 11 Jan 24 at 18:24";
shapes = (
{
closed = 1;
nodes = (
(440,-99,o),
(600,-11,o),
(637,-2,c),
(604,52,l),
(365,-7,l),
(401,-7,o),
(711,-2,o),
(873,-2,cs),
(887,-2,o),
(953,61,o),
(995,99,c),
(835,91,o),
(759,82,o),
(612,119,cs),
(476,152,o),
(387,220,o),
(415,267,c),
(435,297,o),
(456,328,o),
(476,358,c),
(463,367,l),
(317,224,l),
(272,176,o),
(332,80,o),
(404,65,c),
(422,99,l),
(302,66,o),
(257,220,o),
(160,220,cs),
(79,220,o),
(0,126,o),
(0,43,cs),
(0,-89,o),
(164,-98,o),
(209,-98,cs)
);
}
);
width = 995;
},
{
associatedMasterId = m01;
attr = {
colorPalette = 1;
};
layerId = "E1CBA637-DA2F-4F30-AC4F-3C09E10BAE7D";
name = "11 Jan 24 at 18:15";
shapes = (
{
closed = 1;
nodes = (
(396,-88,o),
(534,-31,o),
(600,-4,c),
(486,-5,o),
(385,-7,o),
(365,-7,cs),
(249,-7,o),
(152,12,o),
(133,94,c),
(143,96,l),
(160,21,o),
(251,3,o),
(365,3,cs),
(401,3,o),
(711,8,o),
(873,8,cs),
(879,8,o),
(927,51,o),
(967,88,c),
(826,80,o),
(749,74,o),
(610,109,cs),
(469,143,o),
(373,216,o),
(407,272,cs),
(423,297,o),
(440,322,o),
(456,346,c),
(324,217,ls),
(287,178,o),
(336,95,o),
(399,77,c),
(404,86,l),
(283,74,o),
(250,210,o),
(160,210,cs),
(84,210,o),
(10,122,o),
(10,44,cs),
(10,-78,o),
(164,-87,o),
(209,-87,cs)
);
}
);
width = 995;
},
{
anchors = (
{
name = damma;
pos = (-66,54);
},
{
name = fatha;
pos = (554,423);
},
{
name = kasra;
pos = (926,-72);
},
{
name = top;
pos = (482,294);
}
);
associatedMasterId = m01;
attr = {
coordinates = (
20
);
};
layerId = "D221CF3E-394A-478F-A27D-DE9EDAF119A4";
name = "{20} 11 Jan 24 at 18:28";
shapes = (
{
closed = 1;
nodes = (
(440,-99,o),
(600,-11,o),
(637,-2,c),
(604,52,l),
(365,-7,l),
(501,-7,o),
(811,-2,o),
(973,-2,c),
(987,-2,o),
(1053,61,o),
(1095,99,c),
(935,91,o),
(859,82,o),
(712,119,cs),
(576,152,o),
(487,220,o),
(515,267,c),
(535,297,o),
(556,328,o),
(576,358,c),
(563,367,l),
(417,224,l),
(372,176,o),
(432,80,o),
(504,65,c),
(472,99,l),
(251,84,o),
(263,220,o),
(160,220,cs),
(79,220,o),
(0,126,o),
(0,43,cs),
(0,-89,o),
(164,-98,o),
(209,-98,cs)
);
}
);
width = 1095;
},
{
associatedMasterId = m01;
attr = {
colorPalette = 4;
coordinates = (
20
);
};
layerId = "2B226D7F-B860-4C62-8864-65EFAA30C194";
name = "Color 4 {20} 11 Jan 24 at 18:35";
shapes = (
{
closed = 1;
nodes = (
(440,-99,o),
(600,-11,o),
(637,-2,c),
(604,52,l),
(365,-7,l),
(501,-7,o),
(811,-2,o),
(973,-2,c),
(987,-2,o),
(1053,61,o),
(1095,99,c),
(935,91,o),
(859,82,o),
(712,119,cs),
(576,152,o),
(487,220,o),
(515,267,c),
(535,297,o),
(556,328,o),
(576,358,c),
(563,367,l),
(417,224,l),
(372,176,o),
(432,80,o),
(504,65,c),
(472,99,l),
(251,84,o),
(263,220,o),
(160,220,cs),
(79,220,o),
(0,126,o),
(0,43,cs),
(0,-89,o),
(164,-98,o),
(209,-98,cs)
);
}
);
width = 1095;
},
{
associatedMasterId = m01;
attr = {
colorPalette = 1;
coordinates = (
20
);
};
layerId = "05101C6F-9F6F-4DE7-989E-74B1C20B4294";
name = "Color 1 {20} 11 Jan 24 at 18:36";
shapes = (
{
closed = 1;
nodes = (
(396,-88,o),
(534,-31,o),
(600,-4,c),
(486,-5,o),
(385,-7,o),
(365,-7,cs),
(249,-7,o),
(152,12,o),
(133,94,c),
(143,96,l),
(160,21,o),
(251,3,o),
(365,3,cs),
(501,3,o),
(811,8,o),
(973,8,cs),
(979,8,o),
(1027,51,o),
(1067,88,c),
(926,80,o),
(849,74,o),
(710,109,cs),
(569,143,o),
(473,216,o),
(507,272,cs),
(523,297,o),
(540,322,o),
(556,346,c),
(424,217,ls),
(394,187,o),
(416,124,o),
(481,81,c),
(495,92,l),
(253,66,o),
(250,210,o),
(160,210,cs),
(84,210,o),
(10,122,o),
(10,44,cs),
(10,-78,o),
(164,-87,o),
(209,-87,cs)
);
}
);
width = 1095;
},
{
anchors = (
{
name = damma;
pos = (-66,54);
},
{
name = fatha;
pos = (554,423);
},
{
name = kasra;
pos = (926,-72);
},
{
name = top;
pos = (482,294);
}
);
associatedMasterId = m01;
attr = {
coordinates = (
100
);
};
layerId = "0F9F2B89-AD32-45B3-983D-5C17A2778527";
name = "{0, 100} 17 May 23 at 16:46";
shapes = (
{
closed = 1;
nodes = (
(440,-99,o),
(600,-11,o),
(637,-2,c),
(604,52,l),
(365,-7,l),
(501,-7,o),
(811,-2,o),
(973,-2,c),
(987,-2,o),
(1053,61,o),
(1095,99,c),
(935,91,o),
(859,82,o),
(712,119,cs),
(576,152,o),
(487,220,o),
(515,267,c),
(535,297,o),
(556,328,o),
(576,358,c),
(563,367,l),
(417,224,l),
(372,176,o),
(432,80,o),
(504,65,c),
(472,99,l),
(251,84,o),
(263,220,o),
(160,220,cs),
(79,220,o),
(0,126,o),
(0,43,cs),
(0,-89,o),
(164,-98,o),
(209,-98,cs)
);
}
);
width = 1095;
},
{
associatedMasterId = m01;
attr = {
colorPalette = 4;
coordinates = (
100
);
};
layerId = "D9C908C8-7647-42E5-A4E3-03BFA120806C";
name = "{20} 11 Jan 24 at 18:11";
shapes = (
{
closed = 1;
nodes = (
(440,-99,o),
(600,-11,o),
(637,-2,c),
(604,52,l),
(365,-7,l),
(501,-7,o),
(811,-2,o),
(973,-2,c),
(987,-2,o),
(1053,61,o),
(1095,99,c),
(935,91,o),
(859,82,o),
(712,119,cs),
(576,152,o),
(487,220,o),
(515,267,c),
(535,297,o),
(556,328,o),
(576,358,c),
(563,367,l),
(417,224,l),
(372,176,o),
(432,80,o),
(504,65,c),
(472,99,l),
(251,84,o),
(263,220,o),
(160,220,cs),
(79,220,o),
(0,126,o),
(0,43,cs),
(0,-89,o),
(164,-98,o),
(209,-98,cs)
);
}
);
width = 1095;
},
{
associatedMasterId = m01;
attr = {
colorPalette = 1;
coordinates = (
100
);
};
layerId = "34B2313D-31D0-4287-BA7F-1767275DAFC5";
name = "{20} 11 Jan 24 at 18:25";
shapes = (
{
closed = 1;
nodes = (
(396,-88,o),
(534,-31,o),
(600,-4,c),
(486,-5,o),
(385,-7,o),
(365,-7,cs),
(249,-7,o),
(152,12,o),
(133,94,c),
(143,96,l),
(160,21,o),
(251,3,o),
(365,3,cs),
(501,3,o),
(811,8,o),
(973,8,cs),
(979,8,o),
(1027,51,o),
(1067,88,c),
(926,80,o),
(849,74,o),
(710,109,cs),
(569,143,o),
(473,216,o),
(507,272,cs),
(523,297,o),
(540,322,o),
(556,346,c),
(424,217,ls),
(394,187,o),
(416,124,o),
(481,81,c),
(495,92,l),
(253,66,o),
(250,210,o),
(160,210,cs),
(84,210,o),
(10,122,o),
(10,44,cs),
(10,-78,o),
(164,-87,o),
(209,-87,cs)
);
}
);
width = 1095;
}
);
metricLeft = "=0";
metricRight = "=0";
unicode = 1593;
}
{
color = 9;
glyphname = "kashida-ar";
layers = (
{
anchors = (
{
name = entry;
pos = (100,0);
},
{
name = exit;
},
{
name = kasra;
pos = (50,-54);
}
);
layerId = m01;
shapes = (
{
closed = 1;
nodes = (
(20,0,o),
(60,0,o),
(100,0,c),
(100,110,l),
(60,110,o),
(20,110,o),
(-20,110,c),
(-20,0,l)
);
}
);
width = 100;
},
{
anchors = (
{
name = entry;
pos = (100,0);
},
{
name = exit;
},
{
name = kasra;
pos = (50,-54);
}
);
associatedMasterId = m01;
attr = {
colorPalette = 4;
};
layerId = "EFB32494-B84F-4CE2-B5CE-D70C5A90ADDD";
metricLeft = "=0";
name = "9 Jan 24 at 19:07";
shapes = (
{
closed = 1;
nodes = (
(40,0,o),
(60,0,o),
(100,0,c),
(100,110,l),
(60,110,o),
(40,110,o),
(0,110,c),
(0,0,l)
);
}
);
width = 100;
},
{
anchors = (
{
name = entry;
pos = (100,0);
},
{
name = exit;
},
{
name = kasra;
pos = (50,-54);
}
);
associatedMasterId = m01;
attr = {
colorPalette = 1;
};
layerId = "AF29460F-F9A0-4E25-AF67-920660F0BA95";
name = "Color 4 9 Jan 24 at 19:07";
shapes = (
{
closed = 1;
nodes = (
(13,10,o),
(67,10,o),
(100,10,c),
(100,100,l),
(67,100,o),
(13,100,o),
(-20,100,c),
(-20,10,l)
);
}
);
width = 100;
},
{
anchors = (
{
name = entry;
pos = (6000,0);
},
{
name = exit;
},
{
name = kasra;
pos = (3000,-54);
}
);
associatedMasterId = m01;
attr = {
coordinates = (
100
);
};
layerId = "F9162609-6A9D-4C7A-BC71-B09D1AD92906";
name = "{100} 9 Jan 24 at 19:08";
shapes = (
{
closed = 1;
nodes = (
(1987,-13,o),
(3993,-13,o),
(6000,0,c),
(6000,110,l),
(3993,94,o),
(587,94,o),
(-20,110,c),
(-20,0,l)
);
}
);
width = 6000;
},
{
anchors = (
{
name = entry;
pos = (6000,0);
},
{
name = exit;
},
{
name = kasra;
pos = (3000,-54);
}
);
associatedMasterId = m01;
attr = {
colorPalette = 4;
coordinates = (
100
);
};
layerId = "200AAD3F-109F-4B5F-B6CA-7BA661F2BEFA";
metricLeft = "=0";
name = "17 May 23 at 02:27";
shapes = (
{
closed = 1;
nodes = (
(1997,-13,o),
(4003,-13,o),
(6000,0,c),
(6000,110,l),
(4024,94,o),
(682,94,o),
(0,109,c),
(0,0,l)
);
}
);
visible = 1;
width = 6000;
},
{
anchors = (
{
name = entry;
pos = (6000,0);
},
{
name = exit;
},
{
name = kasra;
pos = (3000,-54);
}
);
associatedMasterId = m01;
attr = {
colorPalette = 1;
coordinates = (
100
);
};
layerId = "FB4EFCC5-6A46-44D9-8EC1-54087C9649B7";
name = "Color 4 9 Jan 24 at 19:08";
shapes = (
{
closed = 1;
nodes = (
(1983,-3,o),
(3997,-3,o),
(6000,10,c),
(6000,100,l),
(4004,84,o),
(614,84,o),
(-20,100,c),
(-20,10,l)
);
}
);
width = 6000;
}
);
metricLeft = "=-20";
metricRight = "=0";
unicode = 1600;
}
{
category = Letter;
glyphname = "meem-ar";
kernLeft = meem.fina;
kernRight = meem;
layers = (
{
anchors = (
{
name = damma;
pos = (-20,60);
},
{
name = fatha;
pos = (350,375);
},
{
name = kasra;
pos = (376,-93);
}
);
backgroundImage = {
alpha = 80;
imagePath = "images/MS-ADD-01116-000-00005.jpg";
locked = 1;
pos = (-4613,-2812);
scale = (5,5);
};
layerId = m01;
shapes = (
{
closed = 1;
nodes = (
(370,-45,ls),
(436,-45,o),
(554,-55,o),
(554,86,cs),
(554,216,o),
(473,327,o),
(368,327,cs),
(267,327,o),
(171,234,o),
(198,84,c),
(171,86,o),
(139,92,o),
(102,108,c),
(81,57,o),
(35,36,o),
(-12,21,c),
(22,-38,o),
(126,-42,o),
(200,-45,cs)
);
},
{
closed = 1;
nodes = (
(380,137,o),
(374,143,o),
(374,150,cs),
(374,156,o),
(380,162,o),
(387,162,cs),
(393,162,o),
(399,156,o),
(399,150,cs),
(399,143,o),
(393,137,o),
(387,137,cs)
);
}
);
width = 554;
},
{
associatedMasterId = m01;
attr = {
colorPalette = 4;
};
backgroundImage = {
alpha = 80;
imagePath = "images/MS-ADD-01116-000-00005.jpg";
locked = 1;
pos = (-4613,-2812);
scale = (5,5);
};
layerId = "27B88358-2BC3-485F-A34A-AF977376944F";
name = "30 Oct 24 at 00:32";
shapes = (
{
closed = 1;
nodes = (
(370,-45,ls),
(436,-45,o),
(554,-55,o),
(554,86,cs),
(554,216,o),
(473,327,o),
(368,327,cs),
(267,327,o),
(171,234,o),
(198,84,c),
(171,86,o),
(139,92,o),
(102,108,c),
(81,57,o),
(35,36,o),
(-12,21,c),
(22,-38,o),
(126,-42,o),
(200,-45,cs)
);
}
);
width = 554;
},
{
associatedMasterId = m01;
attr = {
colorPalette = 1;
};
backgroundImage = {
alpha = 80;
imagePath = "images/MS-ADD-01116-000-00005.jpg";
locked = 1;
pos = (-4613,-2812);
scale = (5,5);
};
layerId = "82D3E516-0E19-4D0A-B9B3-2F6B33C039BD";
metricLeft = "=4";
metricRight = "=10";
name = "30 Oct 24 at 00:32";
shapes = (
{
closed = 1;
nodes = (
(370,-35,ls),
(436,-35,o),
(544,-45,o),
(544,86,cs),
(544,211,o),
(467,317,o),
(368,317,cs),
(270,317,o),
(177,224,o),
(210,73,c),
(183,74,o),
(148,79,o),
(107,95,c),
(85,51,o),
(45,30,o),
(4,16,c),
(41,-28,o),
(132,-32,o),
(200,-35,c)
);
},
{
closed = 1;
nodes = (
(380,137,o),
(374,143,o),
(374,150,cs),
(374,156,o),
(380,162,o),
(387,162,cs),
(393,162,o),
(399,156,o),
(399,150,cs),
(399,143,o),
(393,137,o),
(387,137,cs)
);
}
);
width = 554;
}
);
metricLeft = "=-12";
metricRight = "=0";
script = arabic;
sortName = arL0057;
sortNameKeep = arL0057;
unicode = 1605;
}
{
category = Letter;
glyphname = "heh-ar";
kernLeft = heh;
kernRight = beh.init;
layers = (
{
anchors = (
{
name = damma;
pos = (-53,114);
},
{
name = fatha;
pos = (274,520);
},
{
name = kasra;
pos = (260,-60);
},
{
name = top;
pos = (310,466);
}
);
attr = {
colorPalette = 4;
};
backgroundImage = {
alpha = 80;
imagePath = "images/MS-ADD-01116-000-00012.jpg";
locked = 1;
pos = (-3021,-3639);
scale = (5,5);
};
layerId = m01;
shapes = (
{
closed = 1;
nodes = (
(295,-8,o),
(355,6,o),
(356,64,c),
(356,501,ls),
(356,515,o),
(350,517,o),
(342,505,cs),
(316,465,o),
(272,434,o),
(236,409,c),
(236,248,l),
(284,354,l),
(157,347,o),
(0,274,o),
(0,137,cs),
(0,14,o),
(149,-18,o),
(225,-13,cs)
);
}
);
width = 356;
},
{
associatedMasterId = m01;
attr = {
colorPalette = 1;
};
layerId = "8C28353E-A0E9-4EF1-88BD-8748F47C8DCE";
metricLeft = "=10";
metricRight = "=10";
name = "13 Jan 24 at 19:29";
shapes = (
{
closed = 1;
nodes = (
(293,2,o),
(345,15,o),
(346,64,cs),
(346,493,l),
(320,456,o),
(279,427,o),
(246,404,c),
(246,294,l),
(268,343,l),
(147,331,o),
(10,261,o),
(10,137,cs),
(10,23,o),
(151,-8,o),
(224,-3,cs)
);
},
{
closed = 1;
nodes = (
(224,152,o),
(218,158,o),
(218,165,cs),
(218,171,o),
(224,177,o),
(231,177,cs),
(237,177,o),
(243,171,o),
(243,165,cs),
(243,158,o),
(237,152,o),
(231,152,cs)
);
}
);
width = 356;
}
);
metricLeft = "=0";
metricRight = "=0";
script = arabic;
sortName = arL0063;
sortNameKeep = arL0063;
unicode = 1607;
}
{
glyphname = "waw-ar";
layers = (
{
anchors = (
{
name = damma;
pos = (-35,54);
},
{
name = fatha;
pos = (288,441);
},
{
name = hamzaabove;
pos = (70,266);
},
{
name = kasra;
pos = (266,-104);
}
);
attr = {
colorPalette = 4;
};
backgroundImage = {
alpha = 80;
imagePath = "images/MS-ADD-01116-000-00003.jpg";
locked = 1;
pos = (-5771,-2825);
scale = (5,5);
};
layerId = m01;
shapes = (
{
closed = 1;
nodes = (
(346,-54,o),
(459,-32,o),
(498,24,cs),
(511,43,o),
(516,69,o),
(516,98,cs),
(514,216,o),
(414,385,o),
(296,385,cs),
(200,385,o),
(121,299,o),
(121,196,cs),
(121,135,o),
(139,96,o),
(176,73,c),
(153,81,o),
(130,93,o),
(110,109,c),
(94,78,o),
(50,38,o),
(0,15,c),
(52,-36,o),
(152,-61,o),
(267,-57,cs)
);
}
);
width = 516;
},
{
associatedMasterId = m01;
attr = {
colorPalette = 1;
};
backgroundImage = {
alpha = 80;
imagePath = "images/MS-ADD-01116-000-00003.jpg";
locked = 1;
pos = (-5778,-2825);
scale = (5,5);
};
layerId = "111DF80C-47B2-4FFC-9B31-4FB3B206B3AC";
metricLeft = "=18";
metricRight = "=10";
name = "18 Jan 24 at 12:07";
shapes = (
{
closed = 1;
nodes = (
(344,-44,o),
(453,-22,o),
(490,30,cs),
(501,47,o),
(506,70,o),
(506,98,cs),
(504,213,o),
(406,375,o),
(296,375,cs),
(206,375,o),
(131,294,o),
(131,196,cs),
(131,57,o),
(243,44,o),
(384,66,c),
(385,55,l),
(324,46,o),
(202,32,o),
(113,94,c),
(95,66,o),
(59,34,o),
(18,13,c),
(70,-30,o),
(161,-51,o),
(267,-47,cs)
);
},
{
closed = 1;
nodes = (
(277,227,o),
(271,233,o),
(271,240,cs),
(271,246,o),
(277,252,o),
(284,252,cs),
(290,252,o),
(296,246,o),
(296,240,cs),
(296,233,o),
(290,227,o),
(284,227,cs)
);
}
);
width = 516;
},
{
anchors = (
{
name = damma;
pos = (-42,54);
},
{
name = fatha;
pos = (281,459);
},
{
name = hamzaabove;
pos = (63,284);
},
{
name = kasra;
pos = (259,-104);
}
);
associatedMasterId = m01;
backgroundImage = {
alpha = 80;
imagePath = "images/MS-ADD-01116-000-00003.jpg";
locked = 1;
pos = (-5778,-2825);
scale = (5,5);
};
layerId = "A6504E19-903B-4DCD-A1E2-4F16F52AEE0F";
name = "18 Jan 24 at 12:03";
shapes = (
{
closed = 1;
nodes = (
(339,-72,o),
(452,-50,o),
(491,6,cs),
(505,26,o),
(509,50,o),
(509,80,cs),
(509,171,o),
(430,385,o),
(289,385,cs),
(193,385,o),
(114,299,o),
(114,196,cs),
(114,58,o),
(235,39,o),
(378,65,cs),
(391,67,o),
(393,50,o),
(377,47,cs),
(334,39,o),
(214,26,o),
(131,73,cs),
(120,79,o),
(104,89,o),
(97,77,cs),
(84,54,o),
(39,13,o),
(18,13,cs),
(7,13,o),
(-8,4,o),
(6,-10,cs),
(52,-56,o),
(155,-79,o),
(260,-75,cs)
);
},
{
closed = 1;
nodes = (
(270,225,o),
(264,231,o),
(264,238,cs),
(264,244,o),
(270,250,o),
(277,250,cs),
(283,250,o),
(289,244,o),
(289,238,cs),
(289,231,o),
(283,225,o),
(277,225,cs)
);
}
);
width = 509;
}
);
metricLeft = "=0";
metricRight = "=0";
unicode = 1608;
}
{
category = Letter;
glyphname = "alefMaksura-ar";
layers = (
{
anchors = (
{
name = bottom;
pos = (387,-114);
},
{
name = damma;
pos = (-77,0);
},
{
name = fatha;
pos = (131,351);
},
{
name = hamza;
pos = (-81,137);
},
{
name = kasra;
pos = (230,-214);
}
);
attr = {
colorPalette = 4;
};
backgroundImage = {
alpha = 80;
angle = -0.6;
imagePath = "images/MS-ADD-01116-000-00049.jpg";
pos = (-3980,-1797);
scale = (5,5);
};
layerId = m01;
shapes = (
{
closed = 1;
nodes = (
(390,-127,o),
(400,-92,o),
(389,-35,cs),
(380,11,o),
(359,46,o),
(345,72,cs),
(338,84,o),
(337,90,o),
(314,87,cs),
(294,84,o),
(276,83,o),
(260,83,c),
(301,96,o),
(326,143,o),
(328,204,c),
(309,199,o),
(296,194,o),
(281,209,cs),
(235,253,o),
(205,304,o),
(165,304,cs),
(87,304,o),
(0,210,o),
(0,98,cs),
(0,52,o),
(15,14,o),
(48,-12,c),
(39,-8,o),
(31,-4,o),
(24,1,c),
(16,-24,o),
(-19,-69,o),
(-76,-99,c),
(9,-175,o),
(238,-164,o),
(350,-137,cs)
);
}
);
width = 393;
},
{
associatedMasterId = m01;
attr = {
colorPalette = 1;
};
backgroundImage = {
alpha = 80;
angle = -0.6;
imagePath = "images/MS-ADD-01116-000-00049.jpg";
pos = (-3980,-1797);
scale = (5,5);
};
layerId = "DF578740-B5CB-41D5-8F85-3E0EAFEE2742";
metricLeft = "=10@98";
metricRight = "=10";
name = "17 Jan 24 at 21:57";
shapes = (
{
closed = 1;
nodes = (
(381,-119,o),
(390,-90,o),
(379,-37,cs),
(371,7,o),
(350,41,o),
(336,67,cs),
(328,81,o),
(329,79,o),
(315,77,cs),
(200,63,o),
(150,88,o),
(116,116,c),
(123,123,l),
(190,69,o),
(306,61,o),
(317,191,c),
(303,188,o),
(289,187,o),
(274,202,cs),
(227,247,o),
(199,294,o),
(163,294,cs),
(93,294,o),
(10,204,o),
(10,98,cs),
(10,-1,o),
(77,-51,o),
(254,-32,c),
(257,-41,l),
(162,-54,o),
(79,-42,o),
(28,-14,c),
(16,-39,o),
(-14,-74,o),
(-58,-100,c),
(31,-163,o),
(242,-153,o),
(348,-127,cs)
);
}
);
width = 393;
},
{
anchors = (
{
name = bottom;
pos = (387,-146);
},
{
name = damma;
pos = (-77,0);
},
{
name = fatha;
pos = (131,351);
},
{
name = hamza;
pos = (-81,137);
},
{
name = kasra;
pos = (230,-246);
}
);
associatedMasterId = m01;
backgroundImage = {
alpha = 80;
angle = -0.6;
imagePath = "images/MS-ADD-01116-000-00049.jpg";
pos = (-3980,-1797);
scale = (5,5);
};
layerId = "BB0DA572-04B6-4150-B96C-F8E842AB6725";
name = "17 Jan 24 at 21:53";
shapes = (
{
closed = 1;
nodes = (
(390,-159,o),
(401,-124,o),
(392,-67,cs),
(383,-14,o),
(359,27,o),
(345,53,cs),
(338,65,o),
(337,71,o),
(314,68,cs),
(205,54,o),
(148,78,o),
(123,104,cs),
(113,114,o),
(122,122,o),
(129,117,cs),
(166,91,o),
(236,74,o),
(282,87,cs),
(312,95,o),
(325,148,o),
(328,204,c),
(309,199,o),
(296,194,o),
(281,209,cs),
(235,253,o),
(205,304,o),
(165,304,cs),
(87,304,o),
(0,215,o),
(0,88,cs),
(0,-12,o),
(71,-75,o),
(248,-57,cs),
(262,-56,o),
(261,-64,o),
(264,-69,c),
(177,-81,o),
(89,-69,o),
(39,-40,cs),
(27,-33,o),
(19,-43,o),
(12,-54,cs),
(-4,-81,o),
(-34,-116,o),
(-51,-116,cs),
(-69,-116,o),
(-71,-128,o),
(-60,-141,cs),
(-1,-209,o),
(242,-195,o),
(350,-169,cs)
);
}
);
width = 395;
}
);
metricLeft = "=0@88";
metricRight = "=0";
script = arabic;
sortName = arL0079a;
sortNameKeep = arL0079a;
unicode = 1609;
}
{
color = 9;
glyphname = "behDotless-ar";
layers = (
{
anchors = (
{
name = bottom;
pos = (996,13);
},
{
name = damma;
pos = (-51,86);
},
{
name = fatha;
pos = (550,167);
},
{
name = kasra;
pos = (721,-61);
},
{
name = top;
pos = (858,228);
}
);
backgroundImage = {
alpha = 80;
imagePath = "images/MS-ADD-01116-000-00043.jpg";
locked = 1;
pos = (-2761,-2863);
scale = (5,5);
};
layerId = m01;
shapes = (
{
closed = 1;
nodes = (
(507,-14,o),
(603,-13,o),
(915,0,cs),
(996,4,o),
(1007,20,o),
(1007,78,cs),
(1007,130,o),
(974,226,o),
(931,278,cs),
(924,286,o),
(916,292,o),
(909,274,cs),
(890,223,o),
(842,184,o),
(808,182,cs),
(794,181,o),
(796,163,o),
(808,159,cs),
(842,147,o),
(867,127,o),
(878,106,c),
(681,91,o),
(471,93,o),
(177,104,cs),
(123,106,o),
(115,114,o),
(106,118,cs),
(97,122,o),
(87,121,o),
(85,117,cs),
(60,67,o),
(31,39,o),
(7,32,cs),
(-6,28,o),
(0,16,o),
(11,13,cs),
(55,0,o),
(109,-4,o),
(159,-5,cs)
);
}
);
width = 1007;
},
{
associatedMasterId = m01;
attr = {
colorPalette = 4;
};
backgroundImage = {
alpha = 80;
imagePath = "images/MS-ADD-01116-000-00043.jpg";
locked = 1;
pos = (-2761,-2863);
scale = (5,5);
};
layerId = "BBC83BFA-AAB8-4ECC-ACF9-F6CCE966308C";
name = "Color 4 22 Aug 24 at 03:05";
shapes = (
{
closed = 1;
nodes = (
(507,-14,o),
(603,-13,o),
(915,0,cs),
(996,4,o),
(1007,20,o),
(1007,78,cs),
(1007,130,o),
(977,225,o),
(919,290,c),
(891,238,o),
(861,193,o),
(794,173,c),
(833,155,o),
(867,127,o),
(878,106,c),
(681,91,o),
(471,92,o),
(212,103,cs),
(176,105,o),
(118,109,o),
(90,123,c),
(75,93,o),
(43,56,o),
(-5,22,c),
(29,0,o),
(138,-5,o),
(159,-5,cs)
);
}
);
visible = 1;
width = 1007;
},
{
associatedMasterId = m01;
attr = {
colorPalette = 1;
};
backgroundImage = {
alpha = 80;
imagePath = "images/MS-ADD-01116-000-00043.jpg";
locked = 1;
pos = (-2761,-2863);
scale = (5,5);
};
layerId = "8AB8F055-48A1-4D1A-BF6A-4C5B01E913AA";
name = "22 Aug 24 at 03:02";
shapes = (
{
closed = 1;
nodes = (
(507,-4,o),
(603,-3,o),
(915,10,cs),
(989,14,o),
(997,25,o),
(997,78,cs),
(997,125,o),
(971,210,o),
(921,272,c),
(897,231,o),
(869,193,o),
(819,171,c),
(859,148,o),
(890,117,o),
(891,97,c),
(690,81,o),
(476,82,o),
(212,93,cs),
(179,95,o),
(126,98,o),
(94,110,c),
(79,84,o),
(52,53,o),
(14,24,c),
(56,9,o),
(141,5,o),
(159,5,cs)
);
}
);
width = 1007;
},
{
anchors = (
{
name = bottom;
pos = (5989,13);
},
{
name = damma;
pos = (-51,86);
},
{
name = fatha;
pos = (2950,167);
},
{
name = kasra;
pos = (3121,-61);
},
{
name = top;
pos = (5851,228);
}
);
associatedMasterId = m01;
attr = {
coordinates = (
100
);
};
backgroundImage = {
alpha = 80;
imagePath = "images/MS-ADD-01116-000-00043.jpg";
locked = 1;
pos = (-2761,-2863);
scale = (5,5);
};
layerId = "F6DF803B-6B94-4D92-9063-7C46B088498F";
name = "{100} 22 Aug 24 at 03:12";
shapes = (
{
closed = 1;
nodes = (
(507,-14,o),
(5596,-13,o),
(5908,0,cs),
(5989,4,o),
(6000,20,o),
(6000,78,cs),
(6000,130,o),
(5967,226,o),
(5924,278,cs),
(5917,286,o),
(5909,292,o),
(5902,274,cs),
(5883,223,o),
(5835,184,o),
(5801,182,cs),
(5787,181,o),
(5789,163,o),
(5801,159,cs),
(5835,147,o),
(5860,127,o),
(5871,106,c),
(5674,91,o),
(471,93,o),
(177,104,cs),
(123,106,o),
(115,114,o),
(106,118,cs),
(97,122,o),
(87,121,o),
(85,117,cs),
(60,67,o),
(31,39,o),
(7,32,cs),
(-6,28,o),
(0,16,o),
(11,13,cs),
(55,0,o),
(109,-4,o),
(159,-5,cs)
);
}
);
width = 6000;
},
{
associatedMasterId = m01;
attr = {
colorPalette = 4;
coordinates = (
100
);
};
backgroundImage = {
alpha = 80;
imagePath = "images/MS-ADD-01116-000-00043.jpg";
locked = 1;
pos = (-2761,-2863);
scale = (5,5);
};
layerId = "44ADB27D-DF15-48E9-B1ED-ABE75C96E05B";
name = "Color 4 {100} 22 Aug 24 at 03:12";
shapes = (
{
closed = 1;
nodes = (
(507,-14,o),
(5596,-13,o),
(5908,0,cs),
(5989,4,o),
(6001,20,o),
(6000,78,cs),
(5999,130,o),
(5969,225,o),
(5911,290,c),
(5883,238,o),
(5853,193,o),
(5786,173,c),
(5825,155,o),
(5859,127,o),
(5870,106,c),
(5678,91,o),
(733,93,o),
(209,103,c),
(173,105,o),
(117,109,o),
(90,123,c),
(75,93,o),
(43,56,o),
(-5,22,c),
(29,0,o),
(138,-5,o),
(159,-5,cs)
);
}
);
width = 6000;
},
{
associatedMasterId = m01;
attr = {
colorPalette = 1;
coordinates = (
100
);
};
backgroundImage = {
alpha = 80;
imagePath = "images/MS-ADD-01116-000-00043.jpg";
locked = 1;
pos = (-2761,-2863);
scale = (5,5);
};
layerId = "307A62E0-5030-4782-86E3-03AB3DF697F9";
name = "17 May 23 at 02:24";
shapes = (
{
closed = 1;
nodes = (
(507,-4,o),
(5596,-3,o),
(5908,10,cs),
(5982,14,o),
(5991,25,o),
(5990,78,cs),
(5989,125,o),
(5963,210,o),
(5913,272,c),
(5889,231,o),
(5861,193,o),
(5811,171,c),
(5851,149,o),
(5882,117,o),
(5886,97,c),
(5877,81,o),
(743,83,o),
(209,93,cs),
(176,95,o),
(125,98,o),
(94,110,c),
(79,84,o),
(52,53,o),
(14,24,c),
(56,9,o),
(141,5,o),
(159,5,cs)
);
}
);
width = 6000;
},
{
anchors = (
{
name = bottom;
pos = (407,19);
},
{
name = damma;
pos = (-51,86);
},
{
name = fatha;
pos = (330,328);
},
{
name = kasra;
pos = (261,-71);
},
{
name = top;
pos = (273,228);
}
);
associatedMasterId = m01;
attr = {
coordinates = (
0
);
};
backgroundImage = {
alpha = 80;
imagePath = "images/MS-ADD-01116-000-00043.jpg";
locked = 1;
pos = (-2761,-2863);
scale = (5,5);
};
layerId = "F53F9BA1-1AD9-4C22-80AF-C51DE4261A60";
name = "{0} 22 Aug 24 at 03:07";
shapes = (
{
closed = 1;
nodes = (
(177,-6,o),
(258,-6,o),
(330,-1,cs),
(411,4,o),
(422,20,o),
(422,78,cs),
(422,130,o),
(389,226,o),
(346,278,cs),
(339,286,o),
(331,292,o),
(324,274,cs),
(305,223,o),
(257,184,o),
(223,182,cs),
(209,181,o),
(211,163,o),
(223,159,cs),
(257,147,o),
(282,127,o),
(293,106,c),
(249,98,o),
(201,100,o),
(163,105,cs),
(136,109,o),
(115,114,o),
(106,118,cs),
(97,122,o),
(87,121,o),
(85,117,cs),
(60,67,o),
(31,39,o),
(7,32,cs),
(-6,28,o),
(0,16,o),
(11,13,cs),
(55,0,o),
(89,-2,o),
(119,-3,cs)
);
}
);
width = 422;
},
{
associatedMasterId = m01;
attr = {
colorPalette = 4;
coordinates = (
0
);
};
backgroundImage = {
alpha = 80;
imagePath = "images/MS-ADD-01116-000-00043.jpg";
locked = 1;
pos = (-2761,-2863);
scale = (5,5);
};
layerId = "9FED0C20-A912-4451-BE89-5098C98A7C26";
name = "Color 4 {0} 22 Aug 24 at 03:08";
shapes = (
{
closed = 1;
nodes = (
(212,-5,o),
(274,-5,o),
(330,-1,cs),
(411,4,o),
(422,20,o),
(422,78,cs),
(422,130,o),
(392,225,o),
(334,290,c),
(306,238,o),
(276,193,o),
(209,173,c),
(248,155,o),
(282,127,o),
(293,106,c),
(249,98,o),
(201,100,o),
(163,105,cs),
(152,106,o),
(111,114,o),
(90,123,c),
(75,93,o),
(43,56,o),
(-5,22,c),
(36,-4,o),
(137,-5,o),
(160,-5,cs)
);
}
);
visible = 1;
width = 422;
},
{
associatedMasterId = m01;
attr = {
colorPalette = 1;
coordinates = (
0
);
};
backgroundImage = {
alpha = 80;
imagePath = "images/MS-ADD-01116-000-00043.jpg";
locked = 1;
pos = (-2761,-2863);
scale = (5,5);
};
layerId = "72A149EE-7B58-4136-BDFB-772EA48C3704";
name = "17 May 23 at 17:21";
shapes = (
{
closed = 1;
nodes = (
(212,5,o),
(274,5,o),
(329,9,cs),
(404,14,o),
(412,25,o),
(412,78,cs),
(412,125,o),
(386,210,o),
(336,272,c),
(312,231,o),
(284,193,o),
(234,171,c),
(273,149,o),
(304,118,o),
(306,98,c),
(258,88,o),
(203,90,o),
(162,95,cs),
(152,96,o),
(118,103,o),
(95,111,c),
(79,84,o),
(52,53,o),
(14,24,c),
(58,6,o),
(139,5,o),
(160,5,cs)
);
}
);
width = 422;
}
);
metricLeft = "=0";
metricRight = "=0";
unicode = 1646;
}
{
glyphname = "qafDotless-ar";
layers = (
{
anchors = (
{
name = damma;
pos = (-72,138);
},
{
name = fatha;
pos = (138,424);
},
{
name = kasra;
pos = (276,-289);
},
{
name = top;
pos = (39,309);
}
);
attr = {
colorPalette = 4;
};
backgroundImage = {
alpha = 80;
angle = 1;
imagePath = "images/MS-ADD-01116-000-00056.jpg";
locked = 1;
pos = (-1294,-3692);
scale = (5,5);
};
layerId = m01;
shapes = (
{
closed = 1;
nodes = (
(456,-205,o),
(469,-184,o),
(469,-157,cs),
(469,-112,o),
(464,-72,o),
(452,-37,cs),
(446,-18,o),
(437,-1,o),
(419,1,cs),
(401,3,o),
(301,5,o),
(282,11,c),
(313,61,o),
(328,91,o),
(328,143,cs),
(328,224,o),
(261,373,o),
(167,373,cs),
(67,373,o),
(0,269,o),
(0,172,cs),
(0,95,o),
(60,49,o),
(192,49,cs),
(228,49,o),
(255,52,o),
(276,60,c),
(261,73,l),
(202,-29,o),
(121,-118,o),
(37,-184,c),
(158,-247,o),
(285,-254,o),
(432,-212,cs)
);
}
);
width = 469;
},
{
associatedMasterId = m01;
attr = {
colorPalette = 1;
};
layerId = "00F4C620-353B-4AE5-8EC4-321990CD3DC0";
name = "9 Jan 24 at 21:44";
shapes = (
{
closed = 1;
nodes = (
(449,-197,o),
(459,-180,o),
(459,-157,cs),
(459,-113,o),
(454,-74,o),
(443,-40,cs),
(437,-22,o),
(430,-10,o),
(418,-9,cs),
(392,-6,o),
(291,-6,o),
(264,4,c),
(273,18,o),
(318,71,o),
(318,143,cs),
(318,222,o),
(253,363,o),
(167,363,cs),
(74,363,o),
(10,265,o),
(10,172,cs),
(10,102,o),
(65,59,o),
(192,59,cs),
(230,59,o),
(243,61,o),
(270,67,c),
(247,24,o),
(210,-25,o),
(165,-78,c),
(224,-116,o),
(314,-116,o),
(360,-113,c),
(360,-123,l),
(276,-129,o),
(210,-117,o),
(156,-86,c),
(127,-118,o),
(93,-151,o),
(55,-182,c),
(170,-238,o),
(289,-242,o),
(429,-202,cs)
);
},
{
closed = 1;
nodes = (
(154,211,o),
(148,217,o),
(148,224,cs),
(148,230,o),
(154,236,o),
(161,236,cs),
(167,236,o),
(173,230,o),
(173,224,cs),
(173,217,o),
(167,211,o),
(161,211,cs)
);
}
);
visible = 1;
width = 469;
}
);
metricLeft = "=0";
metricRight = "=0";
unicode = 1647;
}
{
category = Mark;
glyphname = "alefabove-ar";
layers = (
{
anchors = (
{
name = _alefabove;
}
);
annotations = (
{
pos = (-200,655);
text = "https://corpuscoranicum.de/en/manuscripts/594/page/148r";
type = Text;
width = 270;
}
);
attr = {
colorPalette = 3;
};
backgroundImage = {
alpha = 80;
imagePath = "images/alefabove-ar.medi.png";
pos = (-872,-7);
scale = (0.6,0.6);
};
layerId = m01;
shapes = (
{
closed = 1;
nodes = (
(19,333,o),
(0,333,o),
(-1,357,cs),
(-5,478,o),
(-11,610,o),
(-27,690,cs),
(-31,708,o),
(-26,707,o),
(-21,714,cs),
(-6,737,o),
(10,761,o),
(15,786,cs),
(18,800,o),
(31,808,o),
(29,781,cs),
(18,650,o),
(19,516,o),
(19,358,cs)
);
}
);
width = 0;
}
);
metricWidth = "=0";
script = arabic;
sortName = arM1082;
sortNameKeep = arM1082;
subCategory = Nonspacing;
unicode = 1648;
}
{
color = 9;
glyphname = "fehDotless-ar";
kernRight = feh.init;
layers = (
{
anchors = (
{
name = bottom;
pos = (995,43);
},
{
name = damma;
pos = (-41,58);
},
{
name = fatha;
pos = (778,496);
},
{
name = kasra;
pos = (894,-49);
},
{
name = top;
pos = (686,393);
}
);
backgroundImage = {
alpha = 80;
angle = 1.5;
imagePath = "images/MS-ADD-01116-000-00063.jpg";
locked = 1;
pos = (-2263,-2003);
scale = (5,5);
};
layerId = m01;
shapes = (
{
closed = 1;
nodes = (
(507,-14,o),
(757,-15,o),
(888,-1,cs),
(1001,11,o),
(1021,66,o),
(1020,122,cs),
(1018,273,o),
(922,447,o),
(796,445,cs),
(689,443,o),
(634,332,o),
(634,266,cs),
(635,197,o),
(655,159,o),
(689,137,cs),
(745,100,o),
(845,112,o),
(892,122,cs),
(903,123,o),
(905,108,o),
(894,105,cs),
(875,100,o),
(840,96,o),
(793,93,cs),
(650,86,o),
(398,89,o),
(177,97,cs),
(123,99,o),
(115,114,o),
(106,118,cs),
(97,122,o),
(87,121,o),
(85,117,cs),
(60,67,o),
(31,39,o),
(7,32,cs),
(-6,28,o),
(0,16,o),
(11,13,cs),
(55,0,o),
(109,-4,o),
(159,-5,cs)
);
},
{
closed = 1;
nodes = (
(803,270,o),
(797,276,o),
(797,283,cs),
(797,289,o),
(803,295,o),
(810,295,cs),
(816,295,o),
(822,289,o),
(822,283,cs),
(822,276,o),
(816,270,o),
(810,270,cs)
);
}
);
width = 1020;
},
{
anchors = (
{
name = bottom;
pos = (5975,43);
},
{
name = damma;
pos = (-41,58);
},
{
name = fatha;
pos = (5758,496);
},
{
name = kasra;
pos = (5874,-49);
},
{
name = top;
pos = (5666,393);
}
);
associatedMasterId = m01;
attr = {
coordinates = (
100
);
};
backgroundImage = {
alpha = 80;
angle = 1.5;
imagePath = "images/MS-ADD-01116-000-00063.jpg";
locked = 1;
pos = (-2263,-2003);
scale = (5,5);
};
layerId = "CD47D3D8-91E7-4A64-A046-25B89C87F1C6";
name = "17 May 23 at 17:31";
shapes = (
{
closed = 1;
nodes = (
(1480,-31,o),
(5033,-35,o),
(5746,-9,cs),
(5864,-5,o),
(6002,3,o),
(6000,122,cs),
(5998,273,o),
(5902,447,o),
(5776,445,cs),
(5669,443,o),
(5614,332,o),
(5614,266,cs),
(5615,197,o),
(5635,159,o),
(5669,137,cs),
(5725,100,o),
(5825,112,o),
(5872,122,cs),
(5883,123,o),
(5882,110,o),
(5874,104,cs),
(5869,100,o),
(5827,94,o),
(5753,91,cs),
(5044,60,o),
(1443,50,o),
(237,95,cs),
(123,99,o),
(115,114,o),
(106,118,cs),
(97,122,o),
(87,121,o),
(85,117,cs),
(60,67,o),
(31,39,o),
(7,32,cs),
(-6,28,o),
(0,16,o),
(11,13,cs),
(55,0,o),
(109,-4,o),
(159,-5,cs)
);
},
{
closed = 1;
nodes = (
(5783,270,o),
(5777,276,o),
(5777,283,cs),
(5777,289,o),
(5783,295,o),
(5790,295,cs),
(5796,295,o),
(5802,289,o),
(5802,283,cs),
(5802,276,o),
(5796,270,o),
(5790,270,cs)
);
}
);
visible = 1;
width = 6000;
},
{
anchors = (
{
name = bottom;
pos = (595,43);
},
{
name = damma;
pos = (-51,68);
},
{
name = fatha;
pos = (378,516);
},
{
name = kasra;
pos = (494,-69);
},
{
name = top;
pos = (286,393);
}
);
associatedMasterId = m01;
attr = {
coordinates = (
0
);
};
backgroundImage = {
alpha = 80;
angle = 1.5;
imagePath = "images/MS-ADD-01116-000-00063.jpg";
locked = 1;
pos = (-2663,-2003);
scale = (5,5);
};
layerId = "32CE617B-9BC0-4F91-998B-D8877494DCA0";
name = "17 May 23 at 17:31";
shapes = (
{
closed = 1;
nodes = (
(250,-9,o),
(398,-5,o),
(477,-1,cs),
(590,4,o),
(621,62,o),
(620,122,cs),
(617,273,o),
(522,447,o),
(396,445,cs),
(289,443,o),
(234,332,o),
(234,266,cs),
(235,197,o),
(255,159,o),
(289,137,cs),
(345,100,o),
(445,112,o),
(492,122,cs),
(503,123,o),
(505,107,o),
(494,105,cs),
(466,100,o),
(431,95,o),
(393,93,cs),
(325,90,o),
(244,88,o),
(174,103,cs),
(150,108,o),
(127,115,o),
(106,124,cs),
(97,128,o),
(87,127,o),
(85,123,cs),
(60,73,o),
(31,45,o),
(7,38,cs),
(-6,34,o),
(0,22,o),
(11,19,cs),
(42,10,o),
(85,4,o),
(133,0,cs)
);
},
{
closed = 1;
nodes = (
(403,270,o),
(397,276,o),
(397,283,cs),
(397,289,o),
(403,295,o),
(410,295,cs),
(416,295,o),
(422,289,o),
(422,283,cs),
(422,276,o),
(416,270,o),
(410,270,cs)
);
}
);
visible = 1;
width = 620;
}
);
metricLeft = "=behDotless-ar";
metricRight = "=0";
unicode = 1697;
}
{
glyphname = "noonghunna-ar";
layers = (
{
anchors = (
{
name = damma;
pos = (125,-51);
},
{
name = fatha;
pos = (95,332);
},
{
name = hamza;
pos = (-71,60);
},
{
name = kasra;
pos = (343,-51);
},
{
name = top;
pos = (84,229);
}
);
backgroundImage = {
alpha = 80;
angle = -1;
imagePath = "images/MS-ADD-01116-000-00005.jpg";
locked = 1;
pos = (-3359,-3689);
scale = (5,5);
};
layerId = m01;
shapes = (
{
closed = 1;
nodes = (
(278,-338,o),
(288,-275,o),
(289,-233,cs),
(291,-183,o),
(300,-41,o),
(290,68,cs),
(281,180,o),
(238,267,o),
(136,290,cs),
(123,293,o),
(121,294,o),
(118,283,cs),
(108,231,o),
(59,189,o),
(12,176,cs),
(-4,172,o),
(-4,157,o),
(14,153,cs),
(132,128,o),
(182,116,o),
(198,-6,cs),
(206,-65,o),
(209,-146,o),
(202,-244,c),
(137,-248,o),
(102,-238,o),
(71,-221,cs),
(67,-218,o),
(61,-216,o),
(57,-222,cs),
(29,-264,o),
(1,-294,o),
(-23,-304,cs),
(-38,-310,o),
(-34,-322,o),
(-22,-330,cs),
(39,-372,o),
(175,-381,o),
(242,-353,cs)
);
}
);
width = 295;
}
);
metricLeft = "=0@164";
metricRight = "=0";
unicode = 1722;
}
{
color = 9;
glyphname = "yehbarree-ar";
kernRight = hah.init;
layers = (
{
anchors = (
{
name = bottom;
pos = (486,-34);
},
{
name = damma;
pos = (-54,163);
},
{
name = fatha;
pos = (150,402);
},
{
name = kasra;
pos = (286,-43);
}
);
backgroundImage = {
alpha = 80;
angle = 0.2;
imagePath = "images/MS-ADD-01116-000-00058.jpg";
locked = 1;
pos = (-3053,-3591);
scale = (5,5);
};
layerId = m01;
shapes = (
{
closed = 1;
nodes = (
(323,18,o),
(829,26,o),
(939,26,cs),
(995,26,o),
(1010,66,o),
(1061,83,cs),
(1077,88,o),
(1067,103,o),
(1058,103,cs),
(861,98,o),
(309,106,o),
(288,107,cs),
(212,111,o),
(166,121,o),
(113,174,cs),
(101,186,o),
(111,199,o),
(123,187,cs),
(221,93,o),
(355,105,o),
(347,244,c),
(328,239,o),
(306,233,o),
(292,249,cs),
(252,292,o),
(235,351,o),
(177,351,cs),
(96,351,o),
(0,269,o),
(0,170,cs),
(0,54,o),
(66,20,o),
(204,19,cs)
);
}
);
width = 1069;
},
{
anchors = (
{
name = bottom;
pos = (486,-34);
},
{
name = damma;
pos = (-54,163);
},
{
name = fatha;
pos = (150,402);
},
{
name = kasra;
pos = (286,-43);
}
);
associatedMasterId = m01;
attr = {
coordinates = (
0,
100
);
};
layerId = "6F366F50-ADC0-4B6D-9603-CEEBFF83328D";
name = "23 May 23 at 04:23";
shapes = (
{
closed = 1;
nodes = (
(2119,34,o),
(3995,36,o),
(5870,36,cs),
(5926,36,o),
(5940,66,o),
(5991,83,cs),
(6007,88,o),
(5998,103,o),
(5988,103,cs),
(4912,103,o),
(1336,101,o),
(310,110,cs),
(192,111,o),
(157,130,o),
(113,174,cs),
(101,186,o),
(111,199,o),
(123,187,cs),
(221,93,o),
(355,116,o),
(347,244,c),
(328,239,o),
(306,233,o),
(292,249,cs),
(252,292,o),
(235,351,o),
(177,351,cs),
(96,351,o),
(0,269,o),
(0,170,cs),
(0,54,o),
(76,18,o),
(314,20,cs)
);
}
);
width = 6000;
}
);
metricLeft = "=0";
metricRight = "=0";
unicode = 1746;
}
{
glyphname = northWestVineLeaf;
layers = (
{
attr = {
color = 1;
};
backgroundImage = {
imagePath = "images/northW_estV_ineL_eaf-Regular.jpeg";
pos = (0,-500);
};
layerId = m01;
shapes = (
{
closed = 1;
nodes = (
(995,493,o),
(1076,598,o),
(1127,722,c),
(1221,346,o),
(1707,458,o),
(1583,744,c),
(1490,610,o),
(1350,763,o),
(1383,889,cs),
(1414,1004,o),
(1614,1096,o),
(1911,609,c),
(1779,986,l),
(1127,1735,o),
(610,757,o),
(267,917,c),
(101,751,o),
(516,478,o),
(828,772,c),
(774,644,o),
(787,543,o),
(871,493,c)
);
},
{
attr = {
lineCapEnd = "1";
lineCapStart = "1";
strokeWidth = 20;
};
closed = 0;
nodes = (
(2732,384,l),
(2642,431,o),
(2577,409,o),
(2544,347,c),
(2482,357,o),
(2433,335,o),
(2388,283,c),
(2225,400,o),
(2336,712,o),
(2554,547,c),
(2806,743,o),
(2615,1021,o),
(2336,1021,c),
(2296,1188,o),
(2182,1243,o),
(2038,1230,c),
(1907,1608,o),
(1373,1631,o),
(1209,1350,c),
(797,1327,o),
(412,743,o),
(270,1035,c),
(39,853,o),
(239,443,o),
(716,611,c),
(610,582,o),
(508,540,o),
(437,457,c),
(346,470,o),
(262,429,o),
(251,331,c),
(85,304,o),
(20,225,o),
(20,115,cs),
(20,5,o),
(85,-74,o),
(251,-101,c),
(262,-199,o),
(346,-240,o),
(437,-227,c),
(508,-310,o),
(610,-352,o),
(716,-381,c),
(239,-213,o),
(39,-623,o),
(270,-805,c),
(412,-513,o),
(797,-1097,o),
(1209,-1120,c),
(1373,-1401,o),
(1907,-1378,o),
(2038,-1000,c),
(2182,-1013,o),
(2296,-958,o),
(2336,-791,c),
(2615,-791,o),
(2806,-513,o),
(2554,-317,c),
(2336,-482,o),
(2225,-170,o),
(2388,-53,c),
(2433,-105,o),
(2482,-127,o),
(2544,-117,c),
(2577,-179,o),
(2642,-201,o),
(2732,-154,c)
);
},
{
closed = 1;
nodes = (
(1405,-1372,o),
(1994,-1232,o),
(1972,-891,c),
(2084,-997,o),
(2309,-915,o),
(2245,-719,c),
(2439,-815,o),
(2711,-576,o),
(2549,-385,c),
(2270,-537,o),
(2090,-83,o),
(2406,35,c),
(2364,168,l),
(2111,168,o),
(1978,-185,o),
(1839,-522,cs),
(1669,-934,o),
(1553,-1184,o),
(1258,-1114,c)
);
},
{
closed = 1;
nodes = (
(2406,194,l),
(2090,312,o),
(2270,766,o),
(2549,614,c),
(2711,805,o),
(2439,1044,o),
(2245,948,c),
(2309,1144,o),
(2084,1226,o),
(1972,1120,c),
(1994,1461,o),
(1405,1601,o),
(1258,1343,c),
(1553,1413,o),
(1669,1163,o),
(1839,751,cs),
(1978,414,o),
(2111,61,o),
(2364,61,c)
);
},
{
closed = 1;
nodes = (
(787,-316,o),
(774,-417,o),
(828,-545,c),
(516,-251,o),
(101,-524,o),
(267,-690,c),
(610,-530,o),
(1127,-1508,o),
(1779,-759,c),
(1911,-382,l),
(1614,-869,o),
(1414,-777,o),
(1383,-662,cs),
(1350,-536,o),
(1490,-383,o),
(1583,-517,c),
(1707,-231,o),
(1221,-119,o),
(1127,-495,c),
(1076,-371,o),
(995,-266,o),
(871,-266,c)
);
}
);
width = 2842;
}
);
metricLeft = "=20";
unicode = 128600;
}
{
glyphname = _ayah.005.1;
layers = (
{
layerId = m01;
shapes = (
{
closed = 1;
nodes = (
(439,26,o),
(458,25,o),
(467,41,cs),
(477,58,o),
(476,97,o),
(476,113,cs),
(476,131,o),
(476,149,o),
(475,163,c),
(717,163,l),
(752,203,l),
(676,214,o),
(660,226,o),
(626,280,c),
(621,266,o),
(614,254,o),
(608,243,c),
(601,260,o),
(589,269,o),
(570,269,cs),
(553,269,o),
(538,264,o),
(529,249,c),
(525,277,l),
(510,252,o),
(505,242,o),
(492,229,c),
(488,245,o),
(485,264,o),
(483,269,c),
(469,235,o),
(465,229,o),
(451,221,c),
(442,228,o),
(429,235,o),
(415,235,c),
(412,213,o),
(382,197,o),
(365,189,c),
(414,179,o),
(424,173,o),
(432,162,c),
(440,146,o),
(440,96,o),
(439,74,c),
(420,74,o),
(409,78,o),
(399,84,c),
(385,60,o),
(365,49,o),
(361,51,c),
(372,36,o),
(394,28,o),
(415,27,cs)
);
}
);
width = 1117;
}
);
}
{
glyphname = _ayah.010.1;
layers = (
{
layerId = m01;
shapes = (
{
closed = 1;
nodes = (
(187,-40,o),
(188,-16,o),
(188,-4,c),
(275,-7,o),
(416,-6,o),
(457,-1,c),
(514,51,l),
(454,39,o),
(353,68,o),
(374,110,cs),
(380,123,o),
(390,138,o),
(398,149,c),
(390,157,l),
(370,139,o),
(337,110,o),
(327,98,cs),
(323,94,o),
(321,89,o),
(320,85,c),
(315,104,o),
(315,123,o),
(311,130,c),
(307,119,o),
(280,84,o),
(265,77,c),
(259,94,o),
(254,114,o),
(252,120,c),
(236,96,o),
(228,82,o),
(213,70,c),
(205,89,o),
(199,112,o),
(196,117,c),
(183,96,o),
(169,80,o),
(153,70,c),
(145,79,o),
(133,89,o),
(121,95,c),
(116,89,o),
(55,22,o),
(44,21,c),
(50,16,l),
(40,21,l),
(24,4,o),
(11,-11,o),
(-9,-17,c),
(26,-61,o),
(131,-55,o),
(160,-47,cs)
);
}
);
width = 505;
}
);
metricLeft = "=-9";
metricRight = "=-9";
}
{
glyphname = _ayah.040;
layers = (
{
layerId = m01;
shapes = (
{
closed = 1;
nodes = (
(180,-39,o),
(193,-26,o),
(193,0,c),
(287,0,ls),
(302,0,o),
(315,17,o),
(315,32,cs),
(315,73,o),
(313,113,o),
(311,155,c),
(298,142,o),
(285,128,o),
(268,116,c),
(270,94,o),
(272,73,o),
(272,51,c),
(266,51,l),
(266,85,o),
(261,136,o),
(249,156,c),
(238,138,o),
(225,125,o),
(210,115,c),
(227,95,l),
(223,91,l),
(192,127,l),
(180,106,o),
(179,106,o),
(163,87,c),
(177,71,o),
(194,53,o),
(210,37,c),
(206,33,l),
(192,46,o),
(164,76,o),
(158,84,cs),
(144,102,o),
(130,115,o),
(102,115,cs),
(64,115,o),
(41,81,o),
(41,55,cs),
(41,3,o),
(83,-4,o),
(140,0,c),
(141,-5,l),
(129,-7,o),
(72,-14,o),
(45,14,c),
(38,5,o),
(18,-9,o),
(0,-15,c),
(28,-65,o),
(134,-53,o),
(157,-46,cs)
);
},
{
closed = 1;
nodes = (
(105,45,o),
(104,48,o),
(104,50,cs),
(104,53,o),
(105,56,o),
(110,56,cs),
(115,56,o),
(116,53,o),
(116,50,cs),
(116,48,o),
(115,45,o),
(110,45,cs)
);
}
);
width = 315;
}
);
metricLeft = "=0";
metricRight = "=0";
}
{
glyphname = _ayah.050;
layers = (
{
layerId = m01;
shapes = (
{
closed = 1;
nodes = (
(178,-57,o),
(188,-40,o),
(188,-11,c),
(205,-11,o),
(580,-11,o),
(597,-8,c),
(607,2,o),
(621,18,o),
(633,33,c),
(533,48,o),
(507,75,o),
(471,132,c),
(464,113,o),
(457,98,o),
(449,84,c),
(453,69,o),
(456,56,o),
(456,44,c),
(449,44,l),
(442,100,o),
(429,124,o),
(389,124,cs),
(357,124,o),
(328,107,o),
(325,44,c),
(320,44,l),
(320,56,o),
(321,75,o),
(328,90,c),
(321,116,l),
(307,90,o),
(296,77,o),
(285,68,c),
(287,58,o),
(292,50,o),
(295,46,c),
(290,42,l),
(277,59,o),
(272,88,o),
(269,108,c),
(262,82,o),
(248,67,o),
(233,57,c),
(237,47,o),
(240,42,o),
(244,37,c),
(239,33,l),
(226,49,o),
(217,67,o),
(216,103,c),
(199,80,o),
(187,70,o),
(174,61,c),
(178,54,o),
(186,42,o),
(190,35,c),
(185,31,l),
(160,68,o),
(152,98,o),
(107,98,cs),
(73,98,o),
(51,73,o),
(51,40,cs),
(51,-5,o),
(82,-19,o),
(144,-14,c),
(145,-19,l),
(101,-24,o),
(75,-19,o),
(48,2,c),
(43,-6,o),
(22,-25,o),
(0,-31,c),
(21,-87,o),
(132,-73,o),
(158,-64,cs)
);
},
{
closed = 1;
nodes = (
(107,34,o),
(104,37,o),
(104,40,cs),
(104,44,o),
(107,47,o),
(111,47,cs),
(115,47,o),
(118,44,o),
(118,40,cs),
(118,36,o),
(114,34,o),
(111,34,cs)
);
},
{
closed = 1;
nodes = (
(387,62,o),
(384,64,o),
(384,67,cs),
(384,70,o),
(386,73,o),
(390,73,cs),
(394,73,o),
(395,70,o),
(395,67,cs),
(395,64,o),
(393,62,o),
(390,62,cs)
);
}
);
width = 633;
}
);
metricLeft = "=0";
metricRight = "=0";
}
{
glyphname = _ayah.060;
layers = (
{
layerId = m01;
shapes = (
{
closed = 1;
nodes = (
(164,-44,o),
(177,-31,o),
(177,0,c),
(293,-1,ls),
(335,-1,o),
(342,13,o),
(342,28,cs),
(344,56,o),
(336,115,o),
(327,142,c),
(317,126,o),
(314,119,o),
(299,104,c),
(302,92,o),
(306,67,o),
(308,55,c),
(304,55,l),
(300,78,o),
(297,99,o),
(288,118,c),
(279,104,o),
(267,91,o),
(259,84,c),
(269,62,l),
(265,60,l),
(240,108,l),
(231,98,o),
(219,84,o),
(211,73,c),
(214,47,l),
(210,46,l),
(192,141,l),
(179,124,o),
(175,120,o),
(159,104,c),
(171,47,l),
(167,45,l),
(157,85,o),
(145,109,o),
(100,109,cs),
(64,109,o),
(41,77,o),
(41,53,cs),
(41,1,o),
(82,-5,o),
(137,0,c),
(139,-4,l),
(100,-9,o),
(71,-8,o),
(43,14,c),
(35,-1,o),
(12,-14,o),
(0,-16,c),
(30,-58,o),
(113,-55,o),
(140,-49,cs)
);
},
{
closed = 1;
nodes = (
(104,42,o),
(102,44,o),
(102,48,cs),
(102,50,o),
(104,54,o),
(108,54,cs),
(112,54,o),
(114,50,o),
(114,48,cs),
(114,44,o),
(111,42,o),
(108,42,cs)
);
}
);
width = 342;
}
);
metricLeft = "=0";
metricRight = "=0";
}
{
glyphname = _ayah.070;
layers = (
{
layerId = m01;
shapes = (
{
closed = 1;
nodes = (
(180,-39,o),
(193,-26,o),
(193,0,c),
(392,-1,ls),
(434,-1,o),
(441,13,o),
(441,28,cs),
(443,56,o),
(435,115,o),
(426,142,c),
(416,126,o),
(413,119,o),
(398,104,c),
(401,92,o),
(405,67,o),
(407,55,c),
(403,55,l),
(399,78,o),
(396,99,o),
(387,118,c),
(378,104,o),
(366,91,o),
(358,84,c),
(368,62,l),
(364,60,l),
(339,108,l),
(330,98,o),
(318,84,o),
(310,73,c),
(313,47,l),
(309,46,l),
(297,141,l),
(284,124,o),
(280,120,o),
(264,104,c),
(270,47,l),
(266,45,l),
(260,81,o),
(258,131,o),
(246,156,c),
(235,138,o),
(222,125,o),
(207,115,c),
(224,95,l),
(220,91,l),
(189,127,l),
(177,106,o),
(176,106,o),
(160,87,c),
(174,71,o),
(191,53,o),
(207,37,c),
(203,33,l),
(189,46,o),
(161,76,o),
(155,84,cs),
(141,102,o),
(127,115,o),
(99,115,cs),
(61,115,o),
(38,81,o),
(38,55,cs),
(38,3,o),
(83,-4,o),
(140,0,c),
(141,-5,l),
(129,-7,o),
(72,-14,o),
(45,14,c),
(38,5,o),
(18,-9,o),
(0,-15,c),
(28,-65,o),
(134,-53,o),
(157,-46,cs)
);
},
{
closed = 1;
nodes = (
(102,45,o),
(101,48,o),
(101,50,cs),
(101,53,o),
(102,56,o),
(107,56,cs),
(112,56,o),
(113,53,o),
(113,50,cs),
(113,48,o),
(112,45,o),
(107,45,cs)
);
}
);
width = 441;
}
);
metricLeft = "=0";
metricRight = "=0";
}
{
glyphname = _ayah.080;
layers = (
{
layerId = m01;
shapes = (
{
closed = 1;
nodes = (
(165,-43,o),
(176,-29,o),
(176,0,c),
(376,0,ls),
(392,0,o),
(406,15,o),
(406,29,cs),
(405,69,o),
(403,108,o),
(400,153,c),
(392,141,o),
(369,119,o),
(358,111,c),
(359,104,o),
(362,63,o),
(362,43,c),
(357,43,l),
(357,100,o),
(324,140,o),
(288,140,cs),
(252,140,o),
(212,106,o),
(212,43,c),
(208,43,l),
(203,141,l),
(191,129,o),
(178,116,o),
(167,106,c),
(168,94,o),
(170,63,o),
(170,43,c),
(166,43,l),
(157,88,o),
(140,109,o),
(99,109,cs),
(63,109,o),
(40,77,o),
(40,53,cs),
(40,1,o),
(82,-5,o),
(137,0,c),
(139,-5,l),
(92,-11,o),
(59,-5,o),
(42,14,c),
(37,5,o),
(16,-8,o),
(0,-14,c),
(22,-63,o),
(122,-54,o),
(143,-48,cs)
);
},
{
closed = 1;
nodes = (
(103,42,o),
(101,44,o),
(101,48,cs),
(101,50,o),
(103,54,o),
(107,54,cs),
(109,54,o),
(113,50,o),
(113,48,cs),
(113,44,o),
(109,42,o),
(107,42,cs)
);
},
{
closed = 1;
nodes = (
(287,67,o),
(285,69,o),
(285,72,cs),
(285,74,o),
(287,77,o),
(290,77,cs),
(292,77,o),
(295,74,o),
(295,72,cs),
(295,69,o),
(292,67,o),
(290,67,cs)
);
}
);
width = 406;
},
{
associatedMasterId = m01;
layerId = "A750BCAD-CD3D-46E8-900D-BCA88ECFE444";
name = "24 Jun 23 at 22:18";
shapes = (
{
closed = 1;
nodes = (
(101,42,o),
(99,44,o),
(99,48,cs),
(99,50,o),
(101,54,o),
(105,54,cs),
(107,54,o),
(111,50,o),
(111,48,cs),
(111,44,o),
(107,42,o),
(105,42,cs)
);
},
{
closed = 1;
nodes = (
(202,132,ls),
(202,139,o),
(196,139,o),
(193,136,cs),
(180,119,o),
(180,120,o),
(171,111,cs),
(167,107,o),
(165,106,o),
(165,102,cs),
(166,90,o),
(168,66,o),
(168,47,cs),
(168,44,o),
(165,43,o),
(164,47,cs),
(154,88,o),
(138,109,o),
(97,109,cs),
(61,109,o),
(38,77,o),
(38,53,cs),
(38,1,o),
(77,-5,o),
(132,0,cs),
(137,0,o),
(138,-5,o),
(132,-5,cs),
(121,-5,o),
(77,-13,o),
(49,8,cs),
(45,11,o),
(41,16,o),
(38,12,cs),
(33,3,o),
(14,-13,o),
(6,-13,cs),
(2,-13,o),
(-3,-16,o),
(2,-22,cs),
(17,-43,o),
(31,-53,o),
(87,-53,cs),
(144,-53,o),
(174,-48,o),
(174,0,c),
(374,0,ls),
(390,0,o),
(404,15,o),
(404,29,cs),
(403,69,o),
(398,105,o),
(398,145,cs),
(398,149,o),
(395,150,o),
(392,146,cs),
(384,134,o),
(373,122,o),
(362,114,c),
(356,111,o),
(357,104,o),
(358,92,cs),
(359,78,o),
(360,66,o),
(360,44,cs),
(360,40,o),
(356,40,o),
(356,44,cs),
(356,103,o),
(322,140,o),
(286,140,cs),
(250,140,o),
(210,109,o),
(210,45,cs),
(210,41,o),
(206,41,o),
(206,45,cs)
);
},
{
closed = 1;
nodes = (
(285,67,o),
(283,69,o),
(283,72,cs),
(283,74,o),
(285,77,o),
(288,77,cs),
(290,77,o),
(293,74,o),
(293,72,cs),
(293,69,o),
(290,67,o),
(288,67,cs)
);
}
);
visible = 1;
width = 404;
}
);
metricLeft = "=0";
metricRight = "=0";
}
{
glyphname = _ayah.100.1;
layers = (
{
layerId = m01;
shapes = (
{
closed = 1;
nodes = (
(120,-5,ls),
(139,-5,o),
(149,2,o),
(154,12,c),
(157,2,o),
(166,-5,o),
(184,-5,cs),
(270,-5,ls),
(314,-5,o),
(326,8,o),
(326,32,cs),
(326,73,o),
(300,114,o),
(267,114,cs),
(243,114,o),
(213,97,o),
(202,68,c),
(200,124,o),
(195,287,o),
(194,298,c),
(179,274,o),
(159,258,o),
(143,244,c),
(145,224,o),
(147,202,o),
(148,180,c),
(134,162,o),
(119,146,o),
(105,133,c),
(103,151,o),
(99,167,o),
(95,183,c),
(94,179,o),
(72,150,o),
(47,131,c),
(49,115,l),
(16,104,o),
(-5,74,o),
(-5,48,cs),
(-5,19,o),
(18,-5,o),
(70,-5,cs)
);
}
);
width = 321;
}
);
metricLeft = "=-5";
metricRight = "=-5";
}
{
glyphname = _ayah.alef;
layers = (
{
layerId = m01;
shapes = (
{
closed = 1;
nodes = (
(152,-17,o),
(196,18,o),
(213,60,c),
(175,30,o),
(57,14,o),
(44,88,cs),
(36,133,o),
(40,197,o),
(38,232,c),
(29,217,o),
(16,200,o),
(0,189,c),
(2,152,o),
(5,115,o),
(5,78,cs),
(5,23,o),
(33,-15,o),
(92,-16,cs)
);
}
);
width = 213;
},
{
associatedMasterId = m01;
layerId = "79BF7737-FF2F-4EB2-80FC-51C8CDECAE15";
name = "24 Jun 23 at 20:13";
shapes = (
{
closed = 1;
nodes = (
(159,-17,o),
(191,7,o),
(210,52,cs),
(212,56,o),
(208,59,o),
(204,56,cs),
(174,35,o),
(124,34,o),
(97,38,cs),
(66,43,o),
(54,55,o),
(44,88,cs),
(33,126,o),
(42,165,o),
(40,218,cs),
(40,229,o),
(34,228,o),
(31,222,cs),
(26,211,o),
(10,196,o),
(5,193,cs),
(-3,188,o),
(1,180,o),
(1,167,cs),
(4,124,o),
(4,112,o),
(5,78,cs),
(5,23,o),
(33,-16,o),
(92,-16,cs)
);
}
);
visible = 1;
width = 211;
}
);
metricLeft = "=0";
metricRight = "=0";
}
{
glyphname = _ayah.decoration0;
layers = (
{
layerId = m01;
shapes = (
{
closed = 1;
nodes = (
(117,20,l),
(73,21,o),
(30,39,o),
(22,70,cs),
(14,96,o),
(25,119,o),
(51,124,cs),
(79,129,o),
(110,100,o),
(94,77,c),
(85,77,ls),
(79,77,o),
(73,71,o),
(75,65,c),
(75,60,o),
(80,57,o),
(84,56,c),
(124,56,o),
(164,50,o),
(189,71,cs),
(216,94,o),
(215,125,o),
(200,148,cs),
(186,168,o),
(160,179,o),
(131,170,cs),
(113,165,o),
(99,150,o),
(94,132,c),
(81,141,o),
(65,146,o),
(47,143,cs),
(8,136,o),
(-7,100,o),
(3,64,cs),
(14,24,o),
(55,1,o),
(117,-1,c)
);
},
{
closed = 1;
nodes = (
(117,85,o),
(117,93,o),
(115,101,cs),
(108,127,o),
(122,143,o),
(138,149,cs),
(159,158,o),
(178,148,o),
(186,132,cs),
(193,118,o),
(192,100,o),
(176,87,cs),
(163,76,o),
(141,76,o),
(115,76,c)
);
}
);
width = 210;
}
);
metricLeft = "=0";
metricRight = "=0";
}
{
glyphname = _ayah.decoration1.1;
layers = (
{
layerId = m01;
shapes = (
{
attr = {
fillColor = (128,255);
};
closed = 1;
nodes = (
(195,-37,o),
(199,-27,o),
(199,-16,cs),
(199,5,o),
(183,21,o),
(162,21,cs),
(140,21,o),
(124,5,o),
(124,-16,cs),
(124,-51,o),
(153,-87,o),
(212,-82,c),
(202,-43,l),
(196,-44,o),
(192,-44,o),
(188,-44,c)
);
}
);
width = 350;
}
);
}
{
glyphname = _ayah.ring0;
layers = (
{
layerId = m01;
shapes = (
{
closed = 1;
nodes = (
(-272,-20,o),
(-176,76,o),
(-176,195,cs),
(-176,313,o),
(-272,409,o),
(-391,409,cs),
(-509,409,o),
(-605,313,o),
(-605,195,cs),
(-605,76,o),
(-509,-20,o),
(-391,-20,cs)
);
},
{
closed = 1;
nodes = (
(-493,10,o),
(-575,92,o),
(-575,195,cs),
(-575,297,o),
(-493,379,o),
(-391,379,cs),
(-288,379,o),
(-206,297,o),
(-206,195,cs),
(-206,92,o),
(-288,10,o),
(-391,10,cs)
);
}
);
width = 100;
}
);
}
{
glyphname = _ayah.sajdah.1;
layers = (
{
layerId = m01;
shapes = (
{
closed = 1;
nodes = (
(184,-147,o),
(202,-143,o),
(202,-125,cs),
(202,-105,o),
(200,-59,o),
(192,-4,c),
(156,-42,l),
(157,-51,l),
(131,-58,o),
(104,-76,o),
(104,-106,cs),
(104,-141,o),
(145,-150,o),
(165,-148,cs)
);
},
{
closed = 1;
nodes = (
(-1,-1,o),
(12,-4,o),
(37,-4,cs),
(303,-4,l),
(345,33,l),
(304,33,l),
(315,36,o),
(321,43,o),
(320,51,cs),
(308,129,l),
(280,98,l),
(277,113,l),
(251,86,l),
(246,104,l),
(215,76,l),
(216,72,l),
(207,83,l),
(181,52,l),
(176,57,ls),
(173,61,o),
(169,67,o),
(161,67,cs),
(58,67,l),
(70,93,l),
(60,98,l),
(19,40,l),
(18,37,l),
(-5,6,l)
);
}
);
width = 334;
}
);
metricLeft = "=-5";
metricRight = "=-11";
}
{
glyphname = _ayah.sajdah;
layers = (
{
layerId = m01;
shapes = (
{
closed = 1;
nodes = (
(305,34,o),
(317,41,o),
(316,50,cs),
(305,120,l),
(282,94,l),
(287,67,l),
(283,67,l),
(275,105,l),
(252,82,l),
(256,67,l),
(252,67,l),
(244,97,l),
(220,75,l),
(225,60,l),
(221,60,l),
(207,77,l),
(184,50,l),
(201,29,l),
(195,29,l),
(173,55,ls),
(170,59,o),
(167,63,o),
(161,63,cs),
(52,63,l),
(65,91,l),
(61,93,l),
(23,38,l),
(23,36,o),
(35,34,o),
(44,34,cs),
(150,34,l),
(154,29,l),
(44,29,ls),
(35,29,o),
(27,29,o),
(19,32,c),
(0,6,l),
(5,2,o),
(16,0,o),
(37,0,cs),
(301,0,l),
(334,29,l),
(247,29,l),
(242,34,l),
(278,34,ls)
);
},
{
closed = 1;
nodes = (
(183,-143,o),
(198,-140,o),
(198,-125,cs),
(198,-106,o),
(196,-64,o),
(189,-13,c),
(160,-43,l),
(162,-54,l),
(135,-60,o),
(108,-77,o),
(108,-106,cs),
(108,-138,o),
(145,-146,o),
(165,-144,cs)
);
},
{
closed = 1;
nodes = (
(165,-92,o),
(163,-91,o),
(163,-89,cs),
(163,-88,o),
(165,-86,o),
(166,-86,cs),
(168,-86,o),
(169,-88,o),
(169,-89,cs),
(169,-91,o),
(168,-92,o),
(166,-92,cs)
);
}
);
width = 334;
}
);
metricLeft = "=0";
metricRight = "=0";
}
{
glyphname = _c.ain.init.beh;
kernLeft = ain.beh;
layers = (
{
anchors = (
{
name = entry;
pos = (95,0);
},
{
name = exit;
}
);
attr = {
colorPalette = 4;
};
layerId = m01;
shapes = (
{
closed = 1;
nodes = (
(-10,0,l),
(95,0,l),
(95,110,l),
(43,110,o),
(1,152,o),
(-6,223,c),
(-24,223,l)
);
}
);
width = 95;
},
{
anchors = (
{
name = entry;
pos = (95,0);
},
{
name = exit;
}
);
associatedMasterId = m01;
attr = {
colorPalette = 1;
};
layerId = "3AAF0A65-77CF-4D86-BF7E-217FCB6BFAB0";
name = "9 Jan 24 at 20:03";
shapes = (
{
closed = 1;
nodes = (
(-27,223,l),
(-11,10,l),
(95,10,l),
(95,100,l),
(39,100,o),
(-8,144,o),
(-16,223,c)
);
}
);
width = 95;
}
);
metricLeft = "=-24";
metricRight = "=0";
}
{
glyphname = _c.ain.medi.beh;
kernLeft = ain.beh;
layers = (
{
anchors = (
{
name = entry;
pos = (66,0);
},
{
name = exit;
}
);
attr = {
colorPalette = 4;
};
layerId = m01;
shapes = (
{
closed = 1;
nodes = (
(118,0,l),
(118,123,l),
(74,123,o),
(-7,152,o),
(-7,250,c),
(-24,250,l),
(-24,0,l)
);
}
);
width = 66;
},
{
associatedMasterId = m01;
attr = {
colorPalette = 1;
};
layerId = "9DB72D40-AB96-4709-8E34-2B661363A7B8";
name = "Regular 10 Jan 24 at 12:02";
shapes = (
{
closed = 1;
nodes = (
(140,10,l),
(140,111,l),
(80,112,o),
(-17,132,o),
(-17,250,c),
(-26,250,l),
(-26,10,l)
);
}
);
width = 66;
}
);
metricLeft = "=-24";
metricRight = "=-52";
}
{
glyphname = _c.ain.medi.reh;
layers = (
{
anchors = (
{
name = entry;
pos = (7,0);
},
{
name = exit;
}
);
layerId = m01;
shapes = (
{
closed = 1;
nodes = (
(34,0,l),
(34,109,l),
(4,138,o),
(-21,163,o),
(-50,191,c),
(-60,191,l),
(-10,0,l)
);
}
);
width = 7;
}
);
metricLeft = "=-60";
metricRight = "=-27";
}
{
glyphname = _c.ain.yeh;
layers = (
{
anchors = (
{
name = entry;
pos = (15,0);
},
{
name = exit;
}
);
layerId = m01;
shapes = (
{
closed = 1;
nodes = (
(67,0,l),
(67,110,l),
(36,110,o),
(-10,135,o),
(-40,177,c),
(-58,177,l),
(-5,0,l)
);
}
);
width = 15;
}
);
metricLeft = "=-58";
metricRight = "=-52";
}
{
glyphname = _c.feh.init.beh;
kernLeft = feh.init.beh;
layers = (
{
anchors = (
{
name = entry;
pos = (174,0);
},
{
name = exit;
}
);
layerId = m01;
shapes = (
{
closed = 1;
nodes = (
(47,0,l),
(174,110,l),
(60,108,o),
(-4,164,o),
(-7,264,c),
(-23,264,l),
(-23,0,l)
);
}
);
width = 174;
}
);
metricLeft = "=-23";
metricRight = "=0";
}
{
glyphname = _c.feh.init.dal;
layers = (
{
anchors = (
{
name = entry;
pos = (137,0);
},
{
name = exit;
}
);
layerId = m01;
shapes = (
{
closed = 1;
nodes = (
(10,0,l),
(137,110,l),
(51,109,o),
(-7,140,o),
(-31,199,c),
(-60,199,l),
(-60,0,l)
);
}
);
width = 137;
}
);
metricLeft = "=-60";
metricRight = "=0";
}
{
glyphname = _c.feh.medi.dal;
layers = (
{
anchors = (
{
name = entry;
pos = (71,0);
},
{
name = exit;
}
);
layerId = m01;
shapes = (
{
closed = 1;
nodes = (
(71,0,l),
(71,104,l),
(32,134,o),
(-4,169,o),
(-32,212,cs),
(-39,222,o),
(-43,229,o),
(-47,234,c),
(-60,234,l),
(-60,0,l)
);
}
);
width = 71;
}
);
metricLeft = "=-60";
metricRight = "=0";
}
{
glyphname = _c.feh.medi.reh;
layers = (
{
anchors = (
{
name = entry;
pos = (47,0);
},
{
name = exit;
}
);
layerId = m01;
shapes = (
{
closed = 1;
nodes = (
(47,0,l),
(47,110,l),
(30,109,o),
(14,119,o),
(1,134,c),
(-10,134,l),
(-10,0,l)
);
}
);
width = 47;
}
);
metricRight = "=0";
}
{
glyphname = _c.hah.dal;
layers = (
{
anchors = (
{
name = entry;
pos = (71,0);
},
{
name = exit;
}
);
layerId = m01;
shapes = (
{
closed = 1;
nodes = (
(71,10,l),
(71,104,l),
(32,134,o),
(-4,169,o),
(-32,212,cs),
(-47,233,o),
(-50,242,o),
(-65,244,c),
(-65,10,l)
);
}
);
width = 71;
}
);
metricRight = "=0";
}
{
glyphname = _c.hah.noon;
layers = (
{
anchors = (
{
name = entry;
pos = (-20,0);
},
{
name = exit;
}
);
layerId = m01;
shapes = (
{
closed = 1;
nodes = (
(70,26,l),
(70,110,l),
(1,116,o),
(-23,141,o),
(-70,174,c),
(-42,26,l)
);
}
);
width = 0;
}
);
}
{
glyphname = _c.hah.reh;
layers = (
{
anchors = (
{
name = entry;
pos = (111,0);
},
{
name = exit;
}
);
layerId = m01;
shapes = (
{
closed = 1;
nodes = (
(111,59,l),
(111,104,l),
(42,110,o),
(20,128,o),
(-21,171,c),
(-32,171,l),
(-32,0,l)
);
}
);
width = 111;
}
);
metricRight = "=0";
}
{
glyphname = _c.seen.beh;
layers = (
{
anchors = (
{
name = entry;
},
{
name = exit;
}
);
layerId = m01;
shapes = (
{
closed = 1;
nodes = (
(22,136,o),
(-4,153,o),
(-5,202,c),
(-24,202,l),
(-24,45,l),
(41,45,l),
(41,130,l)
);
}
);
width = 0;
}
);
metricLeft = "=-24";
}
{
glyphname = _c.seen.meem;
layers = (
{
anchors = (
{
name = entry;
pos = (16,0);
},
{
name = exit;
}
);
layerId = m01;
shapes = (
{
closed = 1;
nodes = (
(16,45,l),
(16,132,l),
(6,136,o),
(-14,152,o),
(-22,177,c),
(-40,177,l),
(-40,45,l)
);
}
);
width = 16;
}
);
metricRight = "=0";
}
{
glyphname = _dot.circle;
layers = (
{
layerId = m01;
name = Regular;
shapes = (
{
closed = 1;
nodes = (
(108,14,o),
(136,43,o),
(136,75,cs),
(136,108,o),
(108,136,o),
(75,136,cs),
(43,136,o),
(14,108,o),
(14,75,cs),
(14,43,o),
(43,14,o),
(75,14,cs)
);
},
{
closed = 1;
nodes = (
(47,24,o),
(24,47,o),
(24,75,cs),
(24,104,o),
(47,126,o),
(75,126,cs),
(104,126,o),
(126,104,o),
(126,75,cs),
(126,47,o),
(104,24,o),
(75,24,cs)
);
}
);
width = 150;
}
);
metricLeft = "=14";
metricRight = "=14";
}
{
glyphname = _dotabove;
layers = (
{
layerId = m01;
shapes = (
{
closed = 1;
nodes = (
(14,9,l),
(51,38,o),
(82,69,o),
(109,105,c),
(94,118,l),
(66,83,o),
(37,50,o),
(2,25,c)
);
}
);
width = 110;
}
);
metricLeft = "=6";
metricRight = "=4";
}
{
category = Separator;
glyphname = .notdef;
layers = (
{
layerId = m01;
shapes = (
{
closed = 1;
nodes = (
(391,0,l),
(391,625,l),
(49,625,l),
(49,0,l)
);
},
{
closed = 1;
nodes = (
(98,576,l),
(342,576,l),
(342,49,l),
(98,49,l)
);
},
{
closed = 1;
nodes = (
(122,49,l),
(366,576,l),
(318,576,l),
(73,49,l)
);
},
{
closed = 1;
nodes = (
(318,49,l),
(366,49,l),
(122,576,l),
(73,576,l)
);
}
);
width = 440;
}
);
}
{
color = 9;
glyphname = _p.dal;
layers = (
{
layerId = m01;
shapes = (
{
closed = 1;
nodes = (
(137,-1,o),
(274,-4,o),
(393,0,c),
(393,110,l),
(340,110,l),
(0,-1,l)
);
}
);
width = 393;
},
{
associatedMasterId = m01;
attr = {
colorPalette = 4;
};
layerId = "F4A4ADF7-2797-46A4-BAC2-DC89C7B27858";
name = "8 Feb 24 at 23:29";
shapes = (
{
closed = 1;
nodes = (
(137,-1,o),
(274,-4,o),
(393,0,c),
(393,110,l),
(340,110,l),
(0,-1,l)
);
}
);
width = 393;
},
{
associatedMasterId = m01;
attr = {
colorPalette = 1;
};
layerId = "7E9D0214-9BB4-4537-92F0-3260D813072B";
name = "Color 4 8 Feb 24 at 23:29";
shapes = (
{
closed = 1;
nodes = (
(179,8,o),
(293,7,o),
(393,10,c),
(393,100,l),
(342,100,l),
(62,9,l)
);
}
);
width = 393;
},
{
associatedMasterId = m01;
attr = {
coordinates = (
100
);
};
layerId = "213AD99B-3926-48C8-BC16-6408E3DB0B4D";
name = "{100} 8 Feb 24 at 23:32";
shapes = (
{
closed = 1;
nodes = (
(137,-1,o),
(274,-1,o),
(393,0,c),
(393,110,l),
(340,110,l),
(0,-1,l)
);
}
);
width = 393;
},
{
associatedMasterId = m01;
attr = {
colorPalette = 4;
coordinates = (
100
);
};
layerId = "02C6D0D6-C58B-4543-BCD2-3DD5B09D733C";
name = "Color 4 {100} 8 Feb 24 at 23:33";
shapes = (
{
closed = 1;
nodes = (
(137,-1,o),
(274,-1,o),
(393,0,c),
(393,110,l),
(340,110,l),
(0,-1,l)
);
}
);
width = 393;
},
{
associatedMasterId = m01;
attr = {
colorPalette = 1;
coordinates = (
100
);
};
layerId = "B7198512-ACC9-4997-BBCE-B89F3F46B128";
name = "16 May 23 at 17:24";
shapes = (
{
closed = 1;
nodes = (
(178,10,o),
(293,9,o),
(393,10,c),
(393,100,l),
(342,100,l),
(64,11,l)
);
}
);
width = 393;
},
{
associatedMasterId = m01;
attr = {
coordinates = (
0
);
};
layerId = "536617C6-D3D0-4096-8389-7EC87272664A";
metricLeft = "=200";
name = "{0} 8 Feb 24 at 23:32";
shapes = (
{
closed = 1;
nodes = (
(264,-1,o),
(329,-1,o),
(393,0,c),
(393,110,l),
(340,110,l),
(200,-1,l)
);
}
);
width = 393;
},
{
associatedMasterId = m01;
attr = {
colorPalette = 4;
coordinates = (
0
);
};
layerId = "F2A64662-A59B-4A5A-9249-90DBA4EE0BFD";
metricLeft = "=200";
name = "Color 4 {0} 8 Feb 24 at 23:34";
shapes = (
{
closed = 1;
nodes = (
(264,-1,o),
(329,-1,o),
(393,0,c),
(393,110,l),
(340,110,l),
(200,-1,l)
);
}
);
width = 393;
},
{
associatedMasterId = m01;
attr = {
colorPalette = 1;
coordinates = (
0
);
};
layerId = "F26A4821-776C-44AF-815D-A9B817B98379";
metricLeft = "=200";
name = "17 May 23 at 04:01";
shapes = (
{
closed = 1;
nodes = (
(283,8,o),
(338,9,o),
(393,10,c),
(393,100,l),
(344,100,l),
(229,9,l)
);
}
);
width = 393;
}
);
metricLeft = "=0";
metricRight = "=0";
}
{
glyphname = _p.heh;
layers = (
{
attr = {
colorPalette = 4;
};
layerId = m01;
shapes = (
{
closed = 1;
nodes = (
(220,0,l),
(220,110,l),
(-20,110,l),
(-20,0,l)
);
}
);
width = 220;
},
{
associatedMasterId = m01;
attr = {
colorPalette = 1;
};
layerId = "C56B7BA5-C5BD-4D7A-844A-189ED2A8F3AD";
metricLeft = "=-22";
metricRight = "=-2";
name = "Regular 14 Jan 24 at 00:34";
shapes = (
{
closed = 1;
nodes = (
(222,10,l),
(222,110,l),
(-22,110,l),
(-22,10,l)
);
}
);
width = 220;
}
);
metricLeft = "=-20";
metricRight = "=0";
}
{
glyphname = _p.lam;
layers = (
{
attr = {
colorPalette = 4;
};
layerId = m01;
shapes = (
{
closed = 1;
nodes = (
(100,0,l),
(100,110,l),
(-20,110,l),
(-20,0,l)
);
}
);
width = 100;
},
{
associatedMasterId = m01;
attr = {
colorPalette = 1;
};
layerId = "9BDC0B0C-2272-4149-96D3-3B16DA1CACAA";
name = "Regular 22 Aug 24 at 02:51";
shapes = (
{
closed = 1;
nodes = (
(100,10,l),
(100,100,l),
(-20,100,l),
(-20,10,l)
);
}
);
width = 100;
}
);
metricLeft = "=-20";
metricRight = "=0";
}
{
color = 9;
glyphname = _p.sad;
layers = (
{
layerId = m01;
shapes = (
{
closed = 1;
nodes = (
(401,0,l),
(401,110,l),
(343,110,l),
(0,0,l)
);
}
);
width = 401;
},
{
associatedMasterId = m01;
attr = {
colorPalette = 4;
};
layerId = "3000E652-B8B9-4BAF-B6FF-B27F18A6326A";
name = "20 Sep 24 at 22:39";
shapes = (
{
closed = 1;
nodes = (
(401,0,l),
(401,110,l),
(343,110,l),
(0,0,l)
);
}
);
width = 401;
},
{
associatedMasterId = m01;
attr = {
colorPalette = 1;
};
layerId = "E72DE158-BDD9-4F75-A03E-C59946FE88FF";
metricLeft = "=64";
metricRight = "=-10";
name = "20 Sep 24 at 22:39";
shapes = (
{
closed = 1;
nodes = (
(411,10,l),
(411,100,l),
(345,100,l),
(64,10,l)
);
}
);
width = 401;
},
{
associatedMasterId = m01;
attr = {
coordinates = (
100
);
};
layerId = "73FA2563-E591-4BDB-93F6-952BF9468359";
name = "{100} 20 Sep 24 at 22:39";
shapes = (
{
closed = 1;
nodes = (
(401,0,l),
(401,110,l),
(343,110,l),
(0,0,l)
);
}
);
width = 401;
},
{
associatedMasterId = m01;
attr = {
colorPalette = 4;
coordinates = (
100
);
};
layerId = "F6FEBD79-76E2-4209-8DE8-5053BC3B12D2";
name = "16 May 23 at 18:18";
shapes = (
{
closed = 1;
nodes = (
(401,0,l),
(401,110,l),
(343,110,l),
(0,0,l)
);
}
);
width = 401;
},
{
associatedMasterId = m01;
attr = {
colorPalette = 1;
coordinates = (
100
);
};
layerId = "A5F050DA-BF31-415A-853F-BEC4E30A77E2";
metricLeft = "=64";
metricRight = "=-10";
name = "20 Sep 24 at 22:39";
shapes = (
{
closed = 1;
nodes = (
(411,10,l),
(411,100,l),
(345,100,l),
(64,10,l)
);
}
);
width = 401;
},
{
associatedMasterId = m01;
attr = {
coordinates = (
0
);
};
layerId = "1D62A9B9-6FF3-4CAE-AEBB-D710A7B21B07";
metricLeft = "=200";
name = "17 May 23 at 13:08";
shapes = (
{
closed = 1;
nodes = (
(401,0,l),
(401,110,l),
(343,110,l),
(200,0,l)
);
}
);
width = 401;
},
{
associatedMasterId = m01;
attr = {
colorPalette = 4;
coordinates = (
0
);
};
layerId = "9D5E2237-7E07-4490-B6B5-C0A0AF83D309";
metricLeft = "=200";
name = "20 Sep 24 at 22:39";
shapes = (
{
closed = 1;
nodes = (
(401,0,l),
(401,110,l),
(343,110,l),
(200,0,l)
);
}
);
width = 401;
},
{
associatedMasterId = m01;
attr = {
colorPalette = 1;
coordinates = (
0
);
};
layerId = "70A75821-0DAC-4AC5-840F-3634DBB18664";
metricLeft = "=229";
metricRight = "=-10";
name = "20 Sep 24 at 22:39";
shapes = (
{
closed = 1;
nodes = (
(411,10,l),
(411,100,l),
(346,100,l),
(229,10,l)
);
}
);
width = 401;
}
);
metricLeft = "=0";
metricRight = "=0";
}
{
category = Letter;
glyphname = "ain-ar.fina";
kernRight = beh;
layers = (
{
anchors = (
{
name = damma;
pos = (-43,48);
},
{
name = entry;
pos = (262,0);
},
{
name = fatha;
pos = (228,407);
},
{
name = kasra;
pos = (335,-380);
},
{
name = top;
pos = (49,233);
}
);
attr = {
colorPalette = 4;
};
backgroundImage = {
alpha = 80;
angle = 0.4;
imagePath = "images/MS-ADD-01116-000-00032.jpg";
locked = 1;
pos = (-4963,-3653);
scale = (5,5);
};
layerId = m01;
shapes = (
{
closed = 1;
nodes = (
(443,-333,o),
(545,-288,o),
(610,-205,c),
(390,-274,o),
(140,-238,o),
(197,0,c),
(262,0,l),
(262,349,ls),
(262,364,o),
(251,365,o),
(243,352,cs),
(215,306,o),
(194,292,o),
(148,263,c),
(153,221,l),
(91,282,l),
(63,245,o),
(34,212,o),
(0,185,c),
(43,136,o),
(99,99,o),
(130,54,c),
(96,-51,o),
(79,-140,o),
(100,-207,cs),
(126,-286,o),
(214,-333,o),
(315,-333,cs)
);
}
);
width = 262;
},
{
associatedMasterId = m01;
attr = {
colorPalette = 1;
};
layerId = "4A13C025-CA23-4AB4-8668-26F35136886F";
metricLeft = "=16";
metricRight = "=10@120";
name = "Regular 10 Jan 24 at 12:14";
shapes = (
{
closed = 1;
nodes = (
(426,-323,o),
(517,-289,o),
(580,-224,c),
(360,-281,o),
(125,-232,o),
(189,10,c),
(267,10,l),
(267,110,l),
(252,110,l),
(252,347,l),
(223,301,o),
(202,285,o),
(159,258,c),
(162,234,o),
(163,213,o),
(164,195,c),
(139,222,o),
(111,248,o),
(91,268,c),
(62,230,o),
(39,206,o),
(16,186,c),
(72,128,o),
(115,96,o),
(141,55,c),
(140,51,ls),
(106,-53,o),
(89,-140,o),
(110,-204,cs),
(134,-278,o),
(218,-323,o),
(315,-323,cs)
);
}
);
width = 262;
}
);
metricLeft = "=0";
metricRight = "=0@120";
script = arabic;
sortName = arL0036;
}
{
glyphname = "ain-ar.init";
kernRight = hah.init;
layers = (
{
anchors = (
{
name = damma;
pos = (4,171);
},
{
name = exit;
},
{
name = fatha;
pos = (182,403);
},
{
name = kasra;
pos = (362,-54);
},
{
name = top;
pos = (90,304);
}
);
attr = {
colorPalette = 4;
};
backgroundImage = {
alpha = 80;
imagePath = "images/MS-ADD-01116-000-00032.jpg";
locked = 1;
pos = (-4098,-3629);
scale = (5,5);
};
layerId = m01;
shapes = (
{
closed = 1;
nodes = (
(218,-3,o),
(342,0,o),
(581,8,c),
(595,8,o),
(661,71,o),
(703,109,c),
(543,101,o),
(467,92,o),
(320,129,cs),
(184,162,o),
(95,230,o),
(123,277,c),
(184,368,l),
(171,377,l),
(25,234,l),
(-20,186,o),
(40,90,o),
(112,75,c),
(128,110,l),
(-20,110,l),
(-20,0,l)
);
}
);
width = 703;
},
{
associatedMasterId = m01;
attr = {
colorPalette = 1;
};
layerId = "6BD80C1A-D9BE-4D14-9FB6-47A2D1E26BD7";
name = "Regular 10 Jan 24 at 11:33";
shapes = (
{
closed = 1;
nodes = (
(217,7,o),
(341,10,o),
(581,18,cs),
(588,18,o),
(634,61,o),
(676,97,c),
(534,90,o),
(458,83,o),
(318,119,cs),
(177,153,o),
(81,226,o),
(115,282,c),
(170,363,l),
(32,227,ls),
(-6,189,o),
(44,105,o),
(106,87,c),
(112,100,l),
(-22,100,l),
(-22,11,l)
);
}
);
width = 703;
}
);
metricLeft = "=-20";
metricRight = "=0";
}
{
category = Letter;
glyphname = "ain-ar.init.hah";
layers = (
{
anchors = (
{
name = damma;
pos = (-16,166);
},
{
name = exit;
pos = (15,0);
},
{
name = fatha;
pos = (162,431);
},
{
name = kasra;
pos = (522,-59);
},
{
name = top;
pos = (45,318);
}
);
attr = {
colorPalette = 4;
};
backgroundImage = {
alpha = 80;
imagePath = "images/MS-ADD-01116-000-00032.jpg";
locked = 1;
pos = (-4098,-3629);
scale = (5,5);
};
layerId = m01;
shapes = (
{
closed = 1;
nodes = (
(494,0,l),
(519,9,o),
(576,61,o),
(616,98,c),
(586,95,o),
(552,94,o),
(522,94,cs),
(294,94,o),
(91,157,o),
(91,272,cs),
(91,313,o),
(117,361,o),
(177,415,cs),
(185,422,o),
(179,431,o),
(170,426,cs),
(89,381,o),
(-12,274,o),
(-12,184,cs),
(-12,137,o),
(15,96,o),
(87,70,c),
(115,105,l),
(73,97,o),
(35,82,o),
(-7,136,c),
(25,90,o),
(65,44,o),
(128,0,c)
);
}
);
width = 616;
},
{
anchors = (
{
name = exit;
pos = (15,0);
}
);
associatedMasterId = m01;
attr = {
colorPalette = 1;
};
layerId = "557BCE79-FFA5-4DDC-9046-8F8BD366475E";
metricRight = "=28";
name = "Regular 10 Jan 24 at 11:42";
shapes = (
{
closed = 1;
nodes = (
(492,9,l),
(512,17,o),
(552,52,o),
(588,85,c),
(566,83,o),
(543,83,o),
(522,83,cs),
(291,83,o),
(81,147,o),
(81,271,cs),
(81,309,o),
(102,352,o),
(146,398,c),
(74,347,o),
(-2,258,o),
(-2,183,cs),
(-2,141,o),
(21,105,o),
(84,81,c),
(98,91,l),
(63,84,o),
(29,84,o),
(-9,127,c),
(-9,9,l)
);
}
);
width = 616;
}
);
metricRight = "=0";
script = arabic;
sortName = arL0038.hah;
}
{
glyphname = "ain-ar.medi";
kernRight = beh;
layers = (
{
anchors = (
{
name = damma;
pos = (-45,167);
},
{
name = entry;
pos = (220,0);
},
{
name = exit;
},
{
name = fatha;
pos = (165,427);
},
{
name = kasra;
pos = (153,-53);
},
{
name = top;
pos = (5,261);
}
);
attr = {
colorPalette = 4;
};
backgroundImage = {
alpha = 80;
angle = -0.1;
imagePath = "images/MS-ADD-01116-000-00012.jpg";
locked = 1;
pos = (-5355,-2772);
scale = (5,5);
};
layerId = m01;
shapes = (
{
closed = 1;
nodes = (
(233,0,l),
(233,110,l),
(221,110,o),
(218,134,o),
(217,157,cs),
(215,235,o),
(211,314,o),
(201,377,cs),
(199,390,o),
(190,392,o),
(183,381,cs),
(151,340,o),
(106,295,o),
(65,261,c),
(171,201,l),
(126,230,o),
(80,273,o),
(51,317,c),
(20,278,o),
(-14,243,o),
(-51,211,c),
(-6,164,o),
(36,110,o),
(94,72,c),
(117,110,l),
(-20,110,l),
(-20,0,l)
);
}
);
width = 220;
},
{
associatedMasterId = m01;
attr = {
colorPalette = 1;
};
layerId = "75061647-80EA-4B15-B94F-6B2BDE313043";
name = "Regular 10 Jan 24 at 11:56";
shapes = (
{
closed = 1;
nodes = (
(213,105,o),
(208,125,o),
(207,157,cs),
(205,235,o),
(201,314,o),
(191,376,c),
(163,341,o),
(126,302,o),
(90,269,c),
(104,255,o),
(118,240,o),
(132,228,c),
(125,221,l),
(99,243,o),
(72,271,o),
(51,300,c),
(26,271,o),
(-3,242,o),
(-37,211,c),
(3,168,o),
(42,121,o),
(91,86,c),
(99,100,l),
(-22,100,l),
(-22,10,l),
(235,10,l),
(235,100,l)
);
}
);
width = 220;
}
);
metricLeft = "=-20@0";
metricRight = "=3@157";
}
{
glyphname = "alef-ar.fina";
kernLeft = alef.fina;
kernRight = beh;
layers = (
{
anchors = (
{
name = damma;
pos = (-66,61);
},
{
name = entry;
pos = (101,0);
},
{
name = fatha;
pos = (145,650);
},
{
name = kasra;
pos = (67,-56);
},
{
name = madda;
pos = (-76,635);
}
);
attr = {
colorPalette = 4;
};
backgroundImage = {
alpha = 80;
angle = 1;
imagePath = "images/MS-ADD-01116-000-00003.jpg";
locked = 1;
pos = (-4878,-2944);
scale = (5,5);
};
layerId = m01;
shapes = (
{
closed = 1;
nodes = (
(114,0,l),
(114,110,l),
(102,110,o),
(99,134,o),
(94,247,cs),
(93,265,o),
(86,578,o),
(83,820,c),
(46,752,o),
(21,725,o),
(-24,696,c),
(-3,534,o),
(-2,117,o),
(0,55,cs),
(1,20,o),
(16,0,o),
(65,0,cs)
);
}
);
width = 102;
},
{
associatedMasterId = m01;
attr = {
colorPalette = 1;
};
layerId = "71CEAFC8-0E0A-4757-824F-4661413A707E";
metricLeft = "=-13";
metricRight = "=-12";
name = "Regular 9 Jan 24 at 19:02";
shapes = (
{
closed = 1;
nodes = (
(114,10,l),
(114,100,l),
(92,99,o),
(89,125,o),
(84,247,cs),
(83,264,o),
(77,547,o),
(73,783,c),
(46,739,o),
(22,715,o),
(-13,691,c),
(7,524,o),
(8,116,o),
(10,55,cs),
(11,25,o),
(22,10,o),
(65,10,cs)
);
}
);
width = 102;
}
);
metricLeft = "=0@55";
metricRight = "=3@157";
}
{
glyphname = "alef-ar.fina.kashida";
kernLeft = alef.fina;
layers = (
{
anchors = (
{
name = damma;
pos = (-47,61);
},
{
name = entry;
pos = (198,0);
},
{
name = fatha;
pos = (114,650);
},
{
name = kasra;
pos = (66,-56);
},
{
name = madda;
pos = (-97,635);
}
);
attr = {
colorPalette = 4;
};
backgroundImage = {
alpha = 80;
angle = 1;
imagePath = "images/MS-ADD-01116-000-00003.jpg";
locked = 1;
pos = (-4909,-2944);
scale = (5,5);
};
layerId = m01;
shapes = (
{
closed = 1;
nodes = (
(198,0,l),
(198,110,l),
(153,110,o),
(83,126,o),
(77,228,cs),
(72,317,o),
(62,618,o),
(50,779,cs),
(49,799,o),
(44,791,o),
(37,780,cs),
(15,744,o),
(-27,700,o),
(-54,683,c),
(-45,633,o),
(-40,623,o),
(-33,550,cs),
(-23,436,o),
(-17,298,o),
(-9,149,cs),
(-5,76,o),
(-9,0,o),
(178,0,cs)
);
}
);
width = 198;
},
{
associatedMasterId = m01;
attr = {
colorPalette = 1;
};
layerId = "71CEAFC8-0E0A-4757-824F-4661413A707E";
name = "Regular 9 Jan 24 at 19:02";
shapes = (
{
closed = 1;
nodes = (
(198,10,l),
(198,100,l),
(151,100,o),
(74,117,o),
(67,227,cs),
(62,315,o),
(52,605,o),
(41,768,c),
(19,735,o),
(-17,697,o),
(-43,678,c),
(-35,635,o),
(-30,622,o),
(-23,551,cs),
(-13,437,o),
(-7,298,o),
(1,150,cs),
(5,76,o),
(2,10,o),
(178,10,cs)
);
}
);
visible = 1;
width = 198;
}
);
metricRight = "=0";
}
{
category = Letter;
glyphname = "alef-ar.fina.lam";
kernLeft = alef.fina;
kernRight = beh;
layers = (
{
anchors = (
{
name = damma;
pos = (-76,61);
},
{
name = entry;
pos = (90,0);
},
{
name = fatha;
pos = (135,650);
},
{
name = kasra;
pos = (57,-56);
},
{
name = madda;
pos = (-86,635);
}
);
attr = {
colorPalette = 4;
};
backgroundImage = {
alpha = 80;
angle = 1;
imagePath = "images/MS-ADD-01116-000-00003.jpg";
locked = 1;
pos = (-4888,-2944);
scale = (5,5);
};
layerId = m01;
shapes = (
{
closed = 1;
nodes = (
(90,0,l),
(90,100,l),
(90,781,l),
(91,808,o),
(79,795,o),
(71,784,cs),
(50,755,o),
(20,714,o),
(-10,689,c),
(-10,55,l),
(-10,20,o),
(6,0,o),
(55,0,cs)
);
}
);
width = 90;
},
{
associatedMasterId = m01;
attr = {
colorPalette = 1;
};
layerId = "71CEAFC8-0E0A-4757-824F-4661413A707E";
metricLeft = "=0@120";
name = "Regular 9 Jan 24 at 19:02";
shapes = (
{
closed = 1;
nodes = (
(80,777,l),
(59,746,o),
(35,713,o),
(0,683,c),
(0,55,ls),
(0,25,o),
(12,10,o),
(55,10,cs),
(90,10,l),
(90,100,l),
(80,100,l)
);
}
);
width = 90;
}
);
metricLeft = "=-10@120";
metricRight = "=behDotless-ar.medi";
script = arabic;
sortName = arL0005.lam;
}
{
category = Letter;
glyphname = "alef-ar.fina.lam.kashida";
kernLeft = alef.fina;
layers = (
{
anchors = (
{
name = damma;
pos = (-76,61);
},
{
name = entry;
pos = (211,0);
},
{
name = fatha;
pos = (135,650);
},
{
name = kasra;
pos = (57,-56);
},
{
name = madda;
pos = (-86,635);
}
);
attr = {
colorPalette = 4;
};
backgroundImage = {
alpha = 80;
angle = 1;
imagePath = "images/MS-ADD-01116-000-00003.jpg";
locked = 1;
pos = (-4888,-2944);
scale = (5,5);
};
layerId = m01;
shapes = (
{
closed = 1;
nodes = (
(166,110,o),
(90,126,o),
(90,228,cs),
(90,781,ls),
(91,808,o),
(79,795,o),
(71,784,cs),
(50,755,o),
(20,714,o),
(-10,689,c),
(-10,179,ls),
(-10,106,o),
(-10,0,o),
(177,0,cs),
(211,0,l),
(211,110,l)
);
}
);
width = 211;
},
{
associatedMasterId = m01;
attr = {
colorPalette = 1;
};
layerId = "71CEAFC8-0E0A-4757-824F-4661413A707E";
name = "Regular 9 Jan 24 at 19:02";
shapes = (
{
closed = 1;
nodes = (
(164,100,o),
(80,118,o),
(80,228,cs),
(80,779,l),
(60,751,o),
(31,710,o),
(0,684,c),
(0,179,ls),
(0,106,o),
(0,10,o),
(177,10,cs),
(211,10,l),
(211,100,l)
);
}
);
visible = 1;
width = 211;
}
);
metricRight = "=0";
script = arabic;
sortName = arL0005.lam.kashida;
}
{
category = Letter;
glyphname = "alef-ar.fina.short";
kernLeft = alef.fina;
kernRight = beh;
layers = (
{
anchors = (
{
name = damma;
pos = (-76,61);
},
{
name = entry;
pos = (90,0);
},
{
name = fatha;
pos = (135,546);
},
{
name = kasra;
pos = (57,-56);
},
{
name = madda;
pos = (-86,531);
}
);
attr = {
colorPalette = 4;
};
backgroundImage = {
alpha = 80;
imagePath = "../images/MS-ADD-01116-000-00005.jpg";
locked = 1;
pos = (-4003,-2880);
scale = (5,5);
};
layerId = m01;
shapes = (
{
closed = 1;
nodes = (
(90,0,l),
(90,100,l),
(90,688,ls),
(90,702,o),
(83,703,o),
(76,691,cs),
(46,641,o),
(15,617,o),
(-24,592,c),
(-17,536,o),
(-10,448,o),
(-10,356,cs),
(-10,183,o),
(-10,95,o),
(-10,55,cs),
(-10,20,o),
(6,0,o),
(55,0,cs)
);
}
);
width = 90;
},
{
associatedMasterId = m01;
attr = {
colorPalette = 1;
};
backgroundImage = {
alpha = 80;
imagePath = "../images/MS-ADD-01116-000-00005.jpg";
locked = 1;
pos = (-4013,-2880);
scale = (5,5);
};
layerId = "DCEAD802-741C-46C2-B0D4-95418BF65DEC";
name = "Regular 9 Jan 24 at 19:27";
shapes = (
{
closed = 1;
nodes = (
(90,10,l),
(90,100,l),
(80,100,l),
(80,679,l),
(53,635,o),
(22,611,o),
(-13,587,c),
(-6,530,o),
(0,446,o),
(0,357,cs),
(0,184,o),
(0,95,o),
(0,55,cs),
(0,25,o),
(12,10,o),
(55,10,cs)
);
}
);
width = 90;
}
);
metricLeft = "=alef-ar.fina";
metricRight = "=alef-ar.fina";
script = arabic;
sortName = arL0005.short;
sortNameKeep = arL0005.short;
}
{
color = 9;
glyphname = "alef-ar.lam";
layers = (
{
anchors = (
{
name = damma;
pos = (-62,60);
},
{
name = fatha;
pos = (148,622);
},
{
name = kasra;
pos = (373,-102);
},
{
name = madda;
pos = (-62,626);
}
);
backgroundImage = {
alpha = 80;
angle = -1.3;
imagePath = "images/MS-ADD-01116-000-00003.jpg";
locked = 1;
pos = (-2942,-2810);
scale = (5,5);
};
layerId = m01;
shapes = (
{
closed = 1;
nodes = (
(436,-50,o),
(569,16,o),
(639,116,cs),
(646,127,o),
(641,130,o),
(629,124,cs),
(541,81,o),
(358,45,o),
(230,113,cs),
(147,156,o),
(107,234,o),
(100,345,cs),
(100,445,o),
(100,673,o),
(100,790,cs),
(101,808,o),
(89,806,o),
(83,795,cs),
(63,761,o),
(24,718,o),
(-10,689,c),
(-10,548,o),
(-10,403,o),
(-10,262,cs),
(-10,44,o),
(139,-46,o),
(302,-48,cs)
);
}
);
width = 642;
},
{
associatedMasterId = m01;
attr = {
colorPalette = 4;
};
layerId = "B1BBDB7A-E1BD-4E0F-BD1C-F1A9AF9B488A";
name = "Regular 8 Jan 24 at 23:50";
shapes = (
{
closed = 1;
nodes = (
(436,-50,o),
(569,16,o),
(639,116,cs),
(646,127,o),
(641,130,o),
(629,124,cs),
(541,81,o),
(358,45,o),
(230,113,cs),
(147,156,o),
(107,234,o),
(100,345,cs),
(100,445,o),
(100,673,o),
(100,790,cs),
(101,808,o),
(89,806,o),
(83,795,cs),
(63,761,o),
(24,718,o),
(-10,689,c),
(-10,548,o),
(-10,403,o),
(-10,262,cs),
(-10,44,o),
(139,-46,o),
(302,-48,cs)
);
}
);
width = 642;
},
{
associatedMasterId = m01;
attr = {
colorPalette = 1;
};
layerId = "E8AE70B6-982A-4560-87D2-37798FC1B16D";
metricRight = "=19";
name = "Regular 8 Jan 24 at 22:31";
shapes = (
{
closed = 1;
nodes = (
(429,-40,o),
(553,19,o),
(623,110,c),
(530,68,o),
(353,35,o),
(226,102,cs),
(141,147,o),
(92,230,o),
(90,344,cs),
(90,443,o),
(90,667,o),
(90,788,c),
(59,738,o),
(35,713,o),
(0,683,c),
(0,544,o),
(0,401,o),
(0,262,cs),
(0,51,o),
(144,-36,o),
(302,-38,cs)
);
}
);
width = 642;
},
{
anchors = (
{
name = damma;
pos = (-66,60);
},
{
name = fatha;
pos = (144,622);
},
{
name = kasra;
pos = (284,-62);
},
{
name = madda;
pos = (-66,626);
}
);
associatedMasterId = m01;
attr = {
coordinates = (
0
);
};
layerId = "F1083509-7AFD-4516-A401-FC3F16E2B7A7";
name = "Color 7 {7} 8 Jan 24 at 22:47";
shapes = (
{
closed = 1;
nodes = (
(303,-9,o),
(402,25,o),
(466,124,cs),
(476,139,o),
(472,147,o),
(460,141,cs),
(378,100,o),
(297,104,o),
(232,121,cs),
(130,149,o),
(100,237,o),
(100,345,cs),
(100,445,o),
(100,673,o),
(100,790,cs),
(100,808,o),
(89,806,o),
(83,795,cs),
(63,761,o),
(24,718,o),
(-10,689,c),
(-10,548,o),
(-10,403,o),
(-10,262,cs),
(-10,75,o),
(67,-4,o),
(212,-7,cs)
);
}
);
width = 472;
},
{
associatedMasterId = m01;
attr = {
colorPalette = 4;
coordinates = (
0
);
};
layerId = "B2975D32-22D5-4D0D-A98A-BC567DCA4288";
name = "Color 4 {0} 8 Jan 24 at 23:51";
shapes = (
{
closed = 1;
nodes = (
(303,-9,o),
(402,25,o),
(466,124,cs),
(476,139,o),
(472,147,o),
(460,141,cs),
(378,100,o),
(297,104,o),
(232,121,cs),
(130,149,o),
(100,237,o),
(100,345,cs),
(100,445,o),
(100,673,o),
(100,790,cs),
(100,808,o),
(89,806,o),
(83,795,cs),
(63,761,o),
(24,718,o),
(-10,689,c),
(-10,548,o),
(-10,403,o),
(-10,262,cs),
(-10,75,o),
(67,-4,o),
(212,-7,cs)
);
}
);
width = 472;
},
{
associatedMasterId = m01;
attr = {
colorPalette = 1;
coordinates = (
0
);
};
layerId = "E5FAE675-6B3A-423C-9291-F9C12C865A83";
metricRight = "=16";
name = "Color 7 {7} 8 Jan 24 at 22:43";
shapes = (
{
closed = 1;
nodes = (
(286,3,o),
(394,34,o),
(456,128,c),
(372,85,o),
(281,95,o),
(222,112,cs),
(115,143,o),
(90,235,o),
(90,344,cs),
(90,443,o),
(90,667,o),
(90,788,c),
(59,738,o),
(35,713,o),
(0,683,c),
(0,544,o),
(0,401,o),
(0,262,cs),
(0,81,o),
(84,8,o),
(212,5,cs)
);
}
);
width = 472;
},
{
anchors = (
{
name = damma;
pos = (-66,60);
},
{
name = fatha;
pos = (144,622);
},
{
name = kasra;
pos = (284,-62);
},
{
name = madda;
pos = (-66,626);
}
);
associatedMasterId = m01;
attr = {
coordinates = (
7
);
};
backgroundImage = {
alpha = 80;
angle = 2;
crop = (0,0,1500,1216);
imagePath = "images/MS-ADD-01116-000-00030.jpg";
locked = 1;
pos = (-1598,-1814);
scale = (5,5);
};
layerId = "AA0735CD-310B-4645-8929-3AD48CA3F9B3";
name = "Color 7 {7} 8 Jan 24 at 22:50";
shapes = (
{
closed = 1;
nodes = (
(303,-9,o),
(402,25,o),
(466,124,cs),
(476,139,o),
(472,147,o),
(460,141,cs),
(378,100,o),
(297,104,o),
(232,121,cs),
(130,149,o),
(100,237,o),
(100,345,cs),
(100,445,o),
(100,673,o),
(100,790,cs),
(100,808,o),
(89,806,o),
(83,795,cs),
(63,761,o),
(24,718,o),
(-10,689,c),
(-10,548,o),
(-10,403,o),
(-10,262,cs),
(-10,75,o),
(67,-4,o),
(212,-7,cs)
);
}
);
width = 472;
},
{
associatedMasterId = m01;
attr = {
colorPalette = 4;
coordinates = (
7
);
};
layerId = "DF16497D-7E0A-463C-BC14-46F3513E19D1";
name = "Color 4 {7} 8 Jan 24 at 23:50";
shapes = (
{
closed = 1;
nodes = (
(303,-9,o),
(402,25,o),
(466,124,cs),
(476,139,o),
(472,147,o),
(460,141,cs),
(378,100,o),
(297,104,o),
(232,121,cs),
(130,149,o),
(100,237,o),
(100,345,cs),
(100,445,o),
(100,673,o),
(100,790,cs),
(100,808,o),
(89,806,o),
(83,795,cs),
(63,761,o),
(24,718,o),
(-10,689,c),
(-10,548,o),
(-10,403,o),
(-10,262,cs),
(-10,75,o),
(67,-4,o),
(212,-7,cs)
);
}
);
width = 472;
},
{
associatedMasterId = m01;
attr = {
colorPalette = 1;
coordinates = (
7
);
};
layerId = "CC075CEE-95D5-4798-8613-5ADA6FE08F21";
metricRight = "=16";
name = "Color 1 {7} 8 Jan 24 at 22:50";
shapes = (
{
closed = 1;
nodes = (
(286,3,o),
(394,34,o),
(456,128,c),
(372,85,o),
(281,95,o),
(222,112,cs),
(115,143,o),
(90,235,o),
(90,344,cs),
(90,443,o),
(90,667,o),
(90,788,c),
(59,738,o),
(35,713,o),
(0,683,c),
(0,544,o),
(0,401,o),
(0,262,cs),
(0,81,o),
(84,8,o),
(212,5,cs)
);
}
);
width = 472;
}
);
metricRight = "=0";
}
{
category = Letter;
glyphname = "alefMaksura-ar.fina";
kernRight = yeh;
layers = (
{
anchors = (
{
name = bottom;
pos = (376,-235);
},
{
name = damma;
pos = (-53,1);
},
{
name = entry;
pos = (282,0);
},
{
name = fatha;
pos = (131,274);
},
{
name = kasra;
pos = (230,-333);
}
);
backgroundImage = {
alpha = 80;
angle = -0.6;
imagePath = "images/MS-ADD-01116-000-00049.jpg";
locked = 1;
pos = (-3978,-1881);
scale = (5,5);
};
layerId = m01;
shapes = (
{
closed = 1;
nodes = (
(382,-249,o),
(393,-214,o),
(384,-157,cs),
(375,-104,o),
(351,-63,o),
(337,-37,cs),
(330,-25,o),
(329,-22,o),
(306,-22,cs),
(252,-23,o),
(148,-24,o),
(123,17,cs),
(116,29,o),
(122,37,o),
(133,26,cs),
(166,-5,o),
(208,0,o),
(282,0,c),
(282,110,l),
(240,123,o),
(220,216,o),
(165,217,cs),
(77,219,o),
(0,128,o),
(0,30,cs),
(0,-99,o),
(83,-156,o),
(244,-147,cs),
(258,-146,o),
(257,-154,o),
(260,-159,c),
(173,-171,o),
(81,-159,o),
(31,-130,cs),
(19,-123,o),
(11,-133,o),
(4,-144,cs),
(-12,-171,o),
(-42,-206,o),
(-59,-206,cs),
(-77,-206,o),
(-79,-218,o),
(-68,-231,cs),
(-9,-299,o),
(234,-285,o),
(342,-259,cs)
);
}
);
width = 282;
}
);
metricLeft = "=0@30";
metricRight = "=0@0";
script = arabic;
sortName = arL0080a;
}
{
glyphname = "alefMaksura-ar.fina.salt";
kernRight = yeh;
layers = (
{
anchors = (
{
name = bottom;
pos = (296,-424);
},
{
name = damma;
pos = (-53,1);
},
{
name = entry;
pos = (282,0);
},
{
name = fatha;
pos = (131,274);
},
{
name = kasra;
pos = (360,-202);
}
);
backgroundImage = {
alpha = 80;
imagePath = "images/MS-ADD-01116-000-00017.jpg";
locked = 1;
pos = (-4013,-2786);
scale = (5,5);
};
layerId = m01;
shapes = (
{
closed = 1;
nodes = (
(277,-424,o),
(312,-398,o),
(312,-338,cs),
(312,-307,o),
(306,-265,o),
(304,-215,cs),
(303,-162,o),
(298,-108,o),
(301,-50,cs),
(301,-39,o),
(298,-22,o),
(276,-22,cs),
(252,-22,o),
(148,-24,o),
(123,17,cs),
(116,29,o),
(121,37,o),
(133,26,cs),
(166,-5,o),
(208,0,o),
(282,0,c),
(282,110,l),
(240,123,o),
(220,216,o),
(166,217,cs),
(78,219,o),
(0,128,o),
(0,30,cs),
(0,-99,o),
(83,-156,o),
(236,-147,c),
(206,-137,l),
(227,-163,o),
(221,-263,o),
(220,-334,c),
(236,-313,l),
(176,-320,o),
(128,-317,o),
(78,-300,cs),
(65,-296,o),
(58,-303,o),
(51,-314,cs),
(35,-341,o),
(5,-376,o),
(-12,-376,cs),
(-30,-376,o),
(-34,-392,o),
(-21,-401,cs),
(31,-437,o),
(152,-443,o),
(237,-430,cs)
);
}
);
width = 282;
}
);
metricLeft = "=0@30";
metricRight = "=0@0";
}
{
glyphname = "alefMaksura-ar.fina.wide";
kernRight = kaf.wide;
layers = (
{
anchors = (
{
name = bottom;
pos = (423,-240);
},
{
name = damma;
pos = (-53,1);
},
{
name = entry;
pos = (267,0);
},
{
name = fatha;
pos = (131,274);
},
{
name = kasra;
pos = (230,-323);
}
);
backgroundImage = {
alpha = 80;
angle = -0.6;
imagePath = "images/MS-ADD-01116-000-00049.jpg";
locked = 1;
pos = (-3978,-1881);
scale = (5,5);
};
layerId = m01;
shapes = (
{
closed = 1;
nodes = (
(437,-246,o),
(448,-211,o),
(439,-154,cs),
(430,-101,o),
(406,-60,o),
(392,-34,cs),
(385,-22,o),
(384,-18,o),
(361,-19,cs),
(252,-26,o),
(148,-24,o),
(123,17,cs),
(116,29,o),
(122,37,o),
(133,26,cs),
(166,-5,o),
(208,0,o),
(282,0,c),
(282,110,l),
(240,123,o),
(220,216,o),
(165,217,cs),
(77,219,o),
(0,128,o),
(0,30,cs),
(0,-114,o),
(102,-162,o),
(295,-144,cs),
(309,-143,o),
(308,-151,o),
(311,-156,c),
(178,-174,o),
(89,-156,o),
(39,-127,cs),
(27,-120,o),
(19,-130,o),
(12,-141,cs),
(-4,-168,o),
(-34,-203,o),
(-51,-203,cs),
(-69,-203,o),
(-71,-215,o),
(-60,-228,cs),
(-1,-296,o),
(289,-282,o),
(397,-256,cs)
);
}
);
width = 267;
}
);
metricLeft = "=0@30";
metricRight = "=-15@0";
}
{
glyphname = "alefMaksura-ar.salt";
layers = (
{
anchors = (
{
name = bottom;
pos = (296,-337);
},
{
name = damma;
pos = (-54,74);
},
{
name = fatha;
pos = (131,351);
},
{
name = kasra;
pos = (360,-115);
}
);
backgroundImage = {
alpha = 80;
angle = -1.5;
imagePath = "images/MS-ADD-01116-000-00029.jpg";
locked = 1;
pos = (-5959,-3599);
scale = (5,5);
};
layerId = m01;
shapes = (
{
closed = 1;
nodes = (
(277,-337,o),
(312,-311,o),
(312,-251,cs),
(312,-220,o),
(306,-178,o),
(304,-128,cs),
(303,-75,o),
(298,-21,o),
(301,37,cs),
(301,48,o),
(298,60,o),
(276,60,cs),
(211,60,o),
(148,78,o),
(123,104,cs),
(113,114,o),
(122,122,o),
(129,117,cs),
(166,91,o),
(236,74,o),
(282,87,cs),
(312,95,o),
(325,148,o),
(328,204,c),
(309,199,o),
(296,194,o),
(281,209,cs),
(235,253,o),
(205,304,o),
(165,304,cs),
(87,304,o),
(0,215,o),
(0,88,cs),
(0,-12,o),
(72,-61,o),
(236,-55,c),
(206,-50,l),
(227,-76,o),
(221,-176,o),
(220,-247,c),
(236,-226,l),
(176,-233,o),
(128,-230,o),
(78,-213,cs),
(65,-209,o),
(58,-216,o),
(51,-227,cs),
(35,-254,o),
(5,-289,o),
(-12,-289,cs),
(-30,-289,o),
(-34,-305,o),
(-21,-314,cs),
(31,-350,o),
(152,-356,o),
(237,-343,cs)
);
}
);
width = 328;
}
);
metricLeft = "=0@88";
metricRight = "=0";
}
{
color = 9;
glyphname = "behDotless-ar.fina";
kernRight = beh;
layers = (
{
anchors = (
{
name = bottom;
pos = (871,-39);
},
{
name = damma;
pos = (-37,68);
},
{
name = entry;
pos = (984,0);
},
{
name = fatha;
pos = (668,168);
},
{
name = kasra;
pos = (769,-72);
},
{
name = top;
pos = (912,294);
}
);
backgroundImage = {
alpha = 80;
angle = -0.4;
imagePath = "images/MS-ADD-01116-000-00025.jpg";
locked = 1;
pos = (-2520,-2714);
scale = (5,5);
};
layerId = m01;
shapes = (
{
closed = 1;
nodes = (
(437,-6,o),
(569,-1,o),
(997,0,c),
(997,110,l),
(985,110,o),
(982,135,o),
(981,157,cs),
(979,234,o),
(975,289,o),
(971,341,cs),
(969,364,o),
(952,359,o),
(945,344,cs),
(917,288,o),
(870,251,o),
(839,251,cs),
(821,251,o),
(818,228,o),
(833,218,cs),
(877,183,o),
(879,138,o),
(877,102,c),
(584,96,o),
(488,95,o),
(195,100,cs),
(151,101,o),
(126,101,o),
(87,119,cs),
(79,123,o),
(71,127,o),
(67,110,cs),
(59,79,o),
(39,50,o),
(13,38,cs),
(-3,31,o),
(-4,21,o),
(10,13,cs),
(38,-3,o),
(79,-9,o),
(139,-8,cs)
);
}
);
width = 984;
},
{
associatedMasterId = m01;
attr = {
colorPalette = 4;
};
backgroundImage = {
alpha = 80;
angle = -0.4;
imagePath = "images/MS-ADD-01116-000-00025.jpg";
locked = 1;
pos = (-2520,-2714);
scale = (5,5);
};
layerId = "2B2C2B23-FBC7-46BF-A104-DE43EB1C5169";
name = "22 Aug 24 at 03:15";
shapes = (
{
closed = 1;
nodes = (
(457,-6,o),
(572,-1,o),
(984,0,c),
(984,366,ls),
(984,380,o),
(977,382,o),
(969,370,cs),
(935,319,o),
(874,267,o),
(819,240,c),
(875,177,o),
(878,118,o),
(877,102,c),
(584,96,o),
(388,93,o),
(195,100,cs),
(176,101,o),
(118,106,o),
(90,120,c),
(75,90,o),
(43,53,o),
(-5,19,c),
(29,-3,o),
(138,-8,o),
(159,-8,cs)
);
}
);
visible = 1;
width = 984;
},
{
associatedMasterId = m01;
attr = {
colorPalette = 1;
};
backgroundImage = {
alpha = 80;
angle = -0.4;
imagePath = "images/MS-ADD-01116-000-00025.jpg";
locked = 1;
pos = (-2520,-2714);
scale = (5,5);
};
layerId = "14E30DB2-9ED9-457E-9761-9D1A73326A9D";
name = "22 Aug 24 at 03:15";
shapes = (
{
closed = 1;
nodes = (
(454,4,o),
(580,9,o),
(984,10,c),
(984,100,l),
(974,100,l),
(974,360,l),
(942,313,o),
(886,265,o),
(835,237,c),
(894,164,o),
(887,97,o),
(886,92,c),
(588,86,o),
(390,83,o),
(195,90,cs),
(177,91,o),
(126,95,o),
(94,107,c),
(79,81,o),
(52,50,o),
(14,21,c),
(56,6,o),
(141,2,o),
(159,2,cs)
);
}
);
width = 984;
},
{
anchors = (
{
name = bottom;
pos = (5887,-39);
},
{
name = damma;
pos = (-37,68);
},
{
name = entry;
pos = (6000,0);
},
{
name = fatha;
pos = (2968,168);
},
{
name = kasra;
pos = (3069,-72);
},
{
name = top;
pos = (5928,294);
}
);
associatedMasterId = m01;
attr = {
coordinates = (
100
);
};
backgroundImage = {
alpha = 80;
angle = -0.4;
imagePath = "images/MS-ADD-01116-000-00025.jpg";
locked = 1;
pos = (2497,-2714);
scale = (5,5);
};
layerId = "4EEB5299-73EA-4ACE-B18D-1AA14A978B72";
name = "{100} 22 Aug 24 at 03:24";
shapes = (
{
closed = 1;
nodes = (
(437,-6,o),
(5585,-1,o),
(6013,0,c),
(6013,110,l),
(6001,110,o),
(5998,135,o),
(5997,157,cs),
(5995,234,o),
(5991,289,o),
(5987,341,cs),
(5985,364,o),
(5968,359,o),
(5961,344,cs),
(5933,288,o),
(5886,251,o),
(5855,251,cs),
(5837,251,o),
(5834,228,o),
(5849,218,cs),
(5893,183,o),
(5895,138,o),
(5893,102,c),
(5546,96,o),
(412,96,o),
(195,100,cs),
(151,101,o),
(126,101,o),
(87,119,cs),
(79,123,o),
(71,127,o),
(67,110,cs),
(59,79,o),
(39,50,o),
(13,38,cs),
(-3,31,o),
(-4,21,o),
(10,13,cs),
(38,-3,o),
(79,-9,o),
(139,-8,cs)
);
}
);
width = 6000;
},
{
associatedMasterId = m01;
attr = {
colorPalette = 4;
coordinates = (
100
);
};
backgroundImage = {
alpha = 80;
angle = -0.4;
imagePath = "images/MS-ADD-01116-000-00025.jpg";
locked = 1;
pos = (2497,-2714);
scale = (5,5);
};
layerId = "0EFED659-6DBF-4B64-91AF-E9837B278751";
name = "Color 4 {100} 22 Aug 24 at 03:26";
shapes = (
{
closed = 1;
nodes = (
(457,-6,o),
(5588,-1,o),
(6000,0,c),
(6000,366,ls),
(6000,380,o),
(5993,382,o),
(5985,370,cs),
(5951,319,o),
(5890,267,o),
(5835,240,c),
(5891,177,o),
(5894,118,o),
(5893,102,c),
(5600,96,o),
(388,93,o),
(195,100,cs),
(176,101,o),
(118,106,o),
(90,120,c),
(75,90,o),
(43,53,o),
(-5,19,c),
(29,-3,o),
(138,-8,o),
(159,-8,cs)
);
}
);
width = 6000;
},
{
associatedMasterId = m01;
attr = {
colorPalette = 1;
coordinates = (
100
);
};
backgroundImage = {
alpha = 80;
angle = -0.4;
imagePath = "images/MS-ADD-01116-000-00025.jpg";
locked = 1;
pos = (2497,-2714);
scale = (5,5);
};
layerId = "F12C8E8A-FF78-45E3-A48F-D527A8739E99";
name = "17 May 23 at 02:25";
shapes = (
{
closed = 1;
nodes = (
(455,4,o),
(5522,9,o),
(6000,10,c),
(6000,100,l),
(5990,100,l),
(5990,360,l),
(5958,313,o),
(5902,265,o),
(5851,237,c),
(5910,164,o),
(5903,97,o),
(5902,92,c),
(5743,86,o),
(390,83,o),
(195,90,cs),
(177,91,o),
(126,95,o),
(94,107,c),
(79,81,o),
(52,50,o),
(14,21,c),
(56,6,o),
(141,2,o),
(159,2,cs)
);
}
);
width = 6000;
},
{
anchors = (
{
name = bottom;
pos = (312,-39);
},
{
name = damma;
pos = (-47,68);
},
{
name = entry;
pos = (425,0);
},
{
name = fatha;
pos = (364,388);
},
{
name = kasra;
pos = (240,-72);
},
{
name = top;
pos = (352,294);
}
);
associatedMasterId = m01;
attr = {
coordinates = (
0
);
};
backgroundImage = {
alpha = 80;
angle = -0.4;
imagePath = "images/MS-ADD-01116-000-00025.jpg";
locked = 1;
pos = (-3080,-2714);
scale = (5,5);
};
layerId = "DDD2BED5-EC43-492E-B0A2-CCA188477B78";
name = "{0} 22 Aug 24 at 03:21";
shapes = (
{
closed = 1;
nodes = (
(218,-1,o),
(260,-1,o),
(438,0,c),
(438,110,l),
(426,110,o),
(423,135,o),
(422,157,cs),
(420,234,o),
(416,289,o),
(412,341,cs),
(410,364,o),
(393,359,o),
(386,344,cs),
(358,288,o),
(311,251,o),
(280,251,cs),
(262,251,o),
(259,228,o),
(274,218,cs),
(314,186,o),
(319,146,o),
(318,112,c),
(266,106,o),
(192,107,o),
(153,110,cs),
(130,112,o),
(107,118,o),
(87,127,cs),
(79,131,o),
(71,135,o),
(67,118,cs),
(59,87,o),
(39,58,o),
(13,46,cs),
(-3,39,o),
(-4,29,o),
(10,21,cs),
(38,5,o),
(79,-5,o),
(139,-3,cs)
);
}
);
width = 425;
},
{
associatedMasterId = m01;
attr = {
colorPalette = 4;
coordinates = (
0
);
};
backgroundImage = {
alpha = 80;
angle = -0.4;
imagePath = "images/MS-ADD-01116-000-00025.jpg";
locked = 1;
pos = (-3080,-2714);
scale = (5,5);
};
layerId = "EB634AA6-1A54-45DA-83D2-081269BB5A98";
name = "Color 4 {0} 22 Aug 24 at 03:23";
shapes = (
{
closed = 1;
nodes = (
(248,0,o),
(336,-3,o),
(425,0,c),
(425,366,ls),
(425,380,o),
(418,382,o),
(410,370,cs),
(376,319,o),
(315,267,o),
(260,240,c),
(316,177,o),
(319,118,o),
(318,102,c),
(252,99,o),
(209,100,o),
(177,102,cs),
(138,104,o),
(116,110,o),
(90,123,c),
(75,93,o),
(43,51,o),
(-5,27,c),
(29,5,o),
(138,0,o),
(159,0,cs)
);
}
);
width = 425;
},
{
associatedMasterId = m01;
attr = {
colorPalette = 1;
coordinates = (
0
);
};
backgroundImage = {
alpha = 80;
angle = -0.4;
imagePath = "images/MS-ADD-01116-000-00025.jpg";
locked = 1;
pos = (-3080,-2714);
scale = (5,5);
};
layerId = "EE044D8F-3BE1-4C50-BA13-713D04A6A341";
name = "17 May 23 at 17:25";
shapes = (
{
closed = 1;
nodes = (
(245,10,o),
(340,7,o),
(425,10,c),
(425,100,l),
(415,100,l),
(415,360,l),
(383,313,o),
(327,265,o),
(276,237,c),
(335,164,o),
(328,97,o),
(327,92,c),
(256,89,o),
(210,90,o),
(176,92,cs),
(141,94,o),
(118,99,o),
(94,110,c),
(80,84,o),
(53,51,o),
(17,28,c),
(59,14,o),
(141,10,o),
(159,10,cs)
);
}
);
width = 425;
}
);
metricLeft = "=0";
metricRight = "behDotless-ar.medi";
}
{
glyphname = "behDotless-ar.init";
kernRight = beh.init;
layers = (
{
anchors = (
{
name = bottom;
pos = (109,26);
},
{
name = damma;
pos = (-10,173);
},
{
name = exit;
},
{
name = fatha;
pos = (43,414);
},
{
name = kasra;
pos = (130,-36);
},
{
name = top;
pos = (59,335);
}
);
attr = {
colorPalette = 4;
};
backgroundImage = {
alpha = 80;
imagePath = "images/MS-ADD-01116-000-00005.jpg";
locked = 1;
pos = (-4107,-2810);
scale = (5,5);
};
layerId = m01;
shapes = (
{
closed = 1;
nodes = (
(35,0,ls),
(74,0,o),
(100,37,o),
(100,72,cs),
(100,400,l),
(82,350,o),
(26,290,o),
(-10,283,c),
(-10,110,l),
(-50,110,l),
(-50,0,l)
);
}
);
width = 100;
},
{
associatedMasterId = m01;
attr = {
colorPalette = 1;
};
backgroundImage = {
alpha = 80;
imagePath = "images/MS-ADD-01116-000-00005.jpg";
locked = 1;
pos = (-4107,-2810);
scale = (5,5);
};
layerId = "EF850527-60EE-4A6C-A294-AF37A907E406";
metricLeft = "=0@120";
metricRight = "=10";
name = "Regular 14 Jan 24 at 21:45";
shapes = (
{
closed = 1;
nodes = (
(35,10,ls),
(67,10,o),
(90,42,o),
(90,72,cs),
(90,356,l),
(66,319,o),
(29,284,o),
(0,273,c),
(0,110,l),
(-52,110,l),
(-52,10,l)
);
}
);
width = 100;
}
);
metricLeft = "=-10@120";
metricRight = "=0";
}
{
glyphname = "behDotless-ar.init.hah";
layers = (
{
anchors = (
{
name = bottom;
pos = (141,252);
},
{
name = damma;
pos = (-9,281);
},
{
name = exit;
pos = (-63,130);
},
{
name = fatha;
pos = (41,511);
},
{
name = kasra;
pos = (109,59);
},
{
name = top;
pos = (55,432);
}
);
backgroundImage = {
imagePath = "images/MS-ADD-01116-000-00010.jpg";
locked = 1;
pos = (-2723,-2714);
scale = (5,5);
};
layerId = m01;
shapes = (
{
closed = 1;
nodes = (
(99,130,l),
(94,237,o),
(89,348,o),
(89,458,cs),
(89,467,o),
(82,471,o),
(75,460,cs),
(55,429,o),
(32,388,o),
(3,369,cs),
(-11,360,o),
(-8,343,o),
(-6,312,cs),
(-4,279,o),
(-3,261,o),
(0,130,c)
);
}
);
width = 99;
}
);
metricLeft = "=0@130";
metricRight = "=0";
}
{
glyphname = "behDotless-ar.init.high";
kernRight = beh.init;
layers = (
{
anchors = (
{
name = bottom;
pos = (118,26);
},
{
name = damma;
pos = (7,168);
},
{
name = exit;
},
{
name = fatha;
pos = (68,527);
},
{
name = kasra;
pos = (130,-40);
},
{
name = top;
pos = (65,430);
}
);
backgroundImage = {
alpha = 80;
imagePath = "images/MS-ADD-01116-000-00008.jpg";
locked = 1;
pos = (-4012,-2869);
scale = (5,5);
};
layerId = m01;
shapes = (
{
closed = 1;
nodes = (
(65,0,ls),
(104,0,o),
(131,37,o),
(130,72,cs),
(128,172,o),
(111,366,o),
(105,468,cs),
(104,477,o),
(98,481,o),
(91,470,cs),
(71,439,o),
(48,402,o),
(26,388,cs),
(12,379,o),
(5,365,o),
(8,334,cs),
(11,301,o),
(19,166,o),
(19,110,c),
(-20,110,l),
(-20,0,l)
);
}
);
width = 130;
}
);
metricLeft = "=-20@0";
metricRight = "=0";
}
{
glyphname = "behDotless-ar.init.med";
kernRight = beh.init;
layers = (
{
anchors = (
{
name = bottom;
pos = (109,26);
},
{
name = damma;
pos = (9,172);
},
{
name = exit;
},
{
name = fatha;
pos = (58,456);
},
{
name = kasra;
pos = (130,-36);
},
{
name = top;
pos = (77,377);
}
);
backgroundImage = {
alpha = 80;
angle = 1.4;
imagePath = "images/MS-ADD-01116-000-00006.jpg";
locked = 1;
pos = (-4570,-1748);
scale = (5,5);
};
layerId = m01;
shapes = (
{
closed = 1;
nodes = (
(56,0,ls),
(95,0,o),
(131,37,o),
(130,72,cs),
(128,172,o),
(111,303,o),
(111,403,cs),
(111,412,o),
(104,416,o),
(97,405,cs),
(77,374,o),
(49,345,o),
(20,326,cs),
(6,317,o),
(9,300,o),
(11,269,cs),
(13,236,o),
(17,166,o),
(19,110,c),
(-20,110,l),
(-20,0,l)
);
}
);
width = 130;
}
);
metricLeft = "=-20";
metricRight = "=0";
}
{
glyphname = "behDotless-ar.medi";
kernRight = beh;
layers = (
{
anchors = (
{
name = bottom;
pos = (46,-38);
},
{
name = damma;
pos = (17,170);
},
{
name = entry;
pos = (128,0);
},
{
name = exit;
},
{
name = fatha;
pos = (71,403);
},
{
name = kasra;
pos = (79,-57);
},
{
name = top;
pos = (82,332);
}
);
attr = {
colorPalette = 4;
};
backgroundImage = {
alpha = 80;
imagePath = "images/MS-ADD-01116-000-00008.jpg";
locked = 1;
pos = (-3889,-2872);
scale = (5,5);
};
layerId = m01;
shapes = (
{
closed = 1;
nodes = (
(141,0,l),
(141,110,l),
(129,110,o),
(126,134,o),
(125,157,cs),
(123,213,o),
(119,310,o),
(112,379,c),
(63,302,o),
(53,283,o),
(13,260,c),
(16,228,o),
(20,151,o),
(21,110,c),
(-20,110,l),
(-20,0,l)
);
}
);
width = 128;
},
{
associatedMasterId = m01;
attr = {
colorPalette = 1;
};
backgroundImage = {
alpha = 80;
imagePath = "images/MS-ADD-01116-000-00008.jpg";
locked = 1;
pos = (-3889,-2872);
scale = (5,5);
};
layerId = "099CF29B-596A-4F11-8DDD-6E94280AFCA9";
metricRight = "=-13";
name = "Regular 9 Jan 24 at 21:27";
shapes = (
{
closed = 1;
nodes = (
(143,10,l),
(143,100,l),
(121,98,o),
(117,125,o),
(115,157,cs),
(113,205,o),
(110,284,o),
(105,349,c),
(70,295,o),
(57,275,o),
(24,255,c),
(27,216,o),
(31,135,o),
(31,100,c),
(-22,100,l),
(-22,10,l)
);
}
);
width = 128;
}
);
metricLeft = "=-20@0";
metricRight = "=3@157";
}
{
category = Letter;
glyphname = "behDotless-ar.medi.high";
kernRight = beh;
layers = (
{
anchors = (
{
name = bottom;
pos = (24,-38);
},
{
name = damma;
pos = (-10,172);
},
{
name = entry;
pos = (100,0);
},
{
name = exit;
},
{
name = fatha;
pos = (43,499);
},
{
name = kasra;
pos = (57,-57);
},
{
name = top;
pos = (59,420);
}
);
attr = {
colorPalette = 4;
};
backgroundImage = {
alpha = 80;
angle = -0.4;
imagePath = "images/MS-ADD-01116-000-00025.jpg";
locked = 1;
pos = (-3498,-2714);
scale = (5,5);
};
layerId = m01;
shapes = (
{
closed = 1;
nodes = (
(100,0,l),
(100,451,ls),
(100,465,o),
(93,467,o),
(85,455,cs),
(61,413,o),
(19,374,o),
(-10,368,c),
(-10,110,l),
(-30,110,l),
(-30,0,l)
);
}
);
width = 100;
},
{
associatedMasterId = m01;
attr = {
colorPalette = 1;
};
layerId = "092AFF70-9071-4642-A1C1-B33060C04E35";
name = "Regular 16 Jan 24 at 13:29";
shapes = (
{
closed = 1;
nodes = (
(100,10,l),
(100,100,l),
(90,100,l),
(90,441,l),
(66,404,o),
(29,369,o),
(0,358,c),
(0,110,l),
(-32,110,l),
(-32,10,l)
);
}
);
width = 100;
}
);
metricLeft = "=behDotless-ar.medi";
metricRight = "=behDotless-ar.medi";
script = arabic;
sortName = arL0010d;
}
{
glyphname = "behDotless-ar.medi.med";
kernRight = beh;
layers = (
{
anchors = (
{
name = bottom;
pos = (24,-38);
},
{
name = damma;
pos = (-10,172);
},
{
name = entry;
pos = (100,0);
},
{
name = exit;
},
{
name = fatha;
pos = (43,453);
},
{
name = kasra;
pos = (57,-57);
},
{
name = top;
pos = (59,374);
}
);
attr = {
colorPalette = 4;
};
backgroundImage = {
alpha = 80;
angle = -0.4;
imagePath = "images/MS-ADD-01116-000-00025.jpg";
locked = 1;
pos = (-3495,-2714);
scale = (5,5);
};
layerId = m01;
shapes = (
{
closed = 1;
nodes = (
(100,0,l),
(100,405,ls),
(100,419,o),
(93,421,o),
(85,409,cs),
(61,367,o),
(19,328,o),
(-10,322,c),
(-10,110,l),
(-30,110,l),
(-30,0,l)
);
}
);
width = 100;
},
{
associatedMasterId = m01;
attr = {
colorPalette = 1;
};
backgroundImage = {
alpha = 80;
angle = -0.4;
imagePath = "images/MS-ADD-01116-000-00025.jpg";
locked = 1;
pos = (-3493,-2714);
scale = (5,5);
};
layerId = "6205199F-59CC-4574-98E1-3AA4B08296A7";
name = "14 Jan 24 at 22:07";
shapes = (
{
closed = 1;
nodes = (
(100,10,l),
(100,110,l),
(90,110,l),
(90,395,l),
(66,358,o),
(29,323,o),
(0,312,c),
(0,110,l),
(-32,110,l),
(-32,10,l)
);
}
);
width = 100;
}
);
metricLeft = "=behDotless-ar.medi";
metricRight = "=behDotless-ar.medi";
}
{
glyphname = "behDotless-ar.medi.round";
kernRight = beh;
layers = (
{
anchors = (
{
name = bottom;
pos = (23,-38);
},
{
name = damma;
pos = (0,170);
},
{
name = entry;
pos = (110,0);
},
{
name = exit;
pos = (6,0);
},
{
name = fatha;
pos = (53,414);
},
{
name = kasra;
pos = (56,-57);
},
{
name = top;
pos = (69,335);
}
);
attr = {
colorPalette = 4;
};
backgroundImage = {
alpha = 80;
imagePath = "images/MS-ADD-01116-000-00005.jpg";
locked = 1;
pos = (-5160,-2810);
scale = (5,5);
};
layerId = m01;
shapes = (
{
closed = 1;
nodes = (
(110,0,l),
(110,366,ls),
(110,380,o),
(103,382,o),
(95,370,cs),
(71,328,o),
(29,289,o),
(0,283,c),
(0,146,ls),
(0,64,o),
(12,0,o),
(97,0,cs)
);
}
);
width = 110;
},
{
associatedMasterId = m01;
attr = {
colorPalette = 1;
};
layerId = "25BB7726-A276-47A3-8636-EFDDEBB497AB";
metricLeft = "=10";
metricRight = "=10@120";
name = "16 Jan 24 at 19:06";
shapes = (
{
closed = 1;
nodes = (
(110,10,l),
(110,100,l),
(100,100,l),
(100,359,l),
(77,320,o),
(40,285,o),
(10,275,c),
(10,146,ls),
(10,71,o),
(21,10,o),
(97,10,cs)
);
}
);
width = 110;
}
);
metricLeft = "=0";
metricRight = "=0@120";
}
{
glyphname = "behDotless-ar.medi.semi";
kernRight = beh;
layers = (
{
anchors = (
{
name = bottom;
pos = (18,-38);
},
{
name = damma;
pos = (-10,170);
},
{
name = entry;
pos = (100,0);
},
{
name = exit;
},
{
name = fatha;
pos = (43,417);
},
{
name = kasra;
pos = (51,-57);
},
{
name = top;
pos = (59,338);
}
);
attr = {
colorPalette = 4;
};
backgroundImage = {
alpha = 80;
angle = -0.4;
imagePath = "images/MS-ADD-01116-000-00025.jpg";
locked = 1;
pos = (-3501,-2714);
scale = (5,5);
};
layerId = m01;
shapes = (
{
closed = 1;
nodes = (
(100,0,l),
(100,369,ls),
(100,383,o),
(93,385,o),
(85,373,cs),
(61,331,o),
(19,292,o),
(-10,286,c),
(-10,110,l),
(-48,110,l),
(-48,0,l)
);
}
);
width = 100;
},
{
associatedMasterId = m01;
attr = {
colorPalette = 1;
};
layerId = "E0C6DF18-5C40-4855-B0D8-36CE65187AC9";
name = "Regular 16 Jan 24 at 13:41";
shapes = (
{
closed = 1;
nodes = (
(100,10,l),
(100,110,l),
(90,110,l),
(90,359,l),
(66,322,o),
(29,287,o),
(0,276,c),
(0,110,l),
(-50,110,l),
(-50,10,l)
);
}
);
width = 100;
}
);
metricLeft = "=behDotless-ar.medi";
metricRight = "=behDotless-ar.medi";
}
{
category = Letter;
glyphname = "behDotless_alefMaksura-ar.fina";
kernRight = beh;
layers = (
{
anchors = (
{
name = bottom_1;
pos = (23,-38);
},
{
name = bottom_2;
pos = (348,-230);
},
{
name = damma_1;
pos = (0,170);
},
{
name = damma_2;
pos = (-88,-82);
},
{
name = entry;
pos = (110,0);
},
{
name = fatha_1;
pos = (53,414);
},
{
name = fatha_2;
pos = (-83,272);
},
{
name = kasra_1;
pos = (56,-57);
},
{
name = kasra_2;
pos = (197,-308);
},
{
name = top_1;
pos = (69,335);
}
);
attr = {
colorPalette = 4;
};
backgroundImage = {
alpha = 80;
angle = 1.8;
imagePath = "images/MS-ADD-01116-000-00066.jpg";
locked = 1;
pos = (-2959,-1894);
scale = (5,5);
};
layerId = m01;
shapes = (
{
closed = 1;
nodes = (
(353,-228,o),
(367,-191,o),
(355,-136,cs),
(345,-90,o),
(335,-62,o),
(322,-38,cs),
(314,-24,o),
(302,-20,o),
(285,-21,cs),
(177,-26,o),
(148,-20,o),
(129,-17,cs),
(110,-14,o),
(110,-5,o),
(110,0,cs),
(110,366,ls),
(110,380,o),
(103,382,o),
(95,370,cs),
(71,328,o),
(29,289,o),
(0,283,c),
(0,0,ls),
(0,-47,o),
(4,-86,o),
(25,-105,c),
(14,-101,o),
(5,-95,o),
(-2,-90,c),
(-13,-111,o),
(-53,-172,o),
(-109,-193,c),
(-39,-260,o),
(192,-267,o),
(313,-238,cs)
);
}
);
width = 359;
},
{
anchors = (
{
name = entry;
pos = (6,0);
}
);
associatedMasterId = m01;
attr = {
colorPalette = 1;
};
backgroundImage = {
alpha = 80;
angle = 1.8;
imagePath = "images/MS-ADD-01116-000-00066.jpg";
locked = 1;
pos = (-2959,-1894);
scale = (5,5);
};
layerId = "BB5A3033-D661-402A-992B-C63FD966FB46";
metricLeft = "=10@0";
metricRight = "=10";
name = "16 Jan 24 at 19:46";
shapes = (
{
closed = 1;
nodes = (
(344,-218,o),
(356,-189,o),
(345,-136,cs),
(336,-94,o),
(325,-66,o),
(311,-41,cs),
(306,-33,o),
(299,-31,o),
(289,-31,cs),
(177,-35,o),
(146,-30,o),
(127,-27,cs),
(104,-23,o),
(100,-10,o),
(100,0,cs),
(100,10,l),
(110,10,l),
(110,100,l),
(100,100,l),
(100,359,l),
(77,320,o),
(40,285,o),
(10,275,c),
(10,0,ls),
(10,-103,o),
(34,-148,o),
(236,-127,c),
(237,-137,l),
(141,-151,o),
(50,-138,o),
(2,-107,c),
(-24,-149,o),
(-52,-176,o),
(-86,-196,c),
(-5,-248,o),
(200,-253,o),
(311,-226,cs)
);
}
);
width = 359;
}
);
metricLeft = "=0@0";
metricRight = "=0";
script = arabic;
sortName = arL0404;
subCategory = Ligature;
}
{
glyphname = "dotabove-ar.beh";
layers = (
{
anchors = (
{
name = _top;
pos = (74,38);
}
);
layerId = m01;
shapes = (
{
angle = 9;
pos = (4,-9);
ref = "dotabove-ar";
}
);
width = 96;
},
{
anchors = (
{
name = _top;
pos = (90,50);
}
);
associatedMasterId = m01;
layerId = "1951D83C-027C-46A2-BBE7-A485E6845D98";
name = "1 May 21, 00:30";
shapes = (
{
closed = 1;
nodes = (
(128,152,l),
(112,164,l),
(0,12,l),
(16,0,l)
);
}
);
width = 128;
},
{
anchors = (
{
name = _top;
pos = (79,38);
}
);
associatedMasterId = m01;
layerId = "35FFA398-3489-4430-A27C-01EFA9C459D5";
name = "25 Feb 23 at 15:48";
shapes = (
{
closed = 1;
nodes = (
(52,38,o),
(81,71,o),
(106,100,cs),
(117,113,o),
(101,126,o),
(91,113,cs),
(67,84,o),
(36,52,o),
(6,27,cs),
(-8,14,o),
(4,1,o),
(19,13,cs)
);
}
);
width = 110;
}
);
metricLeft = "=dotabove-ar";
metricRight = "=dotabove-ar";
}
{
category = Mark;
glyphname = "dotabove-ar";
layers = (
{
anchors = (
{
name = _top;
pos = (79,38);
}
);
attr = {
colorPalette = 4;
};
layerId = m01;
shapes = (
{
closed = 1;
nodes = (
(14,9,l),
(51,38,o),
(82,69,o),
(109,105,c),
(94,118,l),
(66,83,o),
(37,50,o),
(2,25,c)
);
}
);
width = 110;
}
);
script = arabic;
sortName = arM1060;
sortNameKeep = arM1060;
subCategory = Nonspacing;
}
{
category = Mark;
glyphname = "dotabove-ar.reh";
layers = (
{
anchors = (
{
name = _top;
pos = (63,50);
}
);
attr = {
colorPalette = 4;
};
layerId = m01;
shapes = (
{
closed = 1;
nodes = (
(10,20,l),
(40,51,o),
(71,85,o),
(98,119,c),
(82,132,l),
(55,97,o),
(27,65,o),
(-4,34,c)
);
}
);
width = 94;
}
);
production = dotabovear.reh;
script = arabic;
sortName = arM1060.reh;
sortNameKeep = arM1060.reh;
subCategory = Nonspacing;
}
{
category = Punctuation;
glyphname = "endofayah-ar.05";
layers = (
{
associatedMasterId = m01;
attr = {
colorPalette = 6;
};
backgroundImage = {
alpha = 80;
imagePath = "images/MS-ADD-01116-000-00012.jpg";
locked = 1;
pos = (-2787,-2732);
scale = (5,5);
};
layerId = "38461C08-F54E-4BE4-9620-3C6CF5840E38";
shapes = (
{
closed = 1;
nodes = (
(284,4,o),
(327,10,o),
(329,68,cs),
(329,103,o),
(337,308,o),
(316,356,cs),
(307,376,o),
(301,364,o),
(293,356,cs),
(267,330,o),
(249,308,o),
(228,292,cs),
(219,285,o),
(218,274,o),
(221,265,cs),
(223,257,o),
(226,248,o),
(227,238,c),
(147,225,o),
(69,188,o),
(69,106,cs),
(69,16,o),
(178,-4,o),
(233,0,cs)
);
},
{
closed = 1;
nodes = (
(232,122,o),
(228,126,o),
(228,130,cs),
(228,135,o),
(232,138,o),
(236,138,cs),
(241,138,o),
(244,135,o),
(244,130,cs),
(244,126,o),
(241,122,o),
(236,122,cs)
);
}
);
width = 400;
},
{
attr = {
colorPalette = 7;
};
layerId = m01;
metricRight = "=60";
name = Regular;
shapes = (
{
closed = 1;
nodes = (
(285,-6,o),
(337,1,o),
(339,68,cs),
(339,103,o),
(347,310,o),
(325,360,cs),
(313,387,o),
(300,377,o),
(286,363,cs),
(260,337,o),
(242,315,o),
(222,300,cs),
(209,290,o),
(208,274,o),
(211,262,cs),
(213,257,o),
(214,252,o),
(216,246,c),
(137,231,o),
(59,192,o),
(59,106,cs),
(59,7,o),
(177,-14,o),
(234,-10,cs)
);
}
);
width = 400;
}
);
metricRight = "=70";
script = arabic;
sortName = arP0989.05;
}
{
color = 9;
glyphname = "fehDotless-ar.fina";
kernRight = feh.medi;
layers = (
{
anchors = (
{
name = bottom;
pos = (830,-36);
},
{
name = damma;
pos = (-37,60);
},
{
name = entry;
pos = (997,0);
},
{
name = fatha;
pos = (821,471);
},
{
name = kasra;
pos = (830,-53);
},
{
name = top;
pos = (688,357);
}
);
backgroundImage = {
alpha = 80;
imagePath = "images/MS-ADD-01116-000-00012.jpg";
locked = 1;
pos = (-4282,-2769);
scale = (5,5);
};
layerId = m01;
shapes = (
{
closed = 1;
nodes = (
(437,-6,o),
(569,-1,o),
(997,0,c),
(997,110,l),
(927,110,l),
(991,47,l),
(993,103,o),
(996,158,o),
(996,188,cs),
(996,327,o),
(916,413,o),
(822,413,cs),
(729,413,o),
(635,338,o),
(635,231,cs),
(635,145,o),
(699,97,o),
(758,62,c),
(810,100,l),
(463,94,o),
(412,96,o),
(195,100,cs),
(151,101,o),
(126,101,o),
(87,119,cs),
(79,123,o),
(71,127,o),
(67,110,cs),
(59,79,o),
(39,50,o),
(13,38,cs),
(-3,31,o),
(-4,21,o),
(10,13,cs),
(38,-3,o),
(79,-9,o),
(139,-8,cs)
);
},
{
closed = 1;
nodes = (
(821,238,o),
(815,244,o),
(815,251,cs),
(815,257,o),
(821,263,o),
(828,263,cs),
(834,263,o),
(840,257,o),
(840,251,cs),
(840,244,o),
(834,238,o),
(828,238,cs)
);
}
);
width = 997;
},
{
anchors = (
{
name = bottom;
pos = (5833,-36);
},
{
name = damma;
pos = (-37,60);
},
{
name = entry;
pos = (6000,0);
},
{
name = fatha;
pos = (5824,471);
},
{
name = kasra;
pos = (5833,-53);
},
{
name = top;
pos = (5691,357);
}
);
associatedMasterId = m01;
attr = {
coordinates = (
100
);
};
backgroundImage = {
alpha = 80;
imagePath = "images/MS-ADD-01116-000-00012.jpg";
locked = 1;
pos = (-4282,-2769);
scale = (5,5);
};
layerId = "8DA8B023-25F4-4741-AFF4-D0E0186CAD99";
name = "{0, 100} 17 May 23 at 17:50";
shapes = (
{
closed = 1;
nodes = (
(1237,10,o),
(5372,-1,o),
(6000,0,c),
(6000,110,l),
(5930,110,l),
(5994,47,l),
(5996,103,o),
(5999,158,o),
(5999,188,cs),
(5999,327,o),
(5919,413,o),
(5825,413,cs),
(5732,413,o),
(5638,338,o),
(5638,231,cs),
(5638,145,o),
(5702,97,o),
(5761,62,c),
(5813,100,l),
(5266,91,o),
(1212,81,o),
(255,99,cs),
(151,101,o),
(126,101,o),
(87,119,cs),
(79,123,o),
(71,127,o),
(67,110,cs),
(59,79,o),
(39,50,o),
(13,38,cs),
(-3,31,o),
(-4,21,o),
(10,13,cs),
(38,-3,o),
(79,-9,o),
(139,-8,cs)
);
},
{
closed = 1;
nodes = (
(5824,238,o),
(5818,244,o),
(5818,251,cs),
(5818,257,o),
(5824,263,o),
(5831,263,cs),
(5837,263,o),
(5843,257,o),
(5843,251,cs),
(5843,244,o),
(5837,238,o),
(5831,238,cs)
);
}
);
width = 6000;
},
{
anchors = (
{
name = bottom;
pos = (430,-36);
},
{
name = damma;
pos = (-37,60);
},
{
name = entry;
pos = (597,0);
},
{
name = fatha;
pos = (421,471);
},
{
name = kasra;
pos = (430,-53);
},
{
name = top;
pos = (288,357);
}
);
associatedMasterId = m01;
attr = {
coordinates = (
0
);
};
backgroundImage = {
alpha = 80;
imagePath = "images/MS-ADD-01116-000-00012.jpg";
locked = 1;
pos = (-4282,-2769);
scale = (5,5);
};
layerId = "FF04A85A-4637-4F86-8F13-07935D0179A3";
name = "17 May 23 at 17:51";
shapes = (
{
closed = 1;
nodes = (
(307,-6,o),
(399,-1,o),
(597,0,c),
(597,110,l),
(527,110,l),
(591,47,l),
(593,103,o),
(596,158,o),
(596,188,cs),
(596,327,o),
(516,413,o),
(422,413,cs),
(329,413,o),
(235,338,o),
(235,231,cs),
(235,145,o),
(299,97,o),
(358,62,c),
(410,100,l),
(355,98,o),
(256,92,o),
(177,99,cs),
(141,102,o),
(110,108,o),
(87,119,cs),
(79,123,o),
(71,127,o),
(67,110,cs),
(59,79,o),
(39,50,o),
(13,38,cs),
(-3,31,o),
(-4,21,o),
(10,13,cs),
(38,-3,o),
(79,-9,o),
(139,-8,cs)
);
},
{
closed = 1;
nodes = (
(421,238,o),
(415,244,o),
(415,251,cs),
(415,257,o),
(421,263,o),
(428,263,cs),
(434,263,o),
(440,257,o),
(440,251,cs),
(440,244,o),
(434,238,o),
(428,238,cs)
);
}
);
visible = 1;
width = 597;
}
);
metricRight = "=0";
}
{
category = Letter;
glyphname = "fehDotless-ar.init";
kernRight = feh.init;
layers = (
{
anchors = (
{
name = bottom;
pos = (295,43);
},
{
name = damma;
pos = (-37,172);
},
{
name = exit;
},
{
name = fatha;
pos = (133,513);
},
{
name = kasra;
pos = (212,-44);
},
{
name = top;
pos = (18,411);
}
);
attr = {
colorPalette = 4;
};
backgroundImage = {
alpha = 80;
imagePath = "images/MS-ADD-01116-000-00012.jpg";
pos = (-1784,-3557);
scale = (5,5);
};
layerId = m01;
shapes = (
{
closed = 1;
nodes = (
(130,-2,o),
(334,-3,o),
(334,115,cs),
(334,287,o),
(251,462,o),
(136,462,cs),
(29,462,o),
(-47,351,o),
(-47,260,cs),
(-47,216,o),
(-24,155,o),
(10,132,cs),
(66,94,o),
(165,105,o),
(213,114,c),
(213,121,l),
(154,109,o),
(69,109,o),
(-20,110,c),
(-20,0,l)
);
}
);
width = 334;
},
{
associatedMasterId = m01;
backgroundImage = {
alpha = 80;
imagePath = "images/MS-ADD-01116-000-00012.jpg";
pos = (-1784,-3557);
scale = (5,5);
};
layerId = "E3FD7D17-7914-4D01-AFBC-AEEBA73638D1";
name = "16 Sep 25 at 00:18";
shapes = (
{
closed = 1;
nodes = (
(-32,-20,o),
(334,-14,o),
(334,115,cs),
(334,287,o),
(251,462,o),
(136,462,cs),
(29,462,o),
(-47,351,o),
(-47,260,cs),
(-47,216,o),
(-24,155,o),
(10,132,cs),
(66,94,o),
(165,106,o),
(213,115,c),
(213,127,l),
(165,121,o),
(41,94,o),
(-34,170,c),
(-92,6,l)
);
}
);
width = 334;
},
{
anchors = (
{
name = bottom;
pos = (295,43);
},
{
name = damma;
pos = (-37,172);
},
{
name = exit;
},
{
name = fatha;
pos = (133,513);
},
{
name = kasra;
pos = (212,-44);
},
{
name = top;
pos = (18,411);
}
);
associatedMasterId = m01;
attr = {
colorPalette = 1;
};
backgroundImage = {
alpha = 80;
imagePath = "images/MS-ADD-01116-000-00012.jpg";
pos = (-1784,-3557);
scale = (5,5);
};
layerId = "263086C7-F2CB-42DA-84F6-54800BF42854";
metricLeft = "=-30@10";
name = "16 Sep 25 at 00:19";
shapes = (
{
closed = 1;
nodes = (
(122,8,o),
(324,5,o),
(324,115,cs),
(324,283,o),
(243,452,o),
(136,452,cs),
(36,452,o),
(-37,347,o),
(-37,260,cs),
(-37,218,o),
(-15,161,o),
(16,140,cs),
(66,106,o),
(154,114,o),
(203,122,c),
(203,109,l),
(152,99,o),
(64,99,o),
(-30,100,c),
(-30,10,l)
);
},
{
closed = 1;
nodes = (
(126,287,o),
(120,293,o),
(120,300,cs),
(120,306,o),
(126,312,o),
(133,312,cs),
(139,312,o),
(145,306,o),
(145,300,cs),
(145,293,o),
(139,287,o),
(133,287,cs)
);
}
);
width = 334;
}
);
metricLeft = "=-20@0";
metricRight = "=fehDotless-ar.init";
script = arabic;
sortName = arL0042;
}
{
category = Letter;
glyphname = "fehDotless-ar.init.hah";
kernRight = feh.init;
layers = (
{
anchors = (
{
name = bottom;
pos = (284,50);
},
{
name = damma;
pos = (-43,172);
},
{
name = exit;
pos = (10,0);
},
{
name = fatha;
pos = (127,513);
},
{
name = kasra;
pos = (206,-44);
},
{
name = top;
pos = (12,411);
}
);
attr = {
colorPalette = 4;
};
backgroundImage = {
alpha = 80;
imagePath = "images/MS-ADD-01116-000-00012.jpg";
pos = (-1790,-3557);
scale = (5,5);
};
layerId = m01;
shapes = (
{
closed = 1;
nodes = (
(224,12,o),
(328,46,o),
(328,115,cs),
(328,287,o),
(245,462,o),
(130,462,cs),
(23,462,o),
(-53,351,o),
(-53,260,cs),
(-53,216,o),
(-30,151,o),
(4,128,cs),
(60,90,o),
(159,101,o),
(207,110,c),
(207,121,l),
(133,109,o),
(28,93,o),
(-40,170,c),
(1,105,o),
(52,46,o),
(117,0,c)
);
}
);
width = 328;
},
{
anchors = (
{
name = bottom;
pos = (284,50);
},
{
name = damma;
pos = (-43,172);
},
{
name = exit;
},
{
name = fatha;
pos = (127,513);
},
{
name = kasra;
pos = (206,-44);
},
{
name = top;
pos = (12,411);
}
);
associatedMasterId = m01;
attr = {
colorPalette = 1;
};
backgroundImage = {
alpha = 80;
imagePath = "images/MS-ADD-01116-000-00012.jpg";
pos = (-1790,-3557);
scale = (5,5);
};
layerId = "6B8AFCDB-7753-4611-B4C7-C7DCB5AF0F1C";
name = "16 Sep 25 at 00:23";
shapes = (
{
closed = 1;
nodes = (
(66,-5,o),
(318,17,o),
(318,115,cs),
(318,283,o),
(237,452,o),
(130,452,cs),
(30,452,o),
(-43,347,o),
(-43,260,cs),
(-43,218,o),
(-21,157,o),
(10,136,cs),
(60,102,o),
(148,110,o),
(197,118,c),
(197,109,l),
(135,99,o),
(23,81,o),
(-50,166,c),
(-50,6,l)
);
},
{
closed = 1;
nodes = (
(120,287,o),
(114,293,o),
(114,300,cs),
(114,306,o),
(120,312,o),
(127,312,cs),
(133,312,o),
(139,306,o),
(139,300,cs),
(139,293,o),
(133,287,o),
(127,287,cs)
);
}
);
width = 328;
}
);
metricRight = "=fehDotless-ar.init";
script = arabic;
sortName = arL0042.hah;
}
{
category = Letter;
glyphname = "fehDotless-ar.init.yeh";
kernRight = feh.init;
layers = (
{
anchors = (
{
name = bottom;
pos = (284,50);
},
{
name = damma;
pos = (-43,172);
},
{
name = exit;
},
{
name = fatha;
pos = (127,513);
},
{
name = kasra;
pos = (206,-44);
},
{
name = top;
pos = (12,411);
}
);
attr = {
colorPalette = 4;
};
backgroundImage = {
alpha = 80;
imagePath = "images/MS-ADD-01116-000-00012.jpg";
pos = (-1790,-3557);
scale = (5,5);
};
layerId = m01;
shapes = (
{
closed = 1;
nodes = (
(-23,155,o),
(-32,162,o),
(-40,170,c),
(-98,6,l),
(-38,-20,o),
(328,-14,o),
(328,115,cs),
(328,287,o),
(245,462,o),
(130,462,cs),
(23,462,o),
(-53,351,o),
(-53,260,cs),
(-53,224,o),
(-38,177,o),
(-14,149,c)
);
}
);
width = 328;
},
{
anchors = (
{
name = bottom;
pos = (284,50);
},
{
name = damma;
pos = (-43,172);
},
{
name = exit;
},
{
name = fatha;
pos = (127,513);
},
{
name = kasra;
pos = (206,-44);
},
{
name = top;
pos = (12,411);
}
);
associatedMasterId = m01;
attr = {
colorPalette = 1;
};
backgroundImage = {
alpha = 80;
imagePath = "images/MS-ADD-01116-000-00012.jpg";
pos = (-1790,-3557);
scale = (5,5);
};
layerId = "0033A79E-DFBD-4DF3-9245-3BA1CAE318D9";
metricRight = "=10";
name = "16 Sep 25 at 00:10";
shapes = (
{
closed = 1;
nodes = (
(-22,-10,o),
(318,1,o),
(318,115,cs),
(318,283,o),
(237,452,o),
(130,452,cs),
(30,452,o),
(-43,347,o),
(-43,260,cs),
(-43,218,o),
(-21,161,o),
(10,140,cs),
(60,106,o),
(148,117,o),
(197,125,c),
(197,115,l),
(160,109,o),
(29,82,o),
(-51,166,c),
(-103,18,l)
);
},
{
closed = 1;
nodes = (
(120,287,o),
(114,293,o),
(114,300,cs),
(114,306,o),
(120,312,o),
(127,312,cs),
(133,312,o),
(139,306,o),
(139,300,cs),
(139,293,o),
(133,287,o),
(127,287,cs)
);
}
);
width = 328;
}
);
metricRight = "=0";
production = fehDotlessar.init.yeh;
script = arabic;
sortName = arL0042.yeh;
sortNameKeep = arL0042.yeh;
}
{
category = Letter;
glyphname = "fehDotless-ar.medi";
kernRight = feh.medi;
layers = (
{
anchors = (
{
name = bottom;
pos = (208,-35);
},
{
name = damma;
pos = (3,172);
},
{
name = entry;
pos = (377,0);
},
{
name = exit;
},
{
name = fatha;
pos = (201,461);
},
{
name = kasra;
pos = (230,-51);
},
{
name = top;
pos = (80,367);
}
);
attr = {
colorPalette = 4;
};
backgroundImage = {
alpha = 80;
imagePath = "images/MS-ADD-01116-000-00012.jpg";
locked = 1;
pos = (-4900,-2769);
scale = (5,5);
};
layerId = m01;
shapes = (
{
closed = 1;
nodes = (
(377,0,l),
(377,188,ls),
(377,327,o),
(296,413,o),
(202,413,cs),
(109,413,o),
(15,338,o),
(15,231,cs),
(15,145,o),
(79,97,o),
(138,62,c),
(106,110,l),
(-20,110,l),
(-20,0,l)
);
}
);
width = 377;
},
{
associatedMasterId = m01;
attr = {
colorPalette = 1;
};
backgroundImage = {
alpha = 80;
imagePath = "images/MS-ADD-01116-000-00012.jpg";
locked = 1;
pos = (-4900,-2769);
scale = (5,5);
};
layerId = "006FB352-3ACA-462E-8D31-A0C5BE5C9A36";
name = "Regular 22 Aug 24 at 15:00";
shapes = (
{
closed = 1;
nodes = (
(377,10,l),
(377,100,l),
(367,100,l),
(367,188,ls),
(367,321,o),
(290,403,o),
(202,403,cs),
(114,403,o),
(25,332,o),
(25,231,cs),
(25,169,o),
(60,128,o),
(103,97,c),
(101,100,l),
(-20,100,l),
(-20,10,l)
);
},
{
closed = 1;
nodes = (
(201,238,o),
(195,244,o),
(195,251,cs),
(195,257,o),
(201,263,o),
(208,263,cs),
(214,263,o),
(220,257,o),
(220,251,cs),
(220,244,o),
(214,238,o),
(208,238,cs)
);
}
);
width = 377;
}
);
metricLeft = "=-20";
metricRight = "=0";
script = arabic;
sortName = arL0041;
}
{
category = Letter;
glyphname = "fehDotless_alef-ar.lam";
kernRight = feh.init;
layers = (
{
anchors = (
{
name = caret_1;
pos = (79,0);
},
{
name = damma_1;
pos = (79,248);
},
{
name = damma_2;
pos = (-47,66);
},
{
name = fatha_1;
pos = (277,507);
},
{
name = fatha_2;
pos = (95,669);
},
{
name = kasra_1;
pos = (397,-49);
},
{
name = kasra_2;
pos = (72,-56);
},
{
name = madda_2;
pos = (-66,619);
},
{
name = top_1;
pos = (171,432);
}
);
attr = {
colorPalette = 4;
};
backgroundImage = {
alpha = 80;
imagePath = "images/MS-ADD-01116-000-00005.jpg";
locked = 1;
pos = (-3997,-3724);
scale = (5,5);
};
layerId = m01;
shapes = (
{
closed = 1;
nodes = (
(428,-10,o),
(489,23,o),
(489,122,cs),
(489,309,o),
(378,459,o),
(268,460,cs),
(136,461,o),
(80,330,o),
(80,222,c),
(90,213,l),
(90,781,ls),
(90,808,o),
(79,795,o),
(71,784,cs),
(50,755,o),
(20,714,o),
(-10,689,c),
(-10,230,ls),
(-10,141,o),
(-13,68,o),
(30,30,cs),
(69,-6,o),
(101,-14,o),
(215,-13,cs)
);
}
);
width = 489;
},
{
associatedMasterId = m01;
attr = {
colorPalette = 1;
};
backgroundImage = {
alpha = 80;
imagePath = "images/MS-ADD-01116-000-00005.jpg";
locked = 1;
pos = (-3997,-3724);
scale = (5,5);
};
layerId = "9AA3F44B-4D5B-4F9F-A408-0EF1ADE08EEC";
name = "Regular 9 Sep 25 at 06:53";
shapes = (
{
closed = 1;
nodes = (
(366,96,l),
(180,92,o),
(80,111,o),
(80,222,cs),
(80,777,l),
(59,746,o),
(35,713,o),
(0,683,c),
(0,230,ls),
(0,141,o),
(-3,72,o),
(37,37,cs),
(74,3,o),
(102,-4,o),
(215,-3,cs),
(424,0,o),
(479,30,o),
(479,122,cs),
(479,304,o),
(372,449,o),
(268,450,cs),
(143,451,o),
(90,327,o),
(90,222,cs),
(90,120,o),
(181,102,o),
(366,106,c)
);
},
{
closed = 1;
nodes = (
(288,265,o),
(282,271,o),
(282,278,cs),
(282,284,o),
(288,290,o),
(295,290,cs),
(301,290,o),
(307,284,o),
(307,278,cs),
(307,271,o),
(301,265,o),
(295,265,cs)
);
}
);
visible = 1;
width = 489;
}
);
metricLeft = "=alef-ar.fina.lam";
metricRight = "=0";
script = arabic;
sortName = arL0403;
sortNameKeep = arL0403;
subCategory = Ligature;
}
{
category = Letter;
color = 9;
glyphname = "hah-ar.fina";
kernRight = hah.init;
layers = (
{
anchors = (
{
name = bottom;
pos = (608,-50);
},
{
name = damma;
pos = (-46,54);
},
{
name = entry;
pos = (432,115);
},
{
name = fatha;
pos = (353,353);
},
{
name = kasra;
pos = (776,-60);
},
{
name = top;
pos = (332,251);
}
);
layerId = m01;
shapes = (
{
closed = 1;
nodes = (
(422,-99,o),
(578,-26,o),
(649,7,c),
(620,56,l),
(321,-18,l),
(320,0,l),
(805,0,l),
(821,25,o),
(856,69,o),
(893,110,c),
(581,110,ls),
(521,110,o),
(426,234,o),
(369,309,c),
(338,271,o),
(303,241,o),
(266,217,c),
(310,152,o),
(380,78,o),
(439,38,c),
(422,99,l),
(302,66,o),
(257,220,o),
(160,220,cs),
(79,220,o),
(0,126,o),
(0,43,cs),
(0,-89,o),
(164,-98,o),
(209,-98,cs)
);
}
);
width = 893;
},
{
associatedMasterId = m01;
attr = {
colorPalette = 4;
};
layerId = "12FBFB98-926E-4FD2-A2B0-5B8C6C6DFD7F";
name = "3 Jan 26 at 19:06";
shapes = (
{
closed = 1;
nodes = (
(422,-99,o),
(578,-26,o),
(649,7,c),
(620,56,l),
(321,-18,l),
(320,0,l),
(805,0,l),
(821,25,o),
(856,69,o),
(893,110,c),
(581,110,ls),
(521,110,o),
(426,234,o),
(369,309,c),
(338,271,o),
(303,241,o),
(266,217,c),
(310,152,o),
(380,78,o),
(439,38,c),
(422,99,l),
(302,66,o),
(257,220,o),
(160,220,cs),
(79,220,o),
(0,126,o),
(0,43,cs),
(0,-89,o),
(164,-98,o),
(209,-98,cs)
);
}
);
width = 893;
},
{
associatedMasterId = m01;
attr = {
colorPalette = 1;
};
layerId = "2B73A5FC-36C3-4F55-B87B-0722D058543F";
metricLeft = "=10";
metricRight = "=23";
name = "Color 4 3 Jan 26 at 19:06";
shapes = (
{
closed = 1;
nodes = (
(405,-88,o),
(546,-25,o),
(609,0,c),
(365,0,ls),
(249,0,o),
(152,12,o),
(133,94,c),
(143,96,l),
(160,21,o),
(251,10,o),
(365,10,cs),
(800,10,l),
(814,31,o),
(840,66,o),
(870,100,c),
(581,100,l),
(519,100,o),
(431,211,o),
(368,293,c),
(341,261,o),
(311,236,o),
(280,214,c),
(320,157,o),
(379,94,o),
(432,55,c),
(446,95,l),
(289,44,o),
(260,210,o),
(160,210,cs),
(84,210,o),
(10,122,o),
(10,44,cs),
(10,-78,o),
(164,-87,o),
(209,-87,cs)
);
}
);
width = 893;
},
{
anchors = (
{
name = bottom;
pos = (608,-50);
},
{
name = damma;
pos = (-46,54);
},
{
name = entry;
pos = (532,115);
},
{
name = fatha;
pos = (453,353);
},
{
name = kasra;
pos = (776,-60);
},
{
name = top;
pos = (432,251);
}
);
associatedMasterId = m01;
attr = {
coordinates = (
20
);
};
layerId = "0F9B49BE-BF68-49EF-BE85-740301FC07D7";
name = "{20} 3 Jan 26 at 19:10";
shapes = (
{
closed = 1;
nodes = (
(422,-99,o),
(578,-26,o),
(649,7,c),
(620,56,l),
(321,-18,l),
(320,0,l),
(905,0,l),
(921,25,o),
(956,69,o),
(993,110,c),
(681,110,ls),
(621,110,o),
(526,234,o),
(469,309,c),
(438,271,o),
(403,241,o),
(366,217,c),
(410,152,o),
(480,78,o),
(539,38,c),
(535,106,l),
(248,59,o),
(272,220,o),
(160,220,cs),
(79,220,o),
(0,126,o),
(0,43,cs),
(0,-89,o),
(164,-98,o),
(209,-98,cs)
);
}
);
width = 993;
},
{
associatedMasterId = m01;
attr = {
colorPalette = 4;
coordinates = (
20
);
};
layerId = "D21790A7-3EC0-4C01-BBFD-FD13DEDB0E85";
name = "Color 4 {20} 3 Jan 26 at 19:10";
shapes = (
{
closed = 1;
nodes = (
(422,-99,o),
(578,-26,o),
(649,7,c),
(620,56,l),
(321,-18,l),
(320,0,l),
(905,0,l),
(921,25,o),
(956,69,o),
(993,110,c),
(681,110,ls),
(621,110,o),
(526,234,o),
(469,309,c),
(438,271,o),
(403,241,o),
(366,217,c),
(410,152,o),
(480,78,o),
(539,38,c),
(535,106,l),
(248,59,o),
(272,220,o),
(160,220,cs),
(79,220,o),
(0,126,o),
(0,43,cs),
(0,-89,o),
(164,-98,o),
(209,-98,cs)
);
}
);
width = 993;
},
{
associatedMasterId = m01;
attr = {
colorPalette = 1;
coordinates = (
20
);
};
layerId = "F3CF327B-6DB9-4C99-8E04-035A8257979F";
metricLeft = "=10";
metricRight = "=23";
name = "{20} 3 Jan 26 at 19:09";
shapes = (
{
closed = 1;
nodes = (
(405,-88,o),
(546,-25,o),
(609,0,c),
(365,0,ls),
(249,0,o),
(152,12,o),
(133,94,c),
(143,96,l),
(160,21,o),
(251,10,o),
(365,10,cs),
(900,10,l),
(914,31,o),
(940,66,o),
(970,100,c),
(681,100,l),
(619,100,o),
(531,211,o),
(468,293,c),
(441,261,o),
(411,236,o),
(380,214,c),
(420,157,o),
(479,94,o),
(532,55,c),
(559,102,l),
(253,42,o),
(257,210,o),
(160,210,cs),
(84,210,o),
(10,122,o),
(10,44,cs),
(10,-78,o),
(164,-87,o),
(209,-87,cs)
);
}
);
width = 993;
},
{
anchors = (
{
name = bottom;
pos = (608,-50);
},
{
name = damma;
pos = (-46,54);
},
{
name = entry;
pos = (532,115);
},
{
name = fatha;
pos = (453,353);
},
{
name = kasra;
pos = (776,-60);
},
{
name = top;
pos = (432,251);
}
);
associatedMasterId = m01;
attr = {
coordinates = (
100
);
};
layerId = "5FF4702E-AE3F-4915-A8C6-47C47CD6C218";
name = "{100} 3 Jan 26 at 19:13";
shapes = (
{
closed = 1;
nodes = (
(422,-99,o),
(578,-26,o),
(649,7,c),
(620,56,l),
(321,-18,l),
(320,0,l),
(905,0,l),
(921,25,o),
(956,69,o),
(993,110,c),
(681,110,ls),
(621,110,o),
(526,234,o),
(469,309,c),
(438,271,o),
(403,241,o),
(366,217,c),
(410,152,o),
(480,78,o),
(539,38,c),
(535,106,l),
(248,59,o),
(272,220,o),
(160,220,cs),
(79,220,o),
(0,126,o),
(0,43,cs),
(0,-89,o),
(164,-98,o),
(209,-98,cs)
);
}
);
width = 993;
},
{
associatedMasterId = m01;
attr = {
colorPalette = 4;
coordinates = (
100
);
};
layerId = "CA451A97-2056-4DD4-A001-0B8DFF813C4B";
name = "17 May 23 at 17:56";
shapes = (
{
closed = 1;
nodes = (
(422,-99,o),
(578,-26,o),
(649,7,c),
(620,56,l),
(321,-18,l),
(320,0,l),
(905,0,l),
(921,25,o),
(956,69,o),
(993,110,c),
(681,110,ls),
(621,110,o),
(526,234,o),
(469,309,c),
(438,271,o),
(403,241,o),
(366,217,c),
(410,152,o),
(480,78,o),
(539,38,c),
(535,106,l),
(248,59,o),
(272,220,o),
(160,220,cs),
(79,220,o),
(0,126,o),
(0,43,cs),
(0,-89,o),
(164,-98,o),
(209,-98,cs)
);
}
);
width = 993;
},
{
associatedMasterId = m01;
attr = {
colorPalette = 1;
coordinates = (
100
);
};
layerId = "DD3F2CEE-69BE-408C-8ECA-49EC6BCB506F";
metricLeft = "=10";
metricRight = "=23";
name = "3 Jan 26 at 19:13";
shapes = (
{
closed = 1;
nodes = (
(405,-88,o),
(546,-25,o),
(609,0,c),
(365,0,ls),
(249,0,o),
(152,12,o),
(133,94,c),
(143,96,l),
(160,21,o),
(251,10,o),
(365,10,cs),
(900,10,l),
(914,31,o),
(940,66,o),
(970,100,c),
(681,100,l),
(619,100,o),
(531,211,o),
(468,293,c),
(441,261,o),
(411,236,o),
(380,214,c),
(420,157,o),
(479,94,o),
(532,55,c),
(559,102,l),
(253,42,o),
(257,210,o),
(160,210,cs),
(84,210,o),
(10,122,o),
(10,44,cs),
(10,-78,o),
(164,-87,o),
(209,-87,cs)
);
}
);
width = 993;
}
);
metricLeft = "=0";
metricRight = "=0";
script = arabic;
sortName = arL0015;
sortNameKeep = arL0015;
}
{
category = Letter;
glyphname = "hah-ar.init";
kernLeft = hah;
kernRight = hah.init;
layers = (
{
anchors = (
{
name = bottom;
pos = (250,-40);
},
{
name = damma;
pos = (38,142);
},
{
name = exit;
},
{
name = fatha;
pos = (406,177);
},
{
name = kasra;
pos = (478,-52);
},
{
name = top;
pos = (57,236);
}
);
attr = {
colorPalette = 4;
};
backgroundImage = {
alpha = 80;
angle = -1.3;
imagePath = "images/MS-ADD-01116-000-00003.jpg";
locked = 1;
pos = (-2568,-3771);
scale = (5,5);
};
layerId = m01;
shapes = (
{
closed = 1;
nodes = (
(615,0,l),
(631,25,o),
(666,68,o),
(703,108,c),
(600,109,o),
(249,85,o),
(101,292,c),
(77,256,o),
(34,208,o),
(5,187,c),
(50,135,o),
(107,91,o),
(167,63,c),
(173,110,l),
(-5,110,l),
(-5,0,l)
);
}
);
width = 703;
},
{
associatedMasterId = m01;
attr = {
colorPalette = 1;
};
backgroundImage = {
alpha = 80;
angle = -1.3;
imagePath = "images/MS-ADD-01116-000-00003.jpg";
locked = 1;
pos = (-2568,-3771);
scale = (5,5);
};
layerId = "5B35F2F0-09C9-4F9D-8483-5AF632161DA2";
name = "22 Aug 24 at 16:11";
shapes = (
{
closed = 1;
nodes = (
(610,10,l),
(624,32,o),
(651,65,o),
(680,98,c),
(558,97,o),
(247,88,o),
(101,275,c),
(79,244,o),
(46,207,o),
(20,186,c),
(59,141,o),
(108,104,o),
(159,78,c),
(162,100,l),
(-20,100,l),
(-20,10,l)
);
}
);
width = 703;
},
{
anchors = (
{
name = bottom;
pos = (250,-40);
},
{
name = damma;
pos = (38,142);
},
{
name = exit;
},
{
name = fatha;
pos = (406,177);
},
{
name = kasra;
pos = (478,-52);
},
{
name = top;
pos = (57,236);
}
);
associatedMasterId = m01;
backgroundImage = {
alpha = 80;
angle = -1.3;
imagePath = "images/MS-ADD-01116-000-00003.jpg";
locked = 1;
pos = (-2568,-3771);
scale = (5,5);
};
layerId = "00298238-1F99-4232-8533-2EE669AFDD51";
name = "22 Aug 24 at 16:09";
shapes = (
{
closed = 1;
nodes = (
(123,-1,o),
(433,6,o),
(576,6,cs),
(593,6,o),
(622,9,o),
(634,20,cs),
(656,39,o),
(678,60,o),
(700,92,cs),
(706,101,o),
(703,108,o),
(692,108,cs),
(464,108,o),
(256,111,o),
(113,277,cs),
(105,286,o),
(94,283,o),
(90,277,cs),
(67,242,o),
(38,211,o),
(18,198,cs),
(6,190,o),
(7,184,o),
(18,173,cs),
(63,125,o),
(107,91,o),
(167,63,c),
(173,110,l),
(-20,110,l),
(-20,0,l)
);
}
);
visible = 1;
width = 703;
}
);
script = arabic;
sortName = arL0017;
sortNameKeep = arL0017;
}
{
category = Letter;
glyphname = "hah-ar.init.hah";
kernLeft = hah;
kernRight = hah.init;
layers = (
{
anchors = (
{
name = bottom;
pos = (437,-67);
},
{
name = damma;
pos = (28,121);
},
{
name = exit;
pos = (15,0);
},
{
name = fatha;
pos = (407,177);
},
{
name = kasra;
pos = (506,-52);
},
{
name = top;
pos = (21,249);
}
);
attr = {
colorPalette = 4;
};
backgroundImage = {
alpha = 80;
imagePath = "images/MS-ADD-01116-000-00012.jpg";
locked = 1;
pos = (-2138,-1861);
scale = (5,5);
};
layerId = m01;
shapes = (
{
closed = 1;
nodes = (
(517,29,o),
(560,71,o),
(596,108,c),
(443,109,o),
(182,128,o),
(69,311,c),
(46,275,o),
(3,225,o),
(-28,202,c),
(18,144,o),
(81,94,o),
(147,63,c),
(137,110,l),
(93,103,o),
(33,94,o),
(-11,145,c),
(-11,127,o),
(61,48,o),
(125,0,c),
(492,0,l)
);
}
);
width = 596;
},
{
anchors = (
{
name = exit;
}
);
associatedMasterId = m01;
attr = {
colorPalette = 1;
};
backgroundImage = {
alpha = 80;
imagePath = "images/MS-ADD-01116-000-00012.jpg";
locked = 1;
pos = (-2138,-1861);
scale = (5,5);
};
layerId = "CC2455A2-6A20-4CB5-8325-E783F95CDE9C";
metricRight = "=23";
name = "3 Jan 26 at 17:00";
shapes = (
{
closed = 1;
nodes = (
(510,35,o),
(542,67,o),
(573,98,c),
(421,101,o),
(184,125,o),
(69,291,c),
(49,261,o),
(13,222,o),
(-14,200,c),
(31,146,o),
(90,101,o),
(151,72,c),
(139,100,l),
(97,93,o),
(40,85,o),
(-7,125,c),
(-7,10,l),
(488,10,l)
);
}
);
width = 596;
},
{
anchors = (
{
name = bottom;
pos = (437,-67);
},
{
name = damma;
pos = (28,121);
},
{
name = exit;
},
{
name = fatha;
pos = (407,177);
},
{
name = kasra;
pos = (506,-52);
},
{
name = top;
pos = (21,249);
}
);
associatedMasterId = m01;
backgroundImage = {
alpha = 80;
imagePath = "images/MS-ADD-01116-000-00012.jpg";
locked = 1;
pos = (-2138,-1861);
scale = (5,5);
};
layerId = "EA4D98C5-CAB0-46B2-9CAD-4F692BF5BA40";
name = "3 Jan 26 at 16:58";
shapes = (
{
closed = 1;
nodes = (
(137,-1,o),
(385,3,o),
(456,3,cs),
(473,3,o),
(499,3,o),
(509,16,cs),
(526,38,o),
(549,59,o),
(575,83,cs),
(583,91,o),
(578,104,o),
(567,103,cs),
(409,94,o),
(206,143,o),
(77,296,cs),
(69,305,o),
(57,302,o),
(54,296,cs),
(37,261,o),
(3,227,o),
(-17,214,cs),
(-29,206,o),
(-27,201,o),
(-17,189,cs),
(12,153,o),
(80,81,o),
(126,63,c),
(137,110,l),
(93,103,o),
(37,94,o),
(-7,145,c),
(-7,0,l)
);
}
);
width = 579;
},
{
anchors = (
{
name = bottom;
pos = (437,-67);
},
{
name = damma;
pos = (28,121);
},
{
name = exit;
},
{
name = fatha;
pos = (407,177);
},
{
name = kasra;
pos = (506,-52);
},
{
name = top;
pos = (21,249);
}
);
associatedMasterId = m01;
backgroundImage = {
alpha = 80;
imagePath = "images/MS-ADD-01116-000-00012.jpg";
locked = 1;
pos = (-2138,-1861);
scale = (5,5);
};
layerId = "87C3739A-D4CB-4AE6-BBCC-05B9320903EB";
name = "3 Jan 26 at 16:58";
shapes = (
{
closed = 1;
nodes = (
(137,-1,o),
(385,3,o),
(456,3,cs),
(473,3,o),
(499,3,o),
(509,16,cs),
(526,38,o),
(549,59,o),
(575,83,cs),
(583,91,o),
(578,104,o),
(567,103,cs),
(409,94,o),
(206,143,o),
(77,296,cs),
(69,305,o),
(57,302,o),
(54,296,cs),
(37,261,o),
(3,227,o),
(-17,214,cs),
(-29,206,o),
(-27,201,o),
(-17,189,cs),
(12,153,o),
(80,81,o),
(126,63,c),
(137,110,l),
(93,103,o),
(37,94,o),
(-7,145,c),
(-7,0,l)
);
}
);
width = 579;
},
{
anchors = (
{
name = bottom;
pos = (437,-67);
},
{
name = damma;
pos = (28,121);
},
{
name = exit;
},
{
name = fatha;
pos = (407,177);
},
{
name = kasra;
pos = (506,-52);
},
{
name = top;
pos = (21,249);
}
);
associatedMasterId = m01;
backgroundImage = {
alpha = 80;
imagePath = "images/MS-ADD-01116-000-00012.jpg";
locked = 1;
pos = (-2138,-1861);
scale = (5,5);
};
layerId = "44F6FCD1-1DC0-4FC0-8E40-87307DC803C9";
name = "3 Jan 26 at 16:59";
shapes = (
{
closed = 1;
nodes = (
(595,0,l),
(611,25,o),
(646,68,o),
(683,108,c),
(580,109,o),
(229,85,o),
(81,292,c),
(57,256,o),
(14,208,o),
(-15,187,c),
(30,135,o),
(87,91,o),
(147,63,c),
(153,110,l),
(-40,110,l),
(-40,0,l)
);
}
);
width = 579;
}
);
metricRight = "=0";
production = hahar.init.hah;
script = arabic;
sortName = arL0017.hah;
sortNameKeep = arL0017.hah;
}
{
category = Letter;
glyphname = "hah-ar.medi";
kernLeft = hah;
kernRight = hah.init;
layers = (
{
anchors = (
{
name = bottom;
pos = (250,-40);
},
{
name = damma;
pos = (26,143);
},
{
name = entry;
pos = (148,122);
},
{
name = exit;
},
{
name = fatha;
pos = (69,360);
},
{
name = kasra;
pos = (478,-52);
},
{
name = top;
pos = (46,258);
}
);
attr = {
colorPalette = 4;
};
backgroundImage = {
alpha = 80;
angle = 1;
crop = (0,0,1500,1216);
imagePath = "images/MS-ADD-01116-000-00044.jpg";
locked = 1;
pos = (-5011,-1716);
scale = (5,5);
};
layerId = m01;
shapes = (
{
closed = 1;
nodes = (
(527,0,l),
(543,25,o),
(578,71,o),
(615,112,c),
(303,112,ls),
(243,112,o),
(148,234,o),
(91,309,c),
(60,271,o),
(25,241,o),
(-12,217,c),
(32,152,o),
(102,78,o),
(161,38,c),
(173,110,l),
(-6,110,l),
(-6,0,l)
);
}
);
width = 615;
},
{
associatedMasterId = m01;
attr = {
colorPalette = 1;
};
backgroundImage = {
alpha = 80;
angle = 1;
crop = (0,0,1500,1216);
imagePath = "images/MS-ADD-01116-000-00044.jpg";
locked = 1;
pos = (-5011,-1716);
scale = (5,5);
};
layerId = "D2F081AE-7D4D-406B-9EE2-A94E4908B452";
metricRight = "=23";
name = "3 Jan 26 at 18:39";
shapes = (
{
closed = 1;
nodes = (
(522,10,l),
(536,31,o),
(562,68,o),
(592,102,c),
(303,102,l),
(241,102,o),
(153,211,o),
(90,293,c),
(63,261,o),
(33,236,o),
(2,214,c),
(42,157,o),
(101,94,o),
(154,55,c),
(161,100,l),
(-20,100,l),
(-20,10,l)
);
}
);
width = 615;
},
{
anchors = (
{
name = bottom;
pos = (250,-40);
},
{
name = damma;
pos = (26,143);
},
{
name = entry;
pos = (133,122);
},
{
name = exit;
},
{
name = fatha;
pos = (69,360);
},
{
name = kasra;
pos = (478,-52);
},
{
name = top;
pos = (46,258);
}
);
associatedMasterId = m01;
backgroundImage = {
alpha = 80;
angle = 1;
crop = (0,0,1500,1216);
imagePath = "images/MS-ADD-01116-000-00044.jpg";
locked = 1;
pos = (-5011,-1716);
scale = (5,5);
};
layerId = "45EB1093-F662-4C92-A875-7467E9F4D140";
name = "Regular 3 Jan 26 at 18:40";
shapes = (
{
closed = 1;
nodes = (
(123,-1,o),
(417,3,o),
(470,3,cs),
(491,3,o),
(503,14,o),
(522,28,cs),
(549,48,o),
(562,61,o),
(591,83,cs),
(603,92,o),
(597,106,o),
(582,105,cs),
(461,96,o),
(376,96,o),
(303,103,cs),
(234,110,o),
(168,224,o),
(98,299,cs),
(87,311,o),
(70,309,o),
(66,296,cs),
(52,252,o),
(24,237,o),
(4,224,cs),
(-8,216,o),
(-3,204,o),
(6,192,cs),
(50,134,o),
(109,72,o),
(161,38,c),
(173,110,l),
(-20,110,l),
(-20,0,l)
);
}
);
width = 597;
}
);
metricRight = "=0";
script = arabic;
sortName = arL0016;
sortNameKeep = arL0016;
}
{
category = Letter;
glyphname = "hah-ar.medi.hah";
kernLeft = hah;
kernRight = hah.init;
layers = (
{
anchors = (
{
name = bottom;
pos = (438,-68);
},
{
name = damma;
pos = (12,149);
},
{
name = entry;
pos = (109,122);
},
{
name = exit;
pos = (15,0);
},
{
name = fatha;
pos = (45,360);
},
{
name = kasra;
pos = (489,-52);
},
{
name = top;
pos = (22,258);
}
);
attr = {
colorPalette = 4;
};
layerId = m01;
shapes = (
{
closed = 1;
nodes = (
(93,103,o),
(33,94,o),
(-11,145,c),
(16,99,o),
(57,50,o),
(121,0,c),
(503,0,l),
(519,25,o),
(554,71,o),
(591,112,c),
(279,112,ls),
(219,112,o),
(124,234,o),
(67,309,c),
(36,271,o),
(1,241,o),
(-36,217,c),
(8,152,o),
(78,78,o),
(137,38,c),
(137,110,l)
);
}
);
width = 591;
},
{
anchors = (
{
name = bottom;
pos = (438,-68);
},
{
name = damma;
pos = (12,149);
},
{
name = entry;
pos = (109,122);
},
{
name = exit;
},
{
name = fatha;
pos = (45,360);
},
{
name = kasra;
pos = (489,-52);
},
{
name = top;
pos = (22,258);
}
);
associatedMasterId = m01;
attr = {
colorPalette = 1;
};
layerId = "6F68D3D7-B6DE-4D38-940D-A9E46598ADD9";
metricRight = "=23";
name = "Regular 3 Jan 26 at 18:55";
shapes = (
{
closed = 1;
nodes = (
(-17,10,l),
(498,10,l),
(512,31,o),
(538,68,o),
(568,102,c),
(279,102,l),
(217,102,o),
(129,211,o),
(66,293,c),
(39,261,o),
(9,236,o),
(-22,214,c),
(18,157,o),
(77,94,o),
(130,55,c),
(139,100,l),
(94,93,o),
(27,86,o),
(-17,137,c)
);
}
);
width = 591;
}
);
metricRight = "=0";
production = hahar.medi.hah;
script = arabic;
sortName = arL0016.hah;
sortNameKeep = arL0016.hah;
}
{
glyphname = "heh-ar.fina";
kernLeft = heh;
kernRight = beh;
layers = (
{
anchors = (
{
name = damma;
pos = (-54,176);
},
{
name = entry;
pos = (336,0);
},
{
name = fatha;
pos = (262,493);
},
{
name = kasra;
pos = (303,-52);
},
{
name = top;
pos = (295,418);
}
);
attr = {
colorPalette = 4;
};
backgroundImage = {
alpha = 80;
imagePath = "images/MS-ADD-01116-000-00031.jpg";
locked = 1;
pos = (-3171,-2818);
scale = (5,5);
};
layerId = m01;
shapes = (
{
closed = 1;
nodes = (
(318,433,o),
(262,373,o),
(226,366,c),
(226,248,l),
(247,349,l),
(78,311,o),
(0,229,o),
(0,141,cs),
(0,48,o),
(67,3,o),
(197,0,cs),
(262,-2,o),
(309,-3,o),
(352,0,c),
(352,110,l),
(336,110,l),
(336,483,l)
);
}
);
width = 336;
},
{
associatedMasterId = m01;
attr = {
colorPalette = 1;
};
layerId = "E1AD996E-50C0-4393-ADF9-33DE7495E6CF";
metricLeft = "=10";
metricRight = "=10@157";
name = "Regular 13 Jan 24 at 19:34";
shapes = (
{
closed = 1;
nodes = (
(265,8,o),
(311,9,o),
(354,10,c),
(354,110,l),
(326,110,l),
(326,439,l),
(302,402,o),
(265,367,o),
(236,356,c),
(236,315,l),
(278,345,l),
(93,311,o),
(10,229,o),
(10,141,cs),
(10,55,o),
(72,13,o),
(197,10,cs)
);
},
{
closed = 1;
nodes = (
(198,154,o),
(192,160,o),
(192,167,cs),
(192,173,o),
(198,179,o),
(205,179,cs),
(211,179,o),
(217,173,o),
(217,167,cs),
(217,160,o),
(211,154,o),
(205,154,cs)
);
}
);
width = 336;
}
);
metricLeft = "=0";
metricRight = "=0@157";
}
{
category = Letter;
glyphname = "heh-ar.init.round";
kernRight = heh.init;
layers = (
{
anchors = (
{
name = damma;
pos = (-23,169);
},
{
name = exit;
pos = (5,0);
},
{
name = fatha;
pos = (284,534);
},
{
name = kasra;
pos = (249,-61);
}
);
attr = {
colorPalette = 4;
};
layerId = m01;
shapes = (
{
closed = 1;
nodes = (
(303,-4,o),
(337,35,o),
(337,94,cs),
(337,501,ls),
(337,515,o),
(331,517,o),
(323,505,cs),
(297,465,o),
(253,434,o),
(217,409,c),
(217,298,l),
(253,398,l),
(183,391,o),
(68,335,o),
(23,268,cs),
(-12,214,o),
(-30,142,o),
(27,69,cs),
(71,11,o),
(145,-6,o),
(224,-5,cs)
);
}
);
width = 337;
},
{
associatedMasterId = m01;
attr = {
colorPalette = 1;
};
layerId = "647E2D9D-2446-4CA0-9358-B35404118D79";
metricLeft = "=0";
metricRight = "=10";
name = "Regular 14 Jan 24 at 00:32";
shapes = (
{
closed = 1;
nodes = (
(297,6,o),
(327,40,o),
(327,94,cs),
(327,493,l),
(301,456,o),
(260,427,o),
(227,404,c),
(227,355,l),
(238,386,l),
(170,373,o),
(71,322,o),
(31,262,cs),
(-2,211,o),
(-19,144,o),
(35,75,cs),
(77,20,o),
(146,4,o),
(224,5,cs)
);
},
{
closed = 1;
nodes = (
(197,133,o),
(191,139,o),
(191,146,cs),
(191,152,o),
(197,158,o),
(204,158,cs),
(210,158,o),
(216,152,o),
(216,146,cs),
(216,139,o),
(210,133,o),
(204,133,cs)
);
},
{
closed = 1;
nodes = (
(197,241,o),
(191,247,o),
(191,254,cs),
(191,260,o),
(197,266,o),
(204,266,cs),
(210,266,o),
(216,260,o),
(216,254,cs),
(216,247,o),
(210,241,o),
(204,241,cs)
);
}
);
width = 337;
}
);
metricLeft = "=meem-ar.init.round";
metricRight = "=0";
script = arabic;
sortName = arL0067.round;
}
{
glyphname = "heh-ar.medi.round";
kernRight = beh;
layers = (
{
anchors = (
{
name = damma;
pos = (-35,168);
},
{
name = entry;
pos = (323,0);
},
{
name = exit;
},
{
name = fatha;
pos = (233,520);
},
{
name = kasra;
pos = (235,-61);
}
);
attr = {
colorPalette = 4;
};
layerId = m01;
shapes = (
{
closed = 1;
nodes = (
(283,-11,o),
(335,51,o),
(336,110,c),
(324,110,o),
(320,134,o),
(320,157,cs),
(320,523,l),
(302,473,o),
(246,413,o),
(210,406,c),
(210,368,l),
(230,391,l),
(160,379,o),
(60,333,o),
(18,275,cs),
(-20,223,o),
(-42,152,o),
(11,76,cs),
(52,16,o),
(125,-5,o),
(204,-8,c)
);
},
{
closed = 1;
nodes = (
(336,0,l),
(336,110,l),
(200,110,l),
(200,0,l)
);
}
);
width = 320;
},
{
associatedMasterId = m01;
attr = {
colorPalette = 1;
};
layerId = "714342F1-C8B0-48F1-BBAA-B4DFB4DC8E85";
metricLeft = "=-11";
metricRight = "=10@157";
name = "Regular 14 Jan 24 at 01:07";
shapes = (
{
closed = 1;
nodes = (
(265,-1,o),
(309,36,o),
(323,80,c),
(338,84,l),
(338,100,l),
(315,100,o),
(310,125,o),
(310,157,cs),
(310,481,l),
(286,444,o),
(249,409,o),
(220,398,c),
(220,368,l),
(233,381,l),
(165,370,o),
(67,325,o),
(26,269,cs),
(-10,219,o),
(-31,153,o),
(19,82,cs),
(58,25,o),
(127,5,o),
(204,2,cs)
);
},
{
closed = 1;
nodes = (
(338,10,l),
(338,100,l),
(210,100,l),
(210,10,l)
);
},
{
closed = 1;
nodes = (
(179,131,o),
(174,137,o),
(174,144,cs),
(174,150,o),
(181,156,o),
(188,156,cs),
(194,155,o),
(199,149,o),
(199,143,cs),
(199,136,o),
(192,130,o),
(186,131,cs)
);
},
{
closed = 1;
nodes = (
(178,240,o),
(172,246,o),
(173,253,cs),
(173,259,o),
(179,265,o),
(186,265,cs),
(192,264,o),
(198,258,o),
(198,252,cs),
(197,245,o),
(191,239,o),
(185,240,cs)
);
}
);
width = 320;
}
);
metricLeft = "=-20";
metricRight = "=0@157";
}
{
color = 9;
glyphname = "kaf-ar.init";
kernLeft = kaf;
kernRight = dal.isol;
layers = (
{
anchors = (
{
name = damma;
pos = (18,177);
},
{
name = exit;
},
{
name = fatha;
pos = (191,354);
},
{
name = gaf;
pos = (126,292);
},
{
name = kasra;
pos = (590,-53);
}
);
backgroundImage = {
alpha = 80;
angle = 2;
imagePath = "images/MS-ADD-01116-000-00016.jpg";
locked = 1;
pos = (-3313,-3486);
scale = (5,5);
};
layerId = m01;
shapes = (
{
closed = 1;
nodes = (
(178,0,o),
(465,0,o),
(720,0,cs),
(754,0,o),
(765,14,o),
(765,42,cs),
(765,98,o),
(743,176,o),
(713,230,cs),
(707,241,o),
(699,245,o),
(692,245,cs),
(503,245,o),
(289,230,o),
(124,249,c),
(175,328,ls),
(184,342,o),
(171,349,o),
(162,338,cs),
(23,163,ls),
(20,159,o),
(20,155,o),
(25,152,cs),
(34,146,o),
(68,140,o),
(116,137,cs),
(248,129,o),
(486,128,o),
(604,129,cs),
(612,129,o),
(619,124,o),
(621,120,cs),
(625,114,o),
(619,110,o),
(597,109,cs),
(517,107,o),
(70,111,o),
(-10,110,c),
(-10,0,l)
);
}
);
width = 765;
},
{
anchors = (
{
name = damma;
pos = (18,177);
},
{
name = exit;
},
{
name = fatha;
pos = (191,354);
},
{
name = gaf;
pos = (126,292);
},
{
name = kasra;
pos = (3090,-53);
}
);
associatedMasterId = m01;
attr = {
coordinates = (
100
);
};
layerId = "F7B304CE-F14F-4C45-8F42-E525D4807B96";
name = "17 May 23 at 02:07";
shapes = (
{
closed = 1;
nodes = (
(178,0,o),
(5700,0,o),
(5955,0,cs),
(5989,0,o),
(6000,14,o),
(6000,42,cs),
(6000,98,o),
(5978,176,o),
(5948,230,cs),
(5942,241,o),
(5934,245,o),
(5927,245,cs),
(5738,245,o),
(289,230,o),
(124,249,c),
(175,328,ls),
(184,342,o),
(171,349,o),
(162,338,cs),
(23,163,ls),
(20,159,o),
(20,155,o),
(25,152,cs),
(34,146,o),
(68,140,o),
(116,137,cs),
(248,129,o),
(5721,128,o),
(5839,129,cs),
(5847,129,o),
(5854,124,o),
(5856,120,cs),
(5860,114,o),
(5854,110,o),
(5832,109,cs),
(5752,107,o),
(70,109,o),
(-10,110,c),
(-10,0,l)
);
}
);
width = 6000;
},
{
anchors = (
{
name = damma;
pos = (28,227);
},
{
name = exit;
},
{
name = fatha;
pos = (239,300);
},
{
name = gaf;
pos = (126,292);
},
{
name = kasra;
pos = (247,-73);
}
);
associatedMasterId = m01;
attr = {
coordinates = (
0
);
};
layerId = "9C4DD387-C1A2-43F3-A266-AC5DE9811939";
name = "17 May 23 at 13:22";
shapes = (
{
closed = 1;
nodes = (
(168,-3,o),
(232,-3,o),
(377,0,cs),
(411,1,o),
(422,14,o),
(422,42,cs),
(422,98,o),
(400,172,o),
(370,226,cs),
(364,237,o),
(356,245,o),
(349,245,cs),
(277,243,o),
(155,241,o),
(118,243,c),
(175,328,ls),
(184,342,o),
(171,349,o),
(162,338,cs),
(23,154,ls),
(20,150,o),
(20,146,o),
(25,143,cs),
(34,137,o),
(60,131,o),
(116,130,cs),
(175,129,o),
(179,129,o),
(261,129,cs),
(269,129,o),
(276,124,o),
(278,120,cs),
(282,114,o),
(276,109,o),
(254,109,cs),
(188,109,o),
(69,110,o),
(-10,110,c),
(-10,0,l)
);
}
);
width = 422;
}
);
metricLeft = "=-10";
metricRight = "=0";
}
{
category = Letter;
glyphname = "lam-ar.init";
kernLeft = lam;
kernRight = lam;
layers = (
{
anchors = (
{
name = exit;
}
);
attr = {
colorPalette = 4;
};
backgroundImage = {
alpha = 80;
angle = -0.1;
imagePath = "images/MS-ADD-01116-000-00003.jpg";
locked = 1;
pos = (-3157,-1867);
scale = (5,5);
};
layerId = m01;
shapes = (
{
closed = 1;
nodes = (
(35,0,ls),
(74,0,o),
(100,37,o),
(100,72,cs),
(100,780,ls),
(100,794,o),
(93,796,o),
(85,784,cs),
(61,742,o),
(19,703,o),
(-10,697,c),
(-10,110,l),
(-30,110,l),
(-30,0,l)
);
}
);
width = 123;
},
{
associatedMasterId = m01;
attr = {
colorPalette = 1;
};
backgroundImage = {
alpha = 80;
angle = -0.1;
imagePath = "images/MS-ADD-01116-000-00003.jpg";
locked = 1;
pos = (-3157,-1867);
scale = (5,5);
};
layerId = "EDF16731-9693-445B-8B98-8193F6580894";
name = "Regular 22 Aug 24 at 02:48";
shapes = (
{
closed = 1;
nodes = (
(35,10,ls),
(67,10,o),
(90,42,o),
(90,72,cs),
(90,771,l),
(66,734,o),
(29,699,o),
(0,688,c),
(0,110,l),
(-32,110,l),
(-32,10,l)
);
}
);
width = 123;
}
);
script = arabic;
sortName = arL0056;
}
{
category = Letter;
glyphname = "lam-ar.init.hah1.alt";
layers = (
{
anchors = (
{
name = damma;
pos = (-9,232);
},
{
name = exit;
pos = (-63,130);
},
{
name = fatha;
pos = (-69,625);
},
{
name = kasra;
pos = (163,-72);
}
);
attr = {
colorPalette = 4;
};
backgroundImage = {
alpha = 80;
angle = -1.1;
imagePath = "images/MS-ADD-01116-000-00003.jpg";
locked = 1;
pos = (-2756,-3785);
scale = (5,5);
};
layerId = m01;
name = Regular;
shapes = (
{
closed = 1;
nodes = (
(100,142,l),
(100,771,ls),
(100,785,o),
(93,787,o),
(85,775,cs),
(61,733,o),
(19,694,o),
(-10,688,c),
(-10,195,l)
);
}
);
visible = 1;
width = 100;
},
{
associatedMasterId = m01;
attr = {
colorPalette = 1;
};
backgroundImage = {
alpha = 80;
angle = -1.1;
imagePath = "images/MS-ADD-01116-000-00003.jpg";
locked = 1;
pos = (-2756,-3785);
scale = (5,5);
};
layerId = "62651607-5DE7-4C4C-ADB7-41CDDBC2D267";
metricLeft = "=0";
metricRight = "=10";
name = "3 Jan 26 at 17:13";
shapes = (
{
closed = 1;
nodes = (
(90,120,l),
(90,761,l),
(66,724,o),
(29,689,o),
(0,678,c),
(0,120,l)
);
}
);
width = 100;
}
);
metricLeft = "=-10";
metricRight = "=0";
script = arabic;
sortName = arL0056.hah1.alt;
}
{
category = Letter;
glyphname = "lam-ar.init.hah2.alt";
layers = (
{
anchors = (
{
name = damma;
pos = (-9,332);
},
{
name = exit;
pos = (-63,230);
},
{
name = fatha;
pos = (-69,608);
},
{
name = kasra;
pos = (163,28);
}
);
attr = {
colorPalette = 4;
};
layerId = m01;
shapes = (
{
closed = 1;
nodes = (
(100,240,l),
(100,751,ls),
(100,765,o),
(93,767,o),
(85,755,cs),
(61,713,o),
(19,674,o),
(-10,668,c),
(-10,293,l)
);
}
);
width = 100;
},
{
anchors = (
{
name = damma;
pos = (-9,332);
},
{
name = exit;
pos = (-63,230);
},
{
name = fatha;
pos = (-69,608);
},
{
name = kasra;
pos = (163,28);
}
);
associatedMasterId = m01;
attr = {
colorPalette = 1;
};
layerId = "5B441E5E-25D4-4B4C-AFC3-E87551109C1B";
metricLeft = "=0";
metricRight = "=10";
name = "Regular 3 Jan 26 at 17:16";
shapes = (
{
closed = 1;
nodes = (
(90,220,l),
(90,741,l),
(66,704,o),
(29,669,o),
(0,658,c),
(0,220,l)
);
}
);
width = 100;
}
);
metricLeft = "=-10";
metricRight = "=0";
production = lamar.init.hah2.alt;
script = arabic;
sortName = arL0056.hah2.alt;
sortNameKeep = arL0056.hah2.alt;
}
{
glyphname = "lam-ar.init.short";
kernLeft = lam;
kernRight = lam;
layers = (
{
anchors = (
{
name = damma;
pos = (-22,173);
},
{
name = exit;
},
{
name = fatha;
pos = (-81,520);
},
{
name = kasra;
pos = (96,-36);
}
);
attr = {
colorPalette = 4;
};
backgroundImage = {
alpha = 80;
angle = -0.1;
imagePath = "images/MS-ADD-01116-000-00003.jpg";
locked = 1;
pos = (-3184,-1867);
scale = (5,5);
};
layerId = m01;
shapes = (
{
closed = 1;
nodes = (
(35,0,ls),
(74,0,o),
(100,37,o),
(100,72,cs),
(100,679,ls),
(100,693,o),
(93,695,o),
(85,683,cs),
(61,641,o),
(19,602,o),
(-10,596,c),
(-10,110,l),
(-30,110,l),
(-30,0,l)
);
}
);
width = 100;
},
{
anchors = (
{
name = damma;
pos = (5,173);
},
{
name = exit;
},
{
name = fatha;
pos = (-54,520);
},
{
name = kasra;
pos = (123,-36);
}
);
associatedMasterId = m01;
backgroundImage = {
alpha = 80;
angle = -0.1;
imagePath = "images/MS-ADD-01116-000-00003.jpg";
locked = 1;
pos = (-3157,-1867);
scale = (5,5);
};
layerId = "0D7BC4EE-3A33-4ABA-AF50-64FE119541EF";
name = "22 Aug 24 at 00:55";
shapes = (
{
closed = 1;
nodes = (
(18,0,l),
(92,2,o),
(127,8,o),
(123,116,cs),
(118,263,o),
(107,475,o),
(98,671,cs),
(97,694,o),
(83,700,o),
(73,681,cs),
(61,658,o),
(22,624,o),
(4,610,cs),
(-11,597,o),
(-5,584,o),
(-4,574,cs),
(6,413,o),
(16,239,o),
(18,110,c),
(-20,110,l),
(-20,0,l)
);
}
);
width = 123;
},
{
anchors = (
{
name = damma;
pos = (-22,173);
},
{
name = fatha;
pos = (-81,520);
},
{
name = kasra;
pos = (96,-36);
}
);
associatedMasterId = m01;
attr = {
colorPalette = 1;
};
backgroundImage = {
alpha = 80;
angle = -0.1;
imagePath = "images/MS-ADD-01116-000-00003.jpg";
locked = 1;
pos = (-3184,-1867);
scale = (5,5);
};
layerId = "69B0F7C6-21FE-42FD-B8CB-AA3E312980A6";
name = "Regular 22 Aug 24 at 00:57";
shapes = (
{
closed = 1;
nodes = (
(35,10,ls),
(67,10,o),
(90,42,o),
(90,72,cs),
(90,671,l),
(66,634,o),
(29,599,o),
(0,588,c),
(0,110,l),
(-32,110,l),
(-32,10,l)
);
}
);
width = 100;
}
);
metricLeft = "=behDotless-ar.init";
metricRight = "=behDotless-ar.init";
}
{
category = Letter;
glyphname = "lam-ar.medi.hah2.round";
kernLeft = lam;
kernRight = beh;
layers = (
{
anchors = (
{
name = damma;
pos = (-31,404);
},
{
name = entry;
pos = (95,230);
},
{
name = exit;
pos = (0,230);
},
{
name = fatha;
pos = (-85,648);
},
{
name = hamzaabove;
pos = (138,674);
},
{
name = kasra;
pos = (60,174);
}
);
layerId = m01;
shapes = (
{
closed = 1;
nodes = (
(107,230,l),
(107,340,l),
(95,340,o),
(93,364,o),
(92,387,cs),
(85,556,o),
(75,625,o),
(68,786,cs),
(67,809,o),
(53,815,o),
(43,796,cs),
(31,773,o),
(-7,739,o),
(-25,725,cs),
(-41,713,o),
(-35,699,o),
(-34,689,cs),
(-24,528,o),
(-10,379,o),
(-10,377,cs),
(-6,250,o),
(37,230,o),
(86,230,cs)
);
}
);
width = 95;
}
);
metricRight = "=3@387";
script = arabic;
sortName = arL0055.hah2.round;
}
{
glyphname = "lam-ar.medi.round";
kernRight = beh;
layers = (
{
anchors = (
{
name = damma;
pos = (-31,166);
},
{
name = entry;
pos = (110,0);
},
{
name = exit;
pos = (11,0);
},
{
name = fatha;
pos = (-64,625);
},
{
name = kasra;
pos = (60,-56);
}
);
attr = {
colorPalette = 4;
};
layerId = m01;
shapes = (
{
closed = 1;
nodes = (
(110,0,l),
(110,780,ls),
(110,794,o),
(103,796,o),
(95,784,cs),
(71,742,o),
(29,703,o),
(0,697,c),
(0,146,ls),
(0,64,o),
(12,0,o),
(97,0,cs)
);
}
);
width = 110;
},
{
associatedMasterId = m01;
attr = {
colorPalette = 1;
};
layerId = "EEDAE711-A487-45DB-B5AB-A82BEBBB53E1";
name = "Regular 30 Oct 24 at 01:13";
shapes = (
{
closed = 1;
nodes = (
(110,10,l),
(110,100,l),
(100,100,l),
(100,771,l),
(76,734,o),
(39,696,o),
(10,689,c),
(10,146,ls),
(10,71,o),
(21,10,o),
(97,10,cs)
);
}
);
width = 110;
}
);
metricRight = "=0";
}
{
category = Letter;
glyphname = "lam-ar.medi.round.short";
kernRight = beh;
layers = (
{
anchors = (
{
name = damma;
pos = (-17,180);
},
{
name = entry;
pos = (110,0);
},
{
name = exit;
pos = (11,0);
},
{
name = fatha;
pos = (-78,541);
},
{
name = kasra;
pos = (40,-56);
}
);
attr = {
colorPalette = 4;
};
layerId = m01;
shapes = (
{
closed = 1;
nodes = (
(110,0,l),
(110,679,ls),
(110,693,o),
(103,695,o),
(95,683,cs),
(71,641,o),
(29,602,o),
(0,596,c),
(0,146,ls),
(0,64,o),
(12,0,o),
(97,0,cs)
);
}
);
width = 110;
},
{
associatedMasterId = m01;
attr = {
colorPalette = 1;
};
layerId = "D59208EB-67D7-487E-AAAE-1917FBB6E6C4";
name = "Regular 30 Oct 24 at 01:21";
shapes = (
{
closed = 1;
nodes = (
(110,10,l),
(110,100,l),
(100,100,l),
(100,671,l),
(76,634,o),
(39,599,o),
(10,588,c),
(10,146,ls),
(10,71,o),
(21,10,o),
(97,10,cs)
);
}
);
width = 110;
}
);
metricRight = "=0";
production = lamar.medi.round.short;
script = arabic;
sortName = arL0055.round.short;
sortNameKeep = arL0055.round.short;
}
{
category = Letter;
glyphname = "lam_alef-ar.fina";
layers = (
{
anchors = (
{
name = caret_1;
pos = (271,0);
},
{
name = damma_1;
pos = (110,289);
},
{
name = damma_2;
pos = (-8,61);
},
{
name = entry;
pos = (522,0);
},
{
name = fatha_1;
pos = (20,592);
},
{
name = fatha_2;
pos = (464,645);
},
{
name = kasra_1;
pos = (466,-58);
},
{
name = kasra_2;
pos = (150,-43);
},
{
name = madda_2;
pos = (278,657);
}
);
attr = {
colorPalette = 4;
};
backgroundImage = {
alpha = 80;
angle = 2;
crop = (0,0,1500,1189);
imagePath = "images/MS-ADD-01116-000-00040.jpg";
locked = 1;
pos = (-1131,-1749);
scale = (5,5);
};
layerId = m01;
shapes = (
{
closed = 1;
nodes = (
(564,0,l),
(590,94,l),
(411,189,o),
(216,587,o),
(144,774,c),
(119,732,o),
(91,695,o),
(54,666,c),
(122,513,o),
(211,356,o),
(297,241,c),
(325,311,l),
(384,504,o),
(411,587,o),
(409,791,c),
(386,746,o),
(346,703,o),
(309,683,c),
(313,358,o),
(184,236,o),
(0,0,c)
);
}
);
width = 564;
},
{
associatedMasterId = m01;
attr = {
colorPalette = 1;
};
backgroundImage = {
alpha = 80;
angle = 2;
crop = (0,0,1500,1189);
imagePath = "images/MS-ADD-01116-000-00040.jpg";
locked = 1;
pos = (-1131,-1749);
scale = (5,5);
};
layerId = "C6CB746E-F566-41A7-8299-E6CDBA7FDC53";
name = "22 Aug 24 at 16:29";
shapes = (
{
closed = 1;
nodes = (
(568,10,l),
(589,84,l),
(408,173,o),
(220,556,o),
(142,752,c),
(121,718,o),
(96,688,o),
(66,663,c),
(131,519,o),
(213,373,o),
(294,261,c),
(316,314,l),
(371,495,o),
(398,578,o),
(399,755,c),
(377,723,o),
(347,694,o),
(319,677,c),
(321,360,o),
(196,234,o),
(21,10,c)
);
},
{
closed = 1;
nodes = (
(290,177,o),
(284,183,o),
(284,190,cs),
(284,196,o),
(290,202,o),
(297,202,cs),
(303,202,o),
(309,196,o),
(309,190,cs),
(309,183,o),
(303,177,o),
(297,177,cs)
);
}
);
width = 564;
},
{
anchors = (
{
name = caret_1;
pos = (217,0);
},
{
name = damma_1;
pos = (56,289);
},
{
name = damma_2;
pos = (-62,61);
},
{
name = entry;
pos = (510,0);
},
{
name = fatha_1;
pos = (-34,592);
},
{
name = fatha_2;
pos = (410,645);
},
{
name = kasra_1;
pos = (412,-58);
},
{
name = kasra_2;
pos = (96,-43);
},
{
name = madda_2;
pos = (224,657);
}
);
associatedMasterId = m01;
backgroundImage = {
alpha = 80;
angle = 2;
crop = (0,0,1500,1189);
imagePath = "images/MS-ADD-01116-000-00040.jpg";
locked = 1;
pos = (-1185,-1749);
scale = (5,5);
};
layerId = "880BFA34-0ECD-4315-AA29-3049E774D926";
name = "22 Aug 24 at 16:25";
shapes = (
{
closed = 1;
nodes = (
(540,110,l),
(391,124,o),
(158,607,o),
(97,756,cs),
(91,770,o),
(81,769,o),
(75,757,cs),
(57,720,o),
(36,698,o),
(11,678,cs),
(-1,669,o),
(1,658,o),
(6,648,cs),
(51,554,o),
(155,345,o),
(238,230,c),
(271,311,l),
(313,448,o),
(357,619,o),
(357,761,cs),
(357,785,o),
(349,788,o),
(337,770,cs),
(317,740,o),
(291,701,o),
(266,697,cs),
(254,695,o),
(255,685,o),
(255,670,cs),
(255,335,o),
(78,178,o),
(8,77,c),
(-3,61,o),
(-3,56,o),
(7,43,c),
(24,20,o),
(62,5,o),
(122,3,cs),
(232,-1,o),
(386,0,o),
(510,0,c)
);
},
{
closed = 1;
nodes = (
(236,177,o),
(230,183,o),
(230,190,cs),
(230,196,o),
(236,202,o),
(243,202,cs),
(249,202,o),
(255,196,o),
(255,190,cs),
(255,183,o),
(249,177,o),
(243,177,cs)
);
}
);
width = 510;
}
);
script = arabic;
sortName = arL0402;
sortNameKeep = arL0402;
subCategory = Ligature;
}
{
glyphname = "lam_alef-ar";
layers = (
{
anchors = (
{
name = caret_1;
pos = (248,0);
},
{
name = damma_1;
pos = (85,246);
},
{
name = damma_2;
pos = (-65,19);
},
{
name = fatha_1;
pos = (-85,638);
},
{
name = fatha_2;
pos = (427,674);
},
{
name = kasra_1;
pos = (477,-79);
},
{
name = kasra_2;
pos = (91,-84);
},
{
name = madda_2;
pos = (224,640);
}
);
backgroundImage = {
alpha = 80;
angle = 1;
imagePath = "images/MS-ADD-01116-000-00007.jpg";
locked = 1;
pos = (-2576,-2971);
scale = (5,5);
};
layerId = m01;
shapes = (
{
closed = 1;
nodes = (
(546,18,o),
(561,55,o),
(508,102,cs),
(383,212,o),
(221,387,o),
(61,743,cs),
(55,757,o),
(46,756,o),
(41,744,cs),
(25,703,o),
(1,683,o),
(-24,663,cs),
(-36,654,o),
(-34,643,o),
(-29,633,cs),
(54,456,o),
(202,221,o),
(322,109,c),
(294,102,o),
(236,104,o),
(212,110,c),
(320,268,o),
(375,533,o),
(366,786,cs),
(365,811,o),
(350,815,o),
(343,789,cs),
(336,764,o),
(308,728,o),
(280,710,cs),
(272,705,o),
(271,693,o),
(272,676,cs),
(287,383,o),
(216,283,o),
(31,47,cs),
(19,32,o),
(-33,-18,o),
(32,-29,cs),
(107,-42,o),
(362,-63,o),
(500,-2,cs)
);
},
{
closed = 1;
nodes = (
(269,107,o),
(263,113,o),
(263,120,cs),
(263,126,o),
(269,132,o),
(276,132,cs),
(282,132,o),
(288,126,o),
(288,120,cs),
(288,113,o),
(282,107,o),
(276,107,cs)
);
},
{
closed = 0;
nodes = (
(309,186,l)
);
},
{
closed = 1;
nodes = (
(195,75,l),
(331,75,l),
(331,185,l),
(195,185,l)
);
}
);
width = 542;
},
{
anchors = (
{
name = caret_1;
pos = (281,0);
},
{
name = fatha_1;
pos = (-70,666);
},
{
name = fatha_2;
pos = (482,697);
},
{
name = hamzaabove_2;
pos = (482,697);
},
{
name = hamzabelow_2;
pos = (109,-104);
},
{
name = kasra_1;
pos = (495,-99);
},
{
name = kasra_2;
pos = (109,-104);
}
);
associatedMasterId = m01;
backgroundImage = {
alpha = 80;
imagePath = "images/MS-ADD-01116-000-00003.jpg";
locked = 1;
pos = (-4741,-1855);
scale = (5,5);
};
layerId = "76779272-CB8B-466A-A2BB-8224AB3C03F1";
name = "11 Mar 23 at 17:24";
shapes = (
{
closed = 1;
nodes = (
(543,-12,o),
(578,27,o),
(538,77,cs),
(470,163,o),
(404,242,o),
(341,328,c),
(379,453,o),
(399,588,o),
(399,757,cs),
(399,782,o),
(387,785,o),
(374,767,cs),
(353,737,o),
(331,715,o),
(303,697,cs),
(295,692,o),
(295,682,o),
(297,665,cs),
(307,590,o),
(302,489,o),
(281,413,c),
(214,515,o),
(150,628,o),
(91,771,cs),
(85,785,o),
(76,784,o),
(71,772,cs),
(55,731,o),
(34,701,o),
(9,681,cs),
(-3,672,o),
(-1,661,o),
(4,651,cs),
(64,519,o),
(126,390,o),
(204,274,c),
(142,190,o),
(60,90,o),
(27,30,c),
(6,27,o),
(-1,4,o),
(15,-2,cs),
(124,-42,o),
(340,-50,o),
(500,-20,cs)
);
},
{
closed = 1;
nodes = (
(281,131,o),
(275,137,o),
(275,144,cs),
(275,150,o),
(281,156,o),
(288,156,cs),
(294,156,o),
(300,150,o),
(300,144,cs),
(300,137,o),
(294,131,o),
(288,131,cs)
);
}
);
width = 556;
}
);
metricLeft = "=0@0";
metricRight = "=0";
}
{
category = Letter;
glyphname = "lam_alefMaksura-ar.fina";
kernRight = beh;
layers = (
{
anchors = (
{
name = bottom_2;
pos = (348,-230);
},
{
name = damma_1;
pos = (0,170);
},
{
name = damma_2;
pos = (-88,-82);
},
{
name = entry;
pos = (110,0);
},
{
name = fatha_1;
pos = (53,414);
},
{
name = fatha_2;
pos = (-83,272);
},
{
name = kasra_1;
pos = (56,-57);
},
{
name = kasra_2;
pos = (197,-308);
}
);
attr = {
colorPalette = 4;
};
backgroundImage = {
alpha = 80;
angle = 1.8;
imagePath = "images/MS-ADD-01116-000-00066.jpg";
locked = 1;
pos = (-2959,-1894);
scale = (5,5);
};
layerId = m01;
shapes = (
{
closed = 1;
nodes = (
(353,-228,o),
(367,-191,o),
(355,-136,cs),
(345,-90,o),
(335,-62,o),
(322,-38,cs),
(314,-24,o),
(302,-20,o),
(285,-21,cs),
(177,-26,o),
(148,-20,o),
(129,-17,cs),
(110,-14,o),
(110,-5,o),
(110,0,cs),
(110,780,ls),
(110,794,o),
(103,796,o),
(95,784,cs),
(71,742,o),
(29,703,o),
(0,697,c),
(0,0,ls),
(0,-47,o),
(4,-86,o),
(25,-105,c),
(14,-101,o),
(5,-95,o),
(-2,-90,c),
(-13,-111,o),
(-53,-172,o),
(-109,-193,c),
(-39,-260,o),
(192,-267,o),
(313,-238,cs)
);
}
);
width = 359;
},
{
anchors = (
{
name = entry;
pos = (6,0);
}
);
associatedMasterId = m01;
attr = {
colorPalette = 1;
};
backgroundImage = {
alpha = 80;
angle = 1.8;
imagePath = "images/MS-ADD-01116-000-00066.jpg";
locked = 1;
pos = (-2959,-1894);
scale = (5,5);
};
layerId = "BB5A3033-D661-402A-992B-C63FD966FB46";
metricLeft = "=10@0";
metricRight = "=10";
name = "16 Jan 24 at 19:46";
shapes = (
{
closed = 1;
nodes = (
(344,-218,o),
(356,-189,o),
(345,-136,cs),
(336,-94,o),
(325,-66,o),
(311,-41,cs),
(306,-33,o),
(299,-31,o),
(289,-31,cs),
(177,-35,o),
(146,-30,o),
(127,-27,cs),
(104,-23,o),
(100,-10,o),
(100,0,cs),
(100,10,l),
(110,10,l),
(110,100,l),
(100,100,l),
(100,773,l),
(77,734,o),
(40,699,o),
(10,689,c),
(10,0,ls),
(10,-103,o),
(34,-148,o),
(236,-127,c),
(237,-137,l),
(141,-151,o),
(50,-138,o),
(2,-107,c),
(-24,-149,o),
(-52,-176,o),
(-86,-196,c),
(-5,-248,o),
(200,-253,o),
(311,-226,cs)
);
}
);
width = 359;
}
);
metricLeft = "=0@0";
metricRight = "=0";
script = arabic;
sortName = arL0407;
sortNameKeep = arL0407;
subCategory = Ligature;
}
